<ttFont>
    <TTGlyph name=".notdef" xMin="177" yMin="0" xMax="1593" yMax="1416">
      <contour>
        <pt x="559" y="252" on="1"/>
        <pt x="883" y="605" on="1"/>
        <pt x="1220" y="252" on="1"/>
        <pt x="1333" y="365" on="1"/>
        <pt x="985" y="708" on="1"/>
        <pt x="1333" y="1042" on="1"/>
        <pt x="1214" y="1158" on="1"/>
        <pt x="886" y="807" on="1"/>
        <pt x="553" y="1159" on="1"/>
        <pt x="439" y="1043" on="1"/>
        <pt x="783" y="705" on="1"/>
        <pt x="440" y="387" on="1"/>
      </contour>
      <contour>
        <pt x="177" y="1416" on="1"/>
        <pt x="1593" y="1416" on="1"/>
        <pt x="1593" y="0" on="1"/>
        <pt x="177" y="0" on="1"/>
      </contour>
    </TTGlyph>
    <TTGlyph name="A" xMin="-45" yMin="0" xMax="1494" yMax="1525">
      <contour>
        <pt x="-45" y="152" on="1"/>
        <pt x="70" y="176" on="1"/>
        <pt x="507" y="1525" on="1"/>
        <pt x="949" y="1525" on="1"/>
        <pt x="1387" y="175" on="1"/>
        <pt x="1494" y="152" on="1"/>
        <pt x="1494" y="0" on="1"/>
        <pt x="797" y="0" on="1"/>
        <pt x="797" y="152" on="1"/>
        <pt x="930" y="175" on="1"/>
        <pt x="872" y="392" on="1"/>
        <pt x="436" y="392" on="1"/>
        <pt x="380" y="170" on="1"/>
        <pt x="532" y="152" on="1"/>
        <pt x="532" y="0" on="1"/>
        <pt x="-42" y="0" on="1"/>
      </contour>
      <contour>
        <pt x="479" y="565" on="1"/>
        <pt x="827" y="565" on="1"/>
        <pt x="672" y="1153" on="1"/>
        <pt x="650" y="1279" on="1"/>
        <pt x="626" y="1153" on="1"/>
      </contour>
    </TTGlyph>
    <TTGlyph name="AE" xMin="-159" yMin="0" xMax="1980" yMax="1522">
      <contour>
        <pt x="666" y="150" on="1"/>
        <pt x="817" y="174" on="1"/>
        <pt x="817" y="410" on="1"/>
        <pt x="381" y="410" on="1"/>
        <pt x="299" y="174" on="1"/>
        <pt x="449" y="150" on="1"/>
        <pt x="449" y="0" on="1"/>
        <pt x="-159" y="0" on="1"/>
        <pt x="-159" y="150" on="1"/>
        <pt x="-16" y="175" on="1"/>
        <pt x="450" y="1330" on="1"/>
        <pt x="195" y="1360" on="1"/>
        <pt x="195" y="1522" on="1"/>
        <pt x="1821" y="1522" on="1"/>
        <pt x="1849" y="1138" on="1"/>
        <pt x="1664" y="1138" on="1"/>
        <pt x="1590" y="1348" on="1"/>
        <pt x="1231" y="1374" on="1"/>
        <pt x="1231" y="863" on="1"/>
        <pt x="1437" y="870" on="1"/>
        <pt x="1475" y="1034" on="1"/>
        <pt x="1630" y="1034" on="1"/>
        <pt x="1630" y="500" on="1"/>
        <pt x="1476" y="500" on="1"/>
        <pt x="1439" y="677" on="1"/>
        <pt x="1231" y="684" on="1"/>
        <pt x="1231" y="156" on="1"/>
        <pt x="1620" y="187" on="1"/>
        <pt x="1754" y="454" on="1"/>
        <pt x="1980" y="392" on="1"/>
        <pt x="1914" y="0" on="1"/>
        <pt x="666" y="0" on="1"/>
      </contour>
      <contour>
        <pt x="444" y="590" on="1"/>
        <pt x="817" y="590" on="1"/>
        <pt x="817" y="1355" on="1"/>
        <pt x="706" y="1355" on="1"/>
        <pt x="608" y="1060" on="1"/>
      </contour>
    </TTGlyph>
    <TTGlyph name="AEacute" xMin="-159" yMin="0" xMax="1980" yMax="2014">
      <component glyphName="acute.cap" x="513" y="0" flags="0x4"/>
      <component glyphName="AE" x="0" y="0" flags="0x4"/>
    </TTGlyph>
    <TTGlyph name="Aacute" xMin="-43" yMin="0" xMax="1496" yMax="2014">
      <component glyphName="A" x="2" y="0" flags="0x204"/>
      <component glyphName="acute.cap" x="223" y="0" flags="0x4"/>
    </TTGlyph>
    <TTGlyph name="Abreve" xMin="-43" yMin="0" xMax="1496" yMax="2009">
      <component glyphName="A" x="2" y="0" flags="0x204"/>
      <component glyphName="breve.cap" x="217" y="0" flags="0x4"/>
    </TTGlyph>
    <TTGlyph name="Acircumflex" xMin="-43" yMin="0" xMax="1496" yMax="2004">
      <component glyphName="A" x="2" y="0" flags="0x204"/>
      <component glyphName="circumflex.cap" x="209" y="0" flags="0x4"/>
    </TTGlyph>
    <TTGlyph name="Adieresis" xMin="-43" yMin="0" xMax="1496" yMax="2001">
      <component glyphName="A" x="2" y="0" flags="0x204"/>
      <component glyphName="dieresis.cap" x="219" y="0" flags="0x4"/>
    </TTGlyph>
    <TTGlyph name="Agrave" xMin="-43" yMin="0" xMax="1496" yMax="2014">
      <component glyphName="A" x="2" y="0" flags="0x204"/>
      <component glyphName="grave.cap" x="229" y="0" flags="0x4"/>
    </TTGlyph>
    <TTGlyph name="Amacron" xMin="-43" yMin="0" xMax="1496" yMax="1918">
      <component glyphName="A" x="2" y="0" flags="0x204"/>
      <component glyphName="macron.cap" x="386" y="0" flags="0x4"/>
    </TTGlyph>
    <TTGlyph name="Aogonek" xMin="-45" yMin="-515" xMax="1494" yMax="1525">
      <contour>
        <pt x="-45" y="152" on="1"/>
        <pt x="70" y="176" on="1"/>
        <pt x="507" y="1525" on="1"/>
        <pt x="949" y="1525" on="1"/>
        <pt x="1387" y="175" on="1"/>
        <pt x="1494" y="152" on="1"/>
        <pt x="1494" y="0" on="1"/>
        <pt x="1391" y="0" on="1"/>
        <pt x="1341" y="-17" on="0"/>
        <pt x="1262" y="-66" on="0"/>
        <pt x="1207" y="-123" on="0"/>
        <pt x="1178" y="-184" on="0"/>
        <pt x="1178" y="-213" on="1"/>
        <pt x="1178" y="-256" on="0"/>
        <pt x="1255" y="-307" on="0"/>
        <pt x="1322" y="-307" on="1"/>
        <pt x="1340" y="-307" on="0"/>
        <pt x="1368" y="-305" on="0"/>
        <pt x="1394" y="-300" on="0"/>
        <pt x="1421" y="-292" on="0"/>
        <pt x="1438" y="-285" on="1"/>
        <pt x="1438" y="-448" on="1"/>
        <pt x="1417" y="-464" on="0"/>
        <pt x="1352" y="-489" on="0"/>
        <pt x="1279" y="-506" on="0"/>
        <pt x="1204" y="-515" on="0"/>
        <pt x="1173" y="-515" on="1"/>
        <pt x="1105" y="-515" on="0"/>
        <pt x="995" y="-484" on="0"/>
        <pt x="918" y="-429" on="0"/>
        <pt x="876" y="-352" on="0"/>
        <pt x="876" y="-305" on="1"/>
        <pt x="876" y="-259" on="0"/>
        <pt x="920" y="-167" on="0"/>
        <pt x="1000" y="-85" on="0"/>
        <pt x="1113" y="-20" on="0"/>
        <pt x="1181" y="0" on="1"/>
        <pt x="797" y="0" on="1"/>
        <pt x="797" y="152" on="1"/>
        <pt x="930" y="175" on="1"/>
        <pt x="872" y="392" on="1"/>
        <pt x="436" y="392" on="1"/>
        <pt x="380" y="170" on="1"/>
        <pt x="532" y="152" on="1"/>
        <pt x="532" y="0" on="1"/>
        <pt x="-42" y="0" on="1"/>
      </contour>
      <contour>
        <pt x="479" y="565" on="1"/>
        <pt x="827" y="565" on="1"/>
        <pt x="672" y="1153" on="1"/>
        <pt x="650" y="1279" on="1"/>
        <pt x="626" y="1153" on="1"/>
      </contour>
    </TTGlyph>
    <TTGlyph name="Aring" xMin="-45" yMin="0" xMax="1494" yMax="2014">
      <component glyphName="A" x="0" y="0" flags="0x204"/>
      <component glyphName="ring.cap" x="223" y="0" flags="0x4"/>
    </TTGlyph>
    <TTGlyph name="Atilde" xMin="-43" yMin="0" xMax="1496" yMax="2008">
      <component glyphName="A" x="2" y="0" flags="0x204"/>
      <component glyphName="tilde.cap" x="224" y="0" flags="0x4"/>
    </TTGlyph>
    <TTGlyph name="B" xMin="60" yMin="-12" xMax="1451" yMax="1533">
      <contour>
        <pt x="60" y="152" on="1"/>
        <pt x="209" y="176" on="1"/>
        <pt x="209" y="1330" on="1"/>
        <pt x="61" y="1360" on="1"/>
        <pt x="61" y="1522" on="1"/>
        <pt x="409" y="1522" on="1"/>
        <pt x="458" y="1522" on="0"/>
        <pt x="546" y="1525" on="0"/>
        <pt x="628" y="1530" on="0"/>
        <pt x="706" y="1533" on="0"/>
        <pt x="745" y="1533" on="1"/>
        <pt x="930" y="1533" on="0"/>
        <pt x="1165" y="1484" on="0"/>
        <pt x="1298" y="1394" on="0"/>
        <pt x="1347" y="1265" on="0"/>
        <pt x="1347" y="1185" on="1"/>
        <pt x="1347" y="1102" on="0"/>
        <pt x="1291" y="971" on="0"/>
        <pt x="1195" y="877" on="0"/>
        <pt x="1068" y="821" on="0"/>
        <pt x="998" y="813" on="1"/>
        <pt x="1100" y="812" on="0"/>
        <pt x="1267" y="768" on="0"/>
        <pt x="1386" y="681" on="0"/>
        <pt x="1451" y="550" on="0"/>
        <pt x="1451" y="463" on="1"/>
        <pt x="1451" y="361" on="0"/>
        <pt x="1388" y="187" on="0"/>
        <pt x="1232" y="60" on="0"/>
        <pt x="969" y="-12" on="0"/>
        <pt x="770" y="-12" on="1"/>
        <pt x="707" y="-12" on="0"/>
        <pt x="616" y="-8" on="0"/>
        <pt x="538" y="-4" on="0"/>
        <pt x="464" y="0" on="0"/>
        <pt x="417" y="0" on="1"/>
        <pt x="60" y="0" on="1"/>
      </contour>
      <contour>
        <pt x="618" y="161" on="1"/>
        <pt x="627" y="156" on="0"/>
        <pt x="658" y="150" on="0"/>
        <pt x="696" y="145" on="0"/>
        <pt x="737" y="143" on="0"/>
        <pt x="756" y="143" on="1"/>
        <pt x="821" y="143" on="0"/>
        <pt x="911" y="185" on="0"/>
        <pt x="968" y="264" on="0"/>
        <pt x="993" y="376" on="0"/>
        <pt x="993" y="446" on="1"/>
        <pt x="993" y="516" on="0"/>
        <pt x="964" y="612" on="0"/>
        <pt x="907" y="671" on="0"/>
        <pt x="822" y="696" on="0"/>
        <pt x="765" y="696" on="1"/>
        <pt x="724" y="696" on="0"/>
        <pt x="640" y="693" on="0"/>
        <pt x="618" y="691" on="1"/>
      </contour>
      <contour>
        <pt x="619" y="871" on="1"/>
        <pt x="641" y="868" on="0"/>
        <pt x="718" y="866" on="0"/>
        <pt x="753" y="866" on="1"/>
        <pt x="805" y="866" on="0"/>
        <pt x="875" y="907" on="0"/>
        <pt x="918" y="982" on="0"/>
        <pt x="937" y="1087" on="0"/>
        <pt x="937" y="1152" on="1"/>
        <pt x="937" y="1274" on="0"/>
        <pt x="839" y="1385" on="0"/>
        <pt x="736" y="1385" on="1"/>
        <pt x="733" y="1385" on="0"/>
        <pt x="702" y="1384" on="0"/>
        <pt x="663" y="1381" on="0"/>
        <pt x="626" y="1378" on="0"/>
        <pt x="619" y="1376" on="1"/>
      </contour>
    </TTGlyph>
    <TTGlyph name="C" xMin="46" yMin="-23" xMax="1310" yMax="1538">
      <contour>
        <pt x="778" y="-23" on="1"/>
        <pt x="591" y="-23" on="0"/>
        <pt x="316" y="86" on="0"/>
        <pt x="135" y="285" on="0"/>
        <pt x="46" y="567" on="0"/>
        <pt x="46" y="740" on="1"/>
        <pt x="46" y="931" on="0"/>
        <pt x="161" y="1228" on="0"/>
        <pt x="367" y="1432" on="0"/>
        <pt x="649" y="1538" on="0"/>
        <pt x="816" y="1538" on="1"/>
        <pt x="894" y="1538" on="0"/>
        <pt x="1043" y="1524" on="0"/>
        <pt x="1174" y="1507" on="0"/>
        <pt x="1278" y="1493" on="0"/>
        <pt x="1310" y="1493" on="1"/>
        <pt x="1283" y="991" on="1"/>
        <pt x="1024" y="991" on="1"/>
        <pt x="946" y="1334" on="1"/>
        <pt x="939" y="1341" on="0"/>
        <pt x="917" y="1356" on="0"/>
        <pt x="883" y="1368" on="0"/>
        <pt x="833" y="1376" on="0"/>
        <pt x="799" y="1376" on="1"/>
        <pt x="733" y="1376" on="0"/>
        <pt x="627" y="1304" on="0"/>
        <pt x="553" y="1155" on="0"/>
        <pt x="513" y="927" on="0"/>
        <pt x="513" y="772" on="1"/>
        <pt x="513" y="629" on="0"/>
        <pt x="550" y="396" on="0"/>
        <pt x="623" y="231" on="0"/>
        <pt x="732" y="141" on="0"/>
        <pt x="805" y="141" on="1"/>
        <pt x="844" y="141" on="0"/>
        <pt x="899" y="151" on="0"/>
        <pt x="938" y="167" on="0"/>
        <pt x="963" y="188" on="0"/>
        <pt x="974" y="200" on="1"/>
        <pt x="1072" y="430" on="1"/>
        <pt x="1306" y="410" on="1"/>
        <pt x="1273" y="56" on="1"/>
        <pt x="1236" y="52" on="0"/>
        <pt x="1170" y="37" on="0"/>
        <pt x="1104" y="20" on="0"/>
        <pt x="1032" y="1" on="0"/>
        <pt x="947" y="-14" on="0"/>
        <pt x="843" y="-23" on="0"/>
      </contour>
    </TTGlyph>
    <TTGlyph name="Cacute" xMin="46" yMin="-23" xMax="1310" yMax="2014">
      <component glyphName="C" x="0" y="0" flags="0x204"/>
      <component glyphName="acute.cap" x="283" y="0" flags="0x4"/>
    </TTGlyph>
    <TTGlyph name="Ccaron" xMin="46" yMin="-23" xMax="1310" yMax="2014">
      <component glyphName="C" x="0" y="0" flags="0x204"/>
      <component glyphName="caron.cap" x="463" y="0" flags="0x4"/>
    </TTGlyph>
    <TTGlyph name="Ccedilla" xMin="46" yMin="-540" xMax="1310" yMax="1538">
      <contour>
        <pt x="1273" y="56" on="1"/>
        <pt x="1223" y="50" on="0"/>
        <pt x="1137" y="28" on="0"/>
        <pt x="1043" y="4" on="0"/>
        <pt x="931" y="-17" on="0"/>
        <pt x="855" y="-21" on="1"/>
        <pt x="874" y="-42" on="0"/>
        <pt x="916" y="-100" on="0"/>
        <pt x="952" y="-171" on="0"/>
        <pt x="974" y="-253" on="0"/>
        <pt x="972" y="-297" on="1"/>
        <pt x="968" y="-368" on="0"/>
        <pt x="922" y="-461" on="0"/>
        <pt x="839" y="-517" on="0"/>
        <pt x="721" y="-540" on="0"/>
        <pt x="645" y="-540" on="1"/>
        <pt x="644" y="-540" on="1"/>
        <pt x="627" y="-540" on="0"/>
        <pt x="587" y="-535" on="0"/>
        <pt x="548" y="-527" on="0"/>
        <pt x="513" y="-516" on="0"/>
        <pt x="500" y="-510" on="1"/>
        <pt x="501" y="-296" on="1"/>
        <pt x="522" y="-303" on="0"/>
        <pt x="572" y="-309" on="0"/>
        <pt x="583" y="-309" on="1"/>
        <pt x="584" y="-309" on="1"/>
        <pt x="617" y="-309" on="0"/>
        <pt x="668" y="-301" on="0"/>
        <pt x="703" y="-273" on="0"/>
        <pt x="720" y="-217" on="0"/>
        <pt x="720" y="-170" on="1"/>
        <pt x="720" y="-130" on="0"/>
        <pt x="689" y="-47" on="0"/>
        <pt x="672" y="-18" on="1"/>
        <pt x="513" y="-3" on="0"/>
        <pt x="277" y="118" on="0"/>
        <pt x="122" y="314" on="0"/>
        <pt x="46" y="580" on="0"/>
        <pt x="46" y="740" on="1"/>
        <pt x="46" y="931" on="0"/>
        <pt x="161" y="1228" on="0"/>
        <pt x="367" y="1432" on="0"/>
        <pt x="649" y="1538" on="0"/>
        <pt x="816" y="1538" on="1"/>
        <pt x="894" y="1538" on="0"/>
        <pt x="1043" y="1524" on="0"/>
        <pt x="1174" y="1507" on="0"/>
        <pt x="1278" y="1493" on="0"/>
        <pt x="1310" y="1493" on="1"/>
        <pt x="1283" y="991" on="1"/>
        <pt x="1024" y="991" on="1"/>
        <pt x="946" y="1334" on="1"/>
        <pt x="939" y="1341" on="0"/>
        <pt x="917" y="1356" on="0"/>
        <pt x="883" y="1368" on="0"/>
        <pt x="833" y="1376" on="0"/>
        <pt x="799" y="1376" on="1"/>
        <pt x="733" y="1376" on="0"/>
        <pt x="627" y="1304" on="0"/>
        <pt x="553" y="1155" on="0"/>
        <pt x="513" y="927" on="0"/>
        <pt x="513" y="772" on="1"/>
        <pt x="513" y="629" on="0"/>
        <pt x="550" y="396" on="0"/>
        <pt x="623" y="231" on="0"/>
        <pt x="732" y="141" on="0"/>
        <pt x="805" y="141" on="1"/>
        <pt x="844" y="141" on="0"/>
        <pt x="899" y="151" on="0"/>
        <pt x="938" y="167" on="0"/>
        <pt x="963" y="188" on="0"/>
        <pt x="974" y="200" on="1"/>
        <pt x="1072" y="430" on="1"/>
        <pt x="1306" y="410" on="1"/>
        <pt x="1273" y="56" on="1"/>
      </contour>
    </TTGlyph>
    <TTGlyph name="Ccircumflex" xMin="46" yMin="-23" xMax="1310" yMax="2004">
      <component glyphName="C" x="0" y="0" flags="0x204"/>
      <component glyphName="circumflex.cap" x="271" y="0" flags="0x4"/>
    </TTGlyph>
    <TTGlyph name="Cdotaccent" xMin="46" yMin="-23" xMax="1310" yMax="2001">
      <component glyphName="dotaccent.cap" x="502" y="0" flags="0x4"/>
      <component glyphName="C" x="0" y="0" flags="0x4"/>
    </TTGlyph>
    <TTGlyph name="D" xMin="60" yMin="-20" xMax="1519" yMax="1533">
      <contour>
        <pt x="60" y="152" on="1"/>
        <pt x="209" y="176" on="1"/>
        <pt x="209" y="1330" on="1"/>
        <pt x="64" y="1360" on="1"/>
        <pt x="64" y="1522" on="1"/>
        <pt x="410" y="1522" on="1"/>
        <pt x="460" y="1522" on="0"/>
        <pt x="548" y="1525" on="0"/>
        <pt x="632" y="1530" on="0"/>
        <pt x="718" y="1533" on="0"/>
        <pt x="767" y="1533" on="1"/>
        <pt x="954" y="1533" on="0"/>
        <pt x="1236" y="1439" on="0"/>
        <pt x="1425" y="1258" on="0"/>
        <pt x="1519" y="991" on="0"/>
        <pt x="1519" y="817" on="1"/>
        <pt x="1519" y="638" on="0"/>
        <pt x="1414" y="330" on="0"/>
        <pt x="1214" y="105" on="0"/>
        <pt x="923" y="-20" on="0"/>
        <pt x="736" y="-16" on="1"/>
        <pt x="694" y="-15" on="0"/>
        <pt x="601" y="-10" on="0"/>
        <pt x="514" y="-4" on="0"/>
        <pt x="438" y="0" on="0"/>
        <pt x="414" y="0" on="1"/>
        <pt x="60" y="0" on="1"/>
      </contour>
      <contour>
        <pt x="618" y="171" on="1"/>
        <pt x="640" y="160" on="0"/>
        <pt x="706" y="150" on="0"/>
        <pt x="743" y="150" on="1"/>
        <pt x="819" y="150" on="0"/>
        <pt x="938" y="218" on="0"/>
        <pt x="1021" y="365" on="0"/>
        <pt x="1064" y="597" on="0"/>
        <pt x="1064" y="762" on="1"/>
        <pt x="1064" y="892" on="0"/>
        <pt x="1031" y="1116" on="0"/>
        <pt x="952" y="1281" on="0"/>
        <pt x="823" y="1376" on="0"/>
        <pt x="727" y="1376" on="1"/>
        <pt x="680" y="1376" on="0"/>
        <pt x="628" y="1361" on="0"/>
        <pt x="618" y="1359" on="1"/>
      </contour>
    </TTGlyph>
    <TTGlyph name="Dcaron" xMin="60" yMin="-20" xMax="1519" yMax="2014">
      <component glyphName="caron.cap" x="457" y="0" flags="0x4"/>
      <component glyphName="D" x="0" y="0" flags="0x4"/>
    </TTGlyph>
    <TTGlyph name="Dcroat" xMin="51" yMin="-20" xMax="1519" yMax="1533">
      <contour>
        <pt x="51" y="862" on="1"/>
        <pt x="209" y="862" on="1"/>
        <pt x="209" y="1330" on="1"/>
        <pt x="64" y="1360" on="1"/>
        <pt x="64" y="1522" on="1"/>
        <pt x="410" y="1522" on="1"/>
        <pt x="460" y="1522" on="0"/>
        <pt x="548" y="1525" on="0"/>
        <pt x="632" y="1530" on="0"/>
        <pt x="718" y="1533" on="0"/>
        <pt x="767" y="1533" on="1"/>
        <pt x="954" y="1533" on="0"/>
        <pt x="1236" y="1439" on="0"/>
        <pt x="1425" y="1258" on="0"/>
        <pt x="1519" y="991" on="0"/>
        <pt x="1519" y="817" on="1"/>
        <pt x="1519" y="638" on="0"/>
        <pt x="1414" y="330" on="0"/>
        <pt x="1214" y="105" on="0"/>
        <pt x="923" y="-20" on="0"/>
        <pt x="736" y="-16" on="1"/>
        <pt x="694" y="-15" on="0"/>
        <pt x="601" y="-10" on="0"/>
        <pt x="514" y="-4" on="0"/>
        <pt x="438" y="0" on="0"/>
        <pt x="414" y="0" on="1"/>
        <pt x="60" y="0" on="1"/>
        <pt x="60" y="152" on="1"/>
        <pt x="209" y="176" on="1"/>
        <pt x="209" y="699" on="1"/>
        <pt x="51" y="699" on="1"/>
      </contour>
      <contour>
        <pt x="618" y="862" on="1"/>
        <pt x="846" y="862" on="1"/>
        <pt x="846" y="699" on="1"/>
        <pt x="618" y="699" on="1"/>
        <pt x="618" y="171" on="1"/>
        <pt x="640" y="160" on="0"/>
        <pt x="706" y="150" on="0"/>
        <pt x="743" y="150" on="1"/>
        <pt x="819" y="150" on="0"/>
        <pt x="938" y="218" on="0"/>
        <pt x="1021" y="365" on="0"/>
        <pt x="1064" y="597" on="0"/>
        <pt x="1064" y="762" on="1"/>
        <pt x="1064" y="892" on="0"/>
        <pt x="1031" y="1116" on="0"/>
        <pt x="952" y="1281" on="0"/>
        <pt x="823" y="1376" on="0"/>
        <pt x="727" y="1376" on="1"/>
        <pt x="680" y="1376" on="0"/>
        <pt x="628" y="1361" on="0"/>
        <pt x="618" y="1359" on="1"/>
      </contour>
    </TTGlyph>
    <TTGlyph name="Delta" xMin="142" yMin="1" xMax="1627" yMax="1516">
      <contour>
        <pt x="142" y="40" on="1"/>
        <pt x="825" y="1516" on="1"/>
        <pt x="874" y="1516" on="1"/>
        <pt x="1627" y="41" on="1"/>
        <pt x="1605" y="1" on="1"/>
        <pt x="162" y="1" on="1"/>
      </contour>
      <contour>
        <pt x="1123" y="220" on="1"/>
        <pt x="765" y="953" on="1"/>
        <pt x="446" y="220" on="1"/>
      </contour>
    </TTGlyph>
    <TTGlyph name="Deltagreek" xMin="142" yMin="1" xMax="1627" yMax="1516">
      <component glyphName="Delta" x="0" y="0" flags="0x204"/>
    </TTGlyph>
    <TTGlyph name="E" xMin="54" yMin="0" xMax="1342" yMax="1522">
      <contour>
        <pt x="60" y="152" on="1"/>
        <pt x="209" y="175" on="1"/>
        <pt x="209" y="1329" on="1"/>
        <pt x="54" y="1360" on="1"/>
        <pt x="54" y="1522" on="1"/>
        <pt x="1210" y="1522" on="1"/>
        <pt x="1238" y="1138" on="1"/>
        <pt x="1053" y="1138" on="1"/>
        <pt x="976" y="1348" on="1"/>
        <pt x="625" y="1373" on="1"/>
        <pt x="625" y="863" on="1"/>
        <pt x="830" y="868" on="1"/>
        <pt x="869" y="1034" on="1"/>
        <pt x="1023" y="1034" on="1"/>
        <pt x="1023" y="500" on="1"/>
        <pt x="869" y="500" on="1"/>
        <pt x="832" y="679" on="1"/>
        <pt x="625" y="684" on="1"/>
        <pt x="625" y="156" on="1"/>
        <pt x="1009" y="187" on="1"/>
        <pt x="1141" y="454" on="1"/>
        <pt x="1342" y="399" on="1"/>
        <pt x="1298" y="0" on="1"/>
        <pt x="60" y="0" on="1"/>
      </contour>
    </TTGlyph>
    <TTGlyph name="Eacute" xMin="54" yMin="0" xMax="1342" yMax="2014">
      <component glyphName="acute.cap" x="166" y="0" flags="0x4"/>
      <component glyphName="E" x="0" y="0" flags="0x4"/>
    </TTGlyph>
    <TTGlyph name="Ebreve" xMin="54" yMin="0" xMax="1342" yMax="2009">
      <component glyphName="breve.cap" x="190" y="0" flags="0x4"/>
      <component glyphName="E" x="0" y="0" flags="0x4"/>
    </TTGlyph>
    <TTGlyph name="Ecaron" xMin="54" yMin="0" xMax="1342" yMax="2014">
      <component glyphName="caron.cap" x="369" y="0" flags="0x4"/>
      <component glyphName="E" x="0" y="0" flags="0x4"/>
    </TTGlyph>
    <TTGlyph name="Ecircumflex" xMin="54" yMin="0" xMax="1342" yMax="2004">
      <component glyphName="E" x="0" y="0" flags="0x204"/>
      <component glyphName="circumflex.cap" x="177" y="0" flags="0x4"/>
    </TTGlyph>
    <TTGlyph name="Edieresis" xMin="54" yMin="0" xMax="1342" yMax="2001">
      <component glyphName="dieresis.cap" x="190" y="0" flags="0x4"/>
      <component glyphName="E" x="0" y="0" flags="0x4"/>
    </TTGlyph>
    <TTGlyph name="Edotaccent" xMin="54" yMin="0" xMax="1342" yMax="2001">
      <component glyphName="dotaccent.cap" x="408" y="0" flags="0x4"/>
      <component glyphName="E" x="0" y="0" flags="0x4"/>
    </TTGlyph>
    <TTGlyph name="Egrave" xMin="54" yMin="0" xMax="1342" yMax="2014">
      <component glyphName="grave.cap" x="164" y="0" flags="0x4"/>
      <component glyphName="E" x="0" y="0" flags="0x4"/>
    </TTGlyph>
    <TTGlyph name="Emacron" xMin="54" yMin="0" xMax="1342" yMax="1918">
      <component glyphName="macron.cap" x="360" y="0" flags="0x4"/>
      <component glyphName="E" x="0" y="0" flags="0x4"/>
    </TTGlyph>
    <TTGlyph name="Eng" xMin="46" yMin="-424" xMax="1654" yMax="1522">
      <contour>
        <pt x="46" y="150" on="1"/>
        <pt x="228" y="175" on="1"/>
        <pt x="228" y="1350" on="1"/>
        <pt x="46" y="1386" on="1"/>
        <pt x="46" y="1522" on="1"/>
        <pt x="627" y="1522" on="1"/>
        <pt x="1135" y="711" on="1"/>
        <pt x="1263" y="444" on="1"/>
        <pt x="1263" y="1331" on="1"/>
        <pt x="1079" y="1362" on="1"/>
        <pt x="1079" y="1522" on="1"/>
        <pt x="1654" y="1522" on="1"/>
        <pt x="1654" y="1362" on="1"/>
        <pt x="1482" y="1331" on="1"/>
        <pt x="1482" y="430" on="1"/>
        <pt x="1482" y="322" on="0"/>
        <pt x="1460" y="155" on="0"/>
        <pt x="1424" y="27" on="0"/>
        <pt x="1378" y="-68" on="0"/>
        <pt x="1330" y="-140" on="0"/>
        <pt x="1282" y="-194" on="0"/>
        <pt x="1263" y="-217" on="1"/>
        <pt x="1220" y="-265" on="0"/>
        <pt x="1125" y="-336" on="0"/>
        <pt x="1028" y="-387" on="0"/>
        <pt x="931" y="-417" on="0"/>
        <pt x="886" y="-424" on="1"/>
        <pt x="812" y="-304" on="1"/>
        <pt x="905" y="-274" on="0"/>
        <pt x="1034" y="-164" on="0"/>
        <pt x="1079" y="-91" on="1"/>
        <pt x="1090" y="-74" on="0"/>
        <pt x="1110" y="-33" on="0"/>
        <pt x="1120" y="-10" on="1"/>
        <pt x="539" y="932" on="1"/>
        <pt x="448" y="1129" on="1"/>
        <pt x="448" y="175" on="1"/>
        <pt x="647" y="150" on="1"/>
        <pt x="647" y="0" on="1"/>
        <pt x="46" y="0" on="1"/>
      </contour>
    </TTGlyph>
    <TTGlyph name="Eogonek" xMin="54" yMin="-515" xMax="1342" yMax="1522">
      <contour>
        <pt x="60" y="152" on="1"/>
        <pt x="209" y="175" on="1"/>
        <pt x="209" y="1329" on="1"/>
        <pt x="54" y="1360" on="1"/>
        <pt x="54" y="1522" on="1"/>
        <pt x="1210" y="1522" on="1"/>
        <pt x="1238" y="1138" on="1"/>
        <pt x="1053" y="1138" on="1"/>
        <pt x="976" y="1348" on="1"/>
        <pt x="625" y="1373" on="1"/>
        <pt x="625" y="863" on="1"/>
        <pt x="830" y="868" on="1"/>
        <pt x="869" y="1034" on="1"/>
        <pt x="1023" y="1034" on="1"/>
        <pt x="1023" y="500" on="1"/>
        <pt x="869" y="500" on="1"/>
        <pt x="832" y="679" on="1"/>
        <pt x="625" y="684" on="1"/>
        <pt x="625" y="156" on="1"/>
        <pt x="1009" y="187" on="1"/>
        <pt x="1141" y="454" on="1"/>
        <pt x="1342" y="399" on="1"/>
        <pt x="1298" y="0" on="1"/>
        <pt x="1284" y="0" on="1"/>
        <pt x="1233" y="-13" on="0"/>
        <pt x="1146" y="-62" on="0"/>
        <pt x="1083" y="-120" on="0"/>
        <pt x="1047" y="-181" on="0"/>
        <pt x="1047" y="-205" on="1"/>
        <pt x="1047" y="-250" on="0"/>
        <pt x="1108" y="-307" on="0"/>
        <pt x="1170" y="-307" on="1"/>
        <pt x="1188" y="-307" on="0"/>
        <pt x="1213" y="-305" on="0"/>
        <pt x="1237" y="-300" on="0"/>
        <pt x="1262" y="-292" on="0"/>
        <pt x="1279" y="-285" on="1"/>
        <pt x="1279" y="-448" on="1"/>
        <pt x="1258" y="-464" on="0"/>
        <pt x="1195" y="-489" on="0"/>
        <pt x="1125" y="-506" on="0"/>
        <pt x="1052" y="-515" on="0"/>
        <pt x="1021" y="-515" on="1"/>
        <pt x="953" y="-515" on="0"/>
        <pt x="848" y="-484" on="0"/>
        <pt x="776" y="-429" on="0"/>
        <pt x="739" y="-352" on="0"/>
        <pt x="739" y="-305" on="1"/>
        <pt x="739" y="-212" on="0"/>
        <pt x="888" y="-51" on="0"/>
        <pt x="1040" y="0" on="1"/>
        <pt x="60" y="0" on="1"/>
      </contour>
    </TTGlyph>
    <TTGlyph name="Eth" xMin="60" yMin="-20" xMax="1519" yMax="1533">
      <contour>
        <pt x="73" y="864" on="1"/>
        <pt x="209" y="864" on="1"/>
        <pt x="209" y="1330" on="1"/>
        <pt x="64" y="1360" on="1"/>
        <pt x="64" y="1522" on="1"/>
        <pt x="410" y="1522" on="1"/>
        <pt x="460" y="1522" on="0"/>
        <pt x="548" y="1525" on="0"/>
        <pt x="632" y="1530" on="0"/>
        <pt x="718" y="1533" on="0"/>
        <pt x="767" y="1533" on="1"/>
        <pt x="954" y="1533" on="0"/>
        <pt x="1236" y="1439" on="0"/>
        <pt x="1425" y="1258" on="0"/>
        <pt x="1519" y="991" on="0"/>
        <pt x="1519" y="817" on="1"/>
        <pt x="1519" y="638" on="0"/>
        <pt x="1414" y="330" on="0"/>
        <pt x="1214" y="105" on="0"/>
        <pt x="923" y="-20" on="0"/>
        <pt x="736" y="-16" on="1"/>
        <pt x="694" y="-15" on="0"/>
        <pt x="601" y="-10" on="0"/>
        <pt x="514" y="-4" on="0"/>
        <pt x="438" y="0" on="0"/>
        <pt x="414" y="0" on="1"/>
        <pt x="60" y="0" on="1"/>
        <pt x="60" y="152" on="1"/>
        <pt x="209" y="176" on="1"/>
        <pt x="209" y="706" on="1"/>
        <pt x="73" y="706" on="1"/>
      </contour>
      <contour>
        <pt x="618" y="864" on="1"/>
        <pt x="868" y="864" on="1"/>
        <pt x="868" y="706" on="1"/>
        <pt x="618" y="706" on="1"/>
        <pt x="618" y="171" on="1"/>
        <pt x="640" y="160" on="0"/>
        <pt x="706" y="150" on="0"/>
        <pt x="743" y="150" on="1"/>
        <pt x="819" y="150" on="0"/>
        <pt x="938" y="218" on="0"/>
        <pt x="1021" y="365" on="0"/>
        <pt x="1064" y="597" on="0"/>
        <pt x="1064" y="762" on="1"/>
        <pt x="1064" y="892" on="0"/>
        <pt x="1031" y="1116" on="0"/>
        <pt x="952" y="1281" on="0"/>
        <pt x="823" y="1376" on="0"/>
        <pt x="727" y="1376" on="1"/>
        <pt x="680" y="1376" on="0"/>
        <pt x="628" y="1361" on="0"/>
        <pt x="618" y="1359" on="1"/>
      </contour>
    </TTGlyph>
    <TTGlyph name="Euro" xMin="58" yMin="-28" xMax="1439" yMax="1543">
      <contour>
        <pt x="58" y="680" on="1"/>
        <pt x="220" y="680" on="1"/>
        <pt x="219" y="693" on="0"/>
        <pt x="219" y="719" on="0"/>
        <pt x="219" y="733" on="1"/>
        <pt x="219" y="769" on="0"/>
        <pt x="222" y="839" on="0"/>
        <pt x="226" y="873" on="1"/>
        <pt x="72" y="873" on="1"/>
        <pt x="72" y="1026" on="1"/>
        <pt x="255" y="1026" on="1"/>
        <pt x="289" y="1151" on="0"/>
        <pt x="415" y="1344" on="0"/>
        <pt x="594" y="1475" on="0"/>
        <pt x="820" y="1543" on="0"/>
        <pt x="954" y="1543" on="1"/>
        <pt x="1056" y="1543" on="0"/>
        <pt x="1206" y="1515" on="0"/>
        <pt x="1319" y="1481" on="0"/>
        <pt x="1403" y="1453" on="0"/>
        <pt x="1439" y="1452" on="1"/>
        <pt x="1411" y="1036" on="1"/>
        <pt x="1195" y="1036" on="1"/>
        <pt x="1129" y="1325" on="1"/>
        <pt x="1118" y="1341" on="0"/>
        <pt x="1078" y="1363" on="0"/>
        <pt x="1030" y="1377" on="0"/>
        <pt x="978" y="1382" on="0"/>
        <pt x="955" y="1382" on="1"/>
        <pt x="896" y="1382" on="0"/>
        <pt x="805" y="1342" on="0"/>
        <pt x="739" y="1255" on="0"/>
        <pt x="696" y="1120" on="0"/>
        <pt x="685" y="1026" on="1"/>
        <pt x="1059" y="1026" on="1"/>
        <pt x="1059" y="873" on="1"/>
        <pt x="675" y="873" on="1"/>
        <pt x="674" y="853" on="0"/>
        <pt x="674" y="812" on="0"/>
        <pt x="674" y="791" on="1"/>
        <pt x="674" y="762" on="0"/>
        <pt x="674" y="706" on="0"/>
        <pt x="676" y="680" on="1"/>
        <pt x="1035" y="680" on="1"/>
        <pt x="1035" y="527" on="1"/>
        <pt x="688" y="527" on="1"/>
        <pt x="701" y="414" on="0"/>
        <pt x="753" y="259" on="0"/>
        <pt x="824" y="164" on="0"/>
        <pt x="913" y="122" on="0"/>
        <pt x="963" y="122" on="1"/>
        <pt x="1022" y="122" on="0"/>
        <pt x="1107" y="151" on="0"/>
        <pt x="1138" y="190" on="1"/>
        <pt x="1244" y="433" on="1"/>
        <pt x="1429" y="404" on="1"/>
        <pt x="1410" y="57" on="1"/>
        <pt x="1377" y="55" on="0"/>
        <pt x="1285" y="29" on="0"/>
        <pt x="1161" y="-3" on="0"/>
        <pt x="1003" y="-28" on="0"/>
        <pt x="905" y="-28" on="1"/>
        <pt x="774" y="-28" on="0"/>
        <pt x="553" y="48" on="0"/>
        <pt x="381" y="190" on="0"/>
        <pt x="264" y="396" on="0"/>
        <pt x="238" y="527" on="1"/>
        <pt x="58" y="527" on="1"/>
      </contour>
    </TTGlyph>
    <TTGlyph name="F" xMin="52" yMin="0" xMax="1254" yMax="1522">
      <contour>
        <pt x="59" y="152" on="1"/>
        <pt x="209" y="176" on="1"/>
        <pt x="209" y="1330" on="1"/>
        <pt x="52" y="1360" on="1"/>
        <pt x="52" y="1522" on="1"/>
        <pt x="1230" y="1522" on="1"/>
        <pt x="1254" y="1122" on="1"/>
        <pt x="1044" y="1122" on="1"/>
        <pt x="952" y="1341" on="1"/>
        <pt x="625" y="1373" on="1"/>
        <pt x="625" y="820" on="1"/>
        <pt x="841" y="825" on="1"/>
        <pt x="885" y="1015" on="1"/>
        <pt x="1047" y="1015" on="1"/>
        <pt x="1047" y="436" on="1"/>
        <pt x="887" y="436" on="1"/>
        <pt x="841" y="631" on="1"/>
        <pt x="625" y="639" on="1"/>
        <pt x="625" y="176" on="1"/>
        <pt x="934" y="152" on="1"/>
        <pt x="934" y="0" on="1"/>
        <pt x="59" y="0" on="1"/>
      </contour>
    </TTGlyph>
    <TTGlyph name="G" xMin="48" yMin="-23" xMax="1497" yMax="1543">
      <contour>
        <pt x="780" y="-23" on="1"/>
        <pt x="600" y="-23" on="0"/>
        <pt x="327" y="97" on="0"/>
        <pt x="142" y="305" on="0"/>
        <pt x="48" y="588" on="0"/>
        <pt x="48" y="752" on="1"/>
        <pt x="48" y="944" on="0"/>
        <pt x="155" y="1240" on="0"/>
        <pt x="360" y="1440" on="0"/>
        <pt x="660" y="1543" on="0"/>
        <pt x="853" y="1543" on="1"/>
        <pt x="935" y="1543" on="0"/>
        <pt x="1103" y="1528" on="0"/>
        <pt x="1250" y="1507" on="0"/>
        <pt x="1363" y="1485" on="0"/>
        <pt x="1390" y="1479" on="1"/>
        <pt x="1363" y="1062" on="1"/>
        <pt x="1068" y="1062" on="1"/>
        <pt x="1005" y="1346" on="1"/>
        <pt x="1000" y="1352" on="0"/>
        <pt x="978" y="1368" on="0"/>
        <pt x="940" y="1382" on="0"/>
        <pt x="886" y="1391" on="0"/>
        <pt x="849" y="1391" on="1"/>
        <pt x="688" y="1391" on="0"/>
        <pt x="531" y="1074" on="0"/>
        <pt x="531" y="772" on="1"/>
        <pt x="531" y="626" on="0"/>
        <pt x="561" y="390" on="0"/>
        <pt x="628" y="224" on="0"/>
        <pt x="738" y="135" on="0"/>
        <pt x="819" y="135" on="1"/>
        <pt x="881" y="135" on="0"/>
        <pt x="975" y="169" on="0"/>
        <pt x="997" y="194" on="1"/>
        <pt x="997" y="608" on="1"/>
        <pt x="839" y="630" on="1"/>
        <pt x="839" y="793" on="1"/>
        <pt x="1497" y="793" on="1"/>
        <pt x="1497" y="630" on="1"/>
        <pt x="1403" y="614" on="1"/>
        <pt x="1403" y="82" on="1"/>
        <pt x="1362" y="80" on="0"/>
        <pt x="1235" y="47" on="0"/>
        <pt x="1074" y="8" on="0"/>
        <pt x="884" y="-23" on="0"/>
      </contour>
    </TTGlyph>
    <TTGlyph name="Gbreve" xMin="46" yMin="-23" xMax="1495" yMax="2009">
      <component glyphName="breve.cap" x="311" y="0" flags="0x4"/>
      <component glyphName="G" x="-2" y="0" flags="0x4"/>
    </TTGlyph>
    <TTGlyph name="Gcaron" xMin="48" yMin="-23" xMax="1497" yMax="2014">
      <component glyphName="G" x="0" y="0" flags="0x204"/>
      <component glyphName="caron.cap" x="538" y="0" flags="0x4"/>
    </TTGlyph>
    <TTGlyph name="Gcircumflex" xMin="46" yMin="-23" xMax="1495" yMax="2004">
      <component glyphName="G" x="-2" y="0" flags="0x4"/>
      <component glyphName="circumflex.cap" x="301" y="0" flags="0x4"/>
    </TTGlyph>
    <TTGlyph name="Gcommaaccent" xMin="46" yMin="-560" xMax="1495" yMax="1543">
      <component glyphName="commaaccent" x="463" y="0" flags="0x4"/>
      <component glyphName="G" x="-2" y="0" flags="0x4"/>
    </TTGlyph>
    <TTGlyph name="Gdotaccent" xMin="46" yMin="-23" xMax="1495" yMax="2001">
      <component glyphName="dotaccent.cap" x="534" y="0" flags="0x4"/>
      <component glyphName="G" x="-2" y="0" flags="0x4"/>
    </TTGlyph>
    <TTGlyph name="Gtilde" xMin="48" yMin="-23" xMax="1497" yMax="2008">
      <component glyphName="G" x="0" y="0" flags="0x204"/>
      <component glyphName="tilde.cap" x="359" y="0" flags="0x4"/>
    </TTGlyph>
    <TTGlyph name="H" xMin="68" yMin="0" xMax="1666" yMax="1522">
      <contour>
        <pt x="68" y="152" on="1"/>
        <pt x="209" y="175" on="1"/>
        <pt x="209" y="1331" on="1"/>
        <pt x="70" y="1360" on="1"/>
        <pt x="70" y="1522" on="1"/>
        <pt x="786" y="1522" on="1"/>
        <pt x="786" y="1360" on="1"/>
        <pt x="623" y="1331" on="1"/>
        <pt x="623" y="870" on="1"/>
        <pt x="1106" y="870" on="1"/>
        <pt x="1106" y="1330" on="1"/>
        <pt x="956" y="1360" on="1"/>
        <pt x="956" y="1522" on="1"/>
        <pt x="1666" y="1522" on="1"/>
        <pt x="1666" y="1360" on="1"/>
        <pt x="1520" y="1331" on="1"/>
        <pt x="1520" y="175" on="1"/>
        <pt x="1666" y="152" on="1"/>
        <pt x="1666" y="0" on="1"/>
        <pt x="957" y="0" on="1"/>
        <pt x="957" y="152" on="1"/>
        <pt x="1106" y="176" on="1"/>
        <pt x="1106" y="674" on="1"/>
        <pt x="623" y="674" on="1"/>
        <pt x="623" y="175" on="1"/>
        <pt x="786" y="152" on="1"/>
        <pt x="786" y="0" on="1"/>
        <pt x="68" y="0" on="1"/>
      </contour>
    </TTGlyph>
    <TTGlyph name="Hbar" xMin="55" yMin="0" xMax="1704" yMax="1522">
      <contour>
        <pt x="56" y="1135" on="1"/>
        <pt x="209" y="1135" on="1"/>
        <pt x="209" y="1330" on="1"/>
        <pt x="55" y="1360" on="1"/>
        <pt x="55" y="1522" on="1"/>
        <pt x="787" y="1522" on="1"/>
        <pt x="787" y="1360" on="1"/>
        <pt x="624" y="1330" on="1"/>
        <pt x="624" y="1135" on="1"/>
        <pt x="1104" y="1135" on="1"/>
        <pt x="1104" y="1330" on="1"/>
        <pt x="954" y="1360" on="1"/>
        <pt x="954" y="1522" on="1"/>
        <pt x="1675" y="1522" on="1"/>
        <pt x="1675" y="1360" on="1"/>
        <pt x="1520" y="1331" on="1"/>
        <pt x="1520" y="1135" on="1"/>
        <pt x="1704" y="1135" on="1"/>
        <pt x="1704" y="989" on="1"/>
        <pt x="1520" y="989" on="1"/>
        <pt x="1520" y="175" on="1"/>
        <pt x="1673" y="152" on="1"/>
        <pt x="1673" y="0" on="1"/>
        <pt x="955" y="0" on="1"/>
        <pt x="955" y="152" on="1"/>
        <pt x="1104" y="176" on="1"/>
        <pt x="1104" y="572" on="1"/>
        <pt x="624" y="572" on="1"/>
        <pt x="624" y="176" on="1"/>
        <pt x="787" y="152" on="1"/>
        <pt x="787" y="0" on="1"/>
        <pt x="57" y="0" on="1"/>
        <pt x="57" y="152" on="1"/>
        <pt x="209" y="175" on="1"/>
        <pt x="209" y="989" on="1"/>
        <pt x="56" y="989" on="1"/>
      </contour>
      <contour>
        <pt x="1104" y="767" on="1"/>
        <pt x="1104" y="989" on="1"/>
        <pt x="624" y="989" on="1"/>
        <pt x="624" y="767" on="1"/>
      </contour>
    </TTGlyph>
    <TTGlyph name="Hcircumflex" xMin="68" yMin="0" xMax="1666" yMax="2004">
      <component glyphName="H" x="0" y="0" flags="0x204"/>
      <component glyphName="circumflex.cap" x="344" y="0" flags="0x4"/>
    </TTGlyph>
    <TTGlyph name="I" xMin="71" yMin="0" xMax="805" yMax="1522">
      <contour>
        <pt x="74" y="152" on="1"/>
        <pt x="227" y="176" on="1"/>
        <pt x="227" y="1330" on="1"/>
        <pt x="71" y="1360" on="1"/>
        <pt x="71" y="1522" on="1"/>
        <pt x="805" y="1522" on="1"/>
        <pt x="805" y="1360" on="1"/>
        <pt x="643" y="1330" on="1"/>
        <pt x="643" y="175" on="1"/>
        <pt x="805" y="150" on="1"/>
        <pt x="805" y="0" on="1"/>
        <pt x="74" y="0" on="1"/>
      </contour>
    </TTGlyph>
    <TTGlyph name="I.uc" xMin="71" yMin="0" xMax="805" yMax="2001">
      <component glyphName="I" x="0" y="0" flags="0x204"/>
      <component glyphName="dotaccent.cap" x="140" y="0" flags="0x4"/>
    </TTGlyph>
    <TTGlyph name="IJ" xMin="71" yMin="-411" xMax="1670" yMax="1522">
      <component glyphName="I" x="0" y="0" flags="0x4"/>
      <component glyphName="J" x="870" y="0" flags="0x4"/>
    </TTGlyph>
    <TTGlyph name="IJ_acutecomb" xMin="71" yMin="-411" xMax="1670" yMax="2014">
      <component glyphName="I" x="0" y="0" flags="0x4"/>
      <component glyphName="acute.cap" x="755" y="0" flags="0x4"/>
      <component glyphName="J" x="870" y="0" flags="0x4"/>
      <component glyphName="acute.cap" x="-79" y="0" flags="0x4"/>
    </TTGlyph>
    <TTGlyph name="Iacute" xMin="71" yMin="0" xMax="811" yMax="2014">
      <component glyphName="I" x="0" y="0" flags="0x204"/>
      <component glyphName="acute.cap" x="-77" y="0" flags="0x4"/>
    </TTGlyph>
    <TTGlyph name="Ibreve" xMin="30" yMin="0" xMax="838" yMax="2009">
      <component glyphName="I" x="0" y="0" flags="0x204"/>
      <component glyphName="breve.cap" x="-79" y="0" flags="0x4"/>
    </TTGlyph>
    <TTGlyph name="Icircumflex" xMin="-1" yMin="0" xMax="856" yMax="2004">
      <component glyphName="I" x="0" y="0" flags="0x204"/>
      <component glyphName="circumflex.cap" x="-93" y="0" flags="0x4"/>
    </TTGlyph>
    <TTGlyph name="Idieresis" xMin="-33" yMin="0" xMax="896" yMax="2001">
      <component glyphName="I" x="0" y="0" flags="0x204"/>
      <component glyphName="dieresis.cap" x="-79" y="0" flags="0x4"/>
    </TTGlyph>
    <TTGlyph name="Idotaccent" xMin="71" yMin="0" xMax="805" yMax="2001">
      <component glyphName="I" x="0" y="0" flags="0x204"/>
      <component glyphName="dotaccent.cap" x="140" y="0" flags="0x4"/>
    </TTGlyph>
    <TTGlyph name="Igrave" xMin="52" yMin="0" xMax="805" yMax="2014">
      <component glyphName="I" x="0" y="0" flags="0x204"/>
      <component glyphName="grave.cap" x="-89" y="0" flags="0x4"/>
    </TTGlyph>
    <TTGlyph name="Imacron" xMin="71" yMin="0" xMax="805" yMax="1918">
      <component glyphName="I" x="0" y="0" flags="0x204"/>
      <component glyphName="macron.cap" x="90" y="0" flags="0x4"/>
    </TTGlyph>
    <TTGlyph name="Iogonek" xMin="71" yMin="-515" xMax="805" yMax="1522">
      <contour>
        <pt x="74" y="152" on="1"/>
        <pt x="227" y="176" on="1"/>
        <pt x="227" y="1330" on="1"/>
        <pt x="71" y="1360" on="1"/>
        <pt x="71" y="1522" on="1"/>
        <pt x="805" y="1522" on="1"/>
        <pt x="805" y="1360" on="1"/>
        <pt x="643" y="1330" on="1"/>
        <pt x="643" y="175" on="1"/>
        <pt x="805" y="150" on="1"/>
        <pt x="805" y="0" on="1"/>
        <pt x="644" y="0" on="1"/>
        <pt x="596" y="-17" on="0"/>
        <pt x="519" y="-68" on="0"/>
        <pt x="465" y="-124" on="0"/>
        <pt x="437" y="-181" on="0"/>
        <pt x="437" y="-205" on="1"/>
        <pt x="437" y="-250" on="0"/>
        <pt x="507" y="-307" on="0"/>
        <pt x="582" y="-307" on="1"/>
        <pt x="600" y="-307" on="0"/>
        <pt x="625" y="-305" on="0"/>
        <pt x="649" y="-300" on="0"/>
        <pt x="674" y="-292" on="0"/>
        <pt x="691" y="-285" on="1"/>
        <pt x="691" y="-448" on="1"/>
        <pt x="669" y="-464" on="0"/>
        <pt x="604" y="-489" on="0"/>
        <pt x="531" y="-506" on="0"/>
        <pt x="456" y="-515" on="0"/>
        <pt x="425" y="-515" on="1"/>
        <pt x="357" y="-515" on="0"/>
        <pt x="248" y="-484" on="0"/>
        <pt x="171" y="-429" on="0"/>
        <pt x="129" y="-352" on="0"/>
        <pt x="129" y="-305" on="1"/>
        <pt x="129" y="-259" on="0"/>
        <pt x="172" y="-171" on="0"/>
        <pt x="249" y="-92" on="0"/>
        <pt x="357" y="-25" on="0"/>
        <pt x="422" y="0" on="1"/>
        <pt x="74" y="0" on="1"/>
      </contour>
    </TTGlyph>
    <TTGlyph name="Itilde" xMin="-59" yMin="0" xMax="920" yMax="2008">
      <component glyphName="I" x="0" y="0" flags="0x204"/>
      <component glyphName="tilde.cap" x="-79" y="0" flags="0x4"/>
    </TTGlyph>
    <TTGlyph name="J" xMin="-49" yMin="-411" xMax="800" yMax="1522">
      <contour>
        <pt x="-49" y="-277" on="1"/>
        <pt x="-17" y="-265" on="0"/>
        <pt x="53" y="-220" on="0"/>
        <pt x="119" y="-154" on="0"/>
        <pt x="175" y="-66" on="0"/>
        <pt x="195" y="-10" on="1"/>
        <pt x="204" y="16" on="0"/>
        <pt x="219" y="82" on="0"/>
        <pt x="231" y="168" on="0"/>
        <pt x="237" y="277" on="0"/>
        <pt x="237" y="347" on="1"/>
        <pt x="237" y="1330" on="1"/>
        <pt x="73" y="1360" on="1"/>
        <pt x="73" y="1522" on="1"/>
        <pt x="800" y="1522" on="1"/>
        <pt x="800" y="1360" on="1"/>
        <pt x="649" y="1331" on="1"/>
        <pt x="649" y="563" on="1"/>
        <pt x="649" y="361" on="0"/>
        <pt x="634" y="88" on="0"/>
        <pt x="616" y="25" on="1"/>
        <pt x="591" y="-55" on="0"/>
        <pt x="498" y="-196" on="0"/>
        <pt x="356" y="-310" on="0"/>
        <pt x="164" y="-392" on="0"/>
        <pt x="40" y="-411" on="1"/>
      </contour>
    </TTGlyph>
    <TTGlyph name="Jcircumflex" xMin="-49" yMin="-411" xMax="867" yMax="2004">
      <component glyphName="J" x="0" y="0" flags="0x4"/>
      <component glyphName="circumflex.cap" x="-82" y="0" flags="0x4"/>
    </TTGlyph>
    <TTGlyph name="K" xMin="57" yMin="0" xMax="1599" yMax="1522">
      <contour>
        <pt x="1126" y="0" on="1"/>
        <pt x="1108" y="0" on="0"/>
        <pt x="1060" y="71" on="0"/>
        <pt x="1002" y="187" on="0"/>
        <pt x="937" y="332" on="0"/>
        <pt x="869" y="480" on="0"/>
        <pt x="799" y="617" on="0"/>
        <pt x="765" y="667" on="1"/>
        <pt x="623" y="497" on="1"/>
        <pt x="623" y="175" on="1"/>
        <pt x="785" y="151" on="1"/>
        <pt x="785" y="0" on="1"/>
        <pt x="57" y="0" on="1"/>
        <pt x="57" y="152" on="1"/>
        <pt x="209" y="176" on="1"/>
        <pt x="209" y="1330" on="1"/>
        <pt x="57" y="1360" on="1"/>
        <pt x="57" y="1522" on="1"/>
        <pt x="763" y="1522" on="1"/>
        <pt x="763" y="1360" on="1"/>
        <pt x="623" y="1329" on="1"/>
        <pt x="623" y="730" on="1"/>
        <pt x="1072" y="1330" on="1"/>
        <pt x="908" y="1360" on="1"/>
        <pt x="907" y="1522" on="1"/>
        <pt x="1529" y="1522" on="1"/>
        <pt x="1529" y="1361" on="1"/>
        <pt x="1339" y="1331" on="1"/>
        <pt x="1008" y="953" on="1"/>
        <pt x="1054" y="910" on="0"/>
        <pt x="1153" y="769" on="0"/>
        <pt x="1250" y="605" on="0"/>
        <pt x="1341" y="436" on="0"/>
        <pt x="1420" y="292" on="0"/>
        <pt x="1483" y="189" on="0"/>
        <pt x="1502" y="175" on="1"/>
        <pt x="1599" y="152" on="1"/>
        <pt x="1599" y="0" on="1"/>
      </contour>
    </TTGlyph>
    <TTGlyph name="Kcommaaccent" xMin="57" yMin="-560" xMax="1599" yMax="1522">
      <component glyphName="commaaccent" x="463" y="0" flags="0x4"/>
      <component glyphName="K" x="0" y="0" flags="0x4"/>
    </TTGlyph>
    <TTGlyph name="L" xMin="60" yMin="0" xMax="1304" yMax="1522">
      <contour>
        <pt x="60" y="152" on="1"/>
        <pt x="209" y="175" on="1"/>
        <pt x="209" y="1330" on="1"/>
        <pt x="61" y="1360" on="1"/>
        <pt x="61" y="1522" on="1"/>
        <pt x="815" y="1522" on="1"/>
        <pt x="815" y="1360" on="1"/>
        <pt x="625" y="1330" on="1"/>
        <pt x="625" y="179" on="1"/>
        <pt x="939" y="201" on="1"/>
        <pt x="1079" y="636" on="1"/>
        <pt x="1304" y="608" on="1"/>
        <pt x="1251" y="0" on="1"/>
        <pt x="60" y="0" on="1"/>
      </contour>
    </TTGlyph>
    <TTGlyph name="Lacute" xMin="60" yMin="0" xMax="1304" yMax="2014">
      <component glyphName="acute.cap" x="-85" y="0" flags="0x4"/>
      <component glyphName="L" x="0" y="0" flags="0x4"/>
    </TTGlyph>
    <TTGlyph name="Lcaron" xMin="60" yMin="0" xMax="1304" yMax="1700">
      <component glyphName="L" x="0" y="0" flags="0x204"/>
      <component glyphName="caronvertical" x="831" y="0" flags="0x4"/>
    </TTGlyph>
    <TTGlyph name="Lcommaaccent" xMin="60" yMin="-560" xMax="1304" yMax="1522">
      <component glyphName="commaaccent" x="366" y="0" flags="0x4"/>
      <component glyphName="L" x="0" y="0" flags="0x4"/>
    </TTGlyph>
    <TTGlyph name="Ldot" xMin="60" yMin="0" xMax="1344" yMax="1522">
      <component glyphName="L" x="0" y="0" flags="0x4"/>
      <component glyphName="period" x="786" y="746" flags="0x4"/>
    </TTGlyph>
    <TTGlyph name="Lslash" xMin="44" yMin="0" xMax="1304" yMax="1522">
      <contour>
        <pt x="44" y="675" on="1"/>
        <pt x="209" y="740" on="1"/>
        <pt x="209" y="1330" on="1"/>
        <pt x="61" y="1360" on="1"/>
        <pt x="61" y="1522" on="1"/>
        <pt x="815" y="1522" on="1"/>
        <pt x="815" y="1360" on="1"/>
        <pt x="625" y="1330" on="1"/>
        <pt x="625" y="900" on="1"/>
        <pt x="945" y="1028" on="1"/>
        <pt x="945" y="857" on="1"/>
        <pt x="625" y="732" on="1"/>
        <pt x="625" y="179" on="1"/>
        <pt x="939" y="201" on="1"/>
        <pt x="1079" y="636" on="1"/>
        <pt x="1304" y="608" on="1"/>
        <pt x="1251" y="0" on="1"/>
        <pt x="60" y="0" on="1"/>
        <pt x="60" y="152" on="1"/>
        <pt x="209" y="175" on="1"/>
        <pt x="209" y="575" on="1"/>
        <pt x="44" y="513" on="1"/>
      </contour>
    </TTGlyph>
    <TTGlyph name="M" xMin="-3" yMin="0" xMax="2181" yMax="1522">
      <contour>
        <pt x="-3" y="152" on="1"/>
        <pt x="165" y="175" on="1"/>
        <pt x="299" y="1330" on="1"/>
        <pt x="104" y="1360" on="1"/>
        <pt x="104" y="1522" on="1"/>
        <pt x="855" y="1522" on="1"/>
        <pt x="1066" y="700" on="1"/>
        <pt x="1101" y="491" on="1"/>
        <pt x="1132" y="700" on="1"/>
        <pt x="1300" y="1522" on="1"/>
        <pt x="2064" y="1522" on="1"/>
        <pt x="2064" y="1360" on="1"/>
        <pt x="1845" y="1330" on="1"/>
        <pt x="2020" y="176" on="1"/>
        <pt x="2181" y="152" on="1"/>
        <pt x="2181" y="0" on="1"/>
        <pt x="1424" y="0" on="1"/>
        <pt x="1424" y="152" on="1"/>
        <pt x="1591" y="176" on="1"/>
        <pt x="1503" y="1040" on="1"/>
        <pt x="1464" y="1385" on="1"/>
        <pt x="1407" y="1079" on="1"/>
        <pt x="1183" y="53" on="1"/>
        <pt x="844" y="53" on="1"/>
        <pt x="555" y="1043" on="1"/>
        <pt x="481" y="1387" on="1"/>
        <pt x="461" y="1041" on="1"/>
        <pt x="405" y="176" on="1"/>
        <pt x="616" y="152" on="1"/>
        <pt x="616" y="0" on="1"/>
        <pt x="-3" y="0" on="1"/>
      </contour>
    </TTGlyph>
    <TTGlyph name="N" xMin="55" yMin="0" xMax="1631" yMax="1522">
      <contour>
        <pt x="55" y="152" on="1"/>
        <pt x="215" y="175" on="1"/>
        <pt x="215" y="1331" on="1"/>
        <pt x="55" y="1360" on="1"/>
        <pt x="55" y="1522" on="1"/>
        <pt x="634" y="1522" on="1"/>
        <pt x="1144" y="712" on="1"/>
        <pt x="1260" y="452" on="1"/>
        <pt x="1260" y="1331" on="1"/>
        <pt x="1087" y="1360" on="1"/>
        <pt x="1087" y="1522" on="1"/>
        <pt x="1631" y="1522" on="1"/>
        <pt x="1631" y="1360" on="1"/>
        <pt x="1480" y="1331" on="1"/>
        <pt x="1480" y="0" on="1"/>
        <pt x="1111" y="0" on="1"/>
        <pt x="558" y="893" on="1"/>
        <pt x="435" y="1163" on="1"/>
        <pt x="435" y="176" on="1"/>
        <pt x="662" y="152" on="1"/>
        <pt x="662" y="0" on="1"/>
        <pt x="55" y="0" on="1"/>
      </contour>
    </TTGlyph>
    <TTGlyph name="Nacute" xMin="55" yMin="0" xMax="1631" yMax="2014">
      <component glyphName="acute.cap" x="335" y="0" flags="0x4"/>
      <component glyphName="N" x="0" y="0" flags="0x4"/>
    </TTGlyph>
    <TTGlyph name="Ncaron" xMin="55" yMin="0" xMax="1631" yMax="2014">
      <component glyphName="caron.cap" x="522" y="0" flags="0x4"/>
      <component glyphName="N" x="0" y="0" flags="0x4"/>
    </TTGlyph>
    <TTGlyph name="Ncommaaccent" xMin="55" yMin="-560" xMax="1631" yMax="1522">
      <component glyphName="commaaccent" x="528" y="0" flags="0x4"/>
      <component glyphName="N" x="0" y="0" flags="0x4"/>
    </TTGlyph>
    <TTGlyph name="Ntilde" xMin="55" yMin="0" xMax="1631" yMax="2008">
      <component glyphName="tilde.cap" x="341" y="0" flags="0x4"/>
      <component glyphName="N" x="0" y="0" flags="0x4"/>
    </TTGlyph>
    <TTGlyph name="O" xMin="48" yMin="-24" xMax="1458" yMax="1543">
      <contour>
        <pt x="745" y="-23" on="1"/>
        <pt x="555" y="-24" on="0"/>
        <pt x="290" y="89" on="0"/>
        <pt x="123" y="296" on="0"/>
        <pt x="48" y="585" on="0"/>
        <pt x="48" y="761" on="1"/>
        <pt x="48" y="939" on="0"/>
        <pt x="146" y="1229" on="0"/>
        <pt x="330" y="1433" on="0"/>
        <pt x="594" y="1543" on="0"/>
        <pt x="761" y="1543" on="1"/>
        <pt x="951" y="1542" on="0"/>
        <pt x="1216" y="1436" on="0"/>
        <pt x="1383" y="1241" on="0"/>
        <pt x="1458" y="963" on="0"/>
        <pt x="1458" y="790" on="1"/>
        <pt x="1458" y="611" on="0"/>
        <pt x="1360" y="313" on="0"/>
        <pt x="1175" y="98" on="0"/>
        <pt x="911" y="-22" on="0"/>
      </contour>
      <contour>
        <pt x="754" y="1392" on="1"/>
        <pt x="632" y="1392" on="0"/>
        <pt x="503" y="1085" on="0"/>
        <pt x="503" y="763" on="1"/>
        <pt x="503" y="587" on="0"/>
        <pt x="537" y="345" on="0"/>
        <pt x="602" y="195" on="0"/>
        <pt x="694" y="128" on="0"/>
        <pt x="751" y="128" on="1"/>
        <pt x="872" y="128" on="0"/>
        <pt x="1002" y="466" on="0"/>
        <pt x="1002" y="789" on="1"/>
        <pt x="1002" y="964" on="0"/>
        <pt x="968" y="1197" on="0"/>
        <pt x="903" y="1335" on="0"/>
        <pt x="811" y="1392" on="0"/>
      </contour>
    </TTGlyph>
    <TTGlyph name="OE" xMin="48" yMin="-16" xMax="2131" yMax="1544">
      <contour>
        <pt x="962" y="0" on="1"/>
        <pt x="962" y="37" on="1"/>
        <pt x="913" y="9" on="0"/>
        <pt x="806" y="-16" on="0"/>
        <pt x="748" y="-16" on="1"/>
        <pt x="563" y="-16" on="0"/>
        <pt x="298" y="98" on="0"/>
        <pt x="128" y="303" on="0"/>
        <pt x="48" y="589" on="0"/>
        <pt x="48" y="761" on="1"/>
        <pt x="48" y="939" on="0"/>
        <pt x="142" y="1229" on="0"/>
        <pt x="325" y="1433" on="0"/>
        <pt x="593" y="1544" on="0"/>
        <pt x="766" y="1544" on="1"/>
        <pt x="819" y="1544" on="0"/>
        <pt x="917" y="1528" on="0"/>
        <pt x="962" y="1511" on="1"/>
        <pt x="962" y="1522" on="1"/>
        <pt x="1979" y="1522" on="1"/>
        <pt x="2007" y="1138" on="1"/>
        <pt x="1821" y="1138" on="1"/>
        <pt x="1747" y="1348" on="1"/>
        <pt x="1388" y="1374" on="1"/>
        <pt x="1388" y="863" on="1"/>
        <pt x="1595" y="870" on="1"/>
        <pt x="1632" y="1034" on="1"/>
        <pt x="1799" y="1034" on="1"/>
        <pt x="1799" y="500" on="1"/>
        <pt x="1632" y="500" on="1"/>
        <pt x="1596" y="677" on="1"/>
        <pt x="1388" y="684" on="1"/>
        <pt x="1388" y="156" on="1"/>
        <pt x="1790" y="187" on="1"/>
        <pt x="1941" y="447" on="1"/>
        <pt x="2131" y="392" on="1"/>
        <pt x="2066" y="0" on="1"/>
      </contour>
      <contour>
        <pt x="755" y="129" on="1"/>
        <pt x="832" y="129" on="0"/>
        <pt x="934" y="277" on="0"/>
        <pt x="962" y="404" on="1"/>
        <pt x="962" y="1176" on="1"/>
        <pt x="947" y="1241" on="0"/>
        <pt x="906" y="1326" on="0"/>
        <pt x="853" y="1375" on="0"/>
        <pt x="788" y="1395" on="0"/>
        <pt x="749" y="1395" on="1"/>
        <pt x="627" y="1395" on="0"/>
        <pt x="502" y="1082" on="0"/>
        <pt x="502" y="763" on="1"/>
        <pt x="502" y="591" on="0"/>
        <pt x="538" y="350" on="0"/>
        <pt x="604" y="199" on="0"/>
        <pt x="697" y="129" on="0"/>
      </contour>
    </TTGlyph>
    <TTGlyph name="Oacute" xMin="53" yMin="-24" xMax="1463" yMax="2014">
      <component glyphName="acute.cap" x="249" y="0" flags="0x4"/>
      <component glyphName="O" x="5" y="0" flags="0x4"/>
    </TTGlyph>
    <TTGlyph name="Obreve" xMin="53" yMin="-24" xMax="1463" yMax="2009">
      <component glyphName="breve.cap" x="250" y="0" flags="0x4"/>
      <component glyphName="O" x="5" y="0" flags="0x4"/>
    </TTGlyph>
    <TTGlyph name="Ocircumflex" xMin="53" yMin="-24" xMax="1463" yMax="2004">
      <component glyphName="O" x="5" y="0" flags="0x4"/>
      <component glyphName="circumflex.cap" x="237" y="0" flags="0x4"/>
    </TTGlyph>
    <TTGlyph name="Odieresis" xMin="53" yMin="-24" xMax="1463" yMax="2001">
      <component glyphName="dieresis.cap" x="250" y="0" flags="0x4"/>
      <component glyphName="O" x="5" y="0" flags="0x4"/>
    </TTGlyph>
    <TTGlyph name="Ograve" xMin="53" yMin="-24" xMax="1463" yMax="2014">
      <component glyphName="grave.cap" x="254" y="0" flags="0x4"/>
      <component glyphName="O" x="5" y="0" flags="0x4"/>
    </TTGlyph>
    <TTGlyph name="Ohungarumlaut" xMin="53" yMin="-24" xMax="1463" yMax="2014">
      <component glyphName="O" x="5" y="0" flags="0x4"/>
      <component glyphName="hungarumlaut.cap" x="250" y="0" flags="0x4"/>
    </TTGlyph>
    <TTGlyph name="Omacron" xMin="53" yMin="-24" xMax="1463" yMax="1918">
      <component glyphName="macron.cap" x="420" y="0" flags="0x4"/>
      <component glyphName="O" x="5" y="0" flags="0x4"/>
    </TTGlyph>
    <TTGlyph name="Omega" xMin="102" yMin="0" xMax="1825" yMax="1543">
      <contour>
        <pt x="1087" y="218" on="1"/>
        <pt x="1151" y="264" on="0"/>
        <pt x="1236" y="399" on="0"/>
        <pt x="1287" y="565" on="0"/>
        <pt x="1308" y="754" on="0"/>
        <pt x="1308" y="855" on="1"/>
        <pt x="1308" y="935" on="0"/>
        <pt x="1272" y="1071" on="0"/>
        <pt x="1190" y="1171" on="0"/>
        <pt x="1057" y="1227" on="0"/>
        <pt x="960" y="1227" on="1"/>
        <pt x="862" y="1227" on="0"/>
        <pt x="725" y="1171" on="0"/>
        <pt x="637" y="1068" on="0"/>
        <pt x="597" y="920" on="0"/>
        <pt x="597" y="827" on="1"/>
        <pt x="597" y="725" on="0"/>
        <pt x="637" y="535" on="0"/>
        <pt x="706" y="374" on="0"/>
        <pt x="799" y="252" on="0"/>
        <pt x="852" y="218" on="1"/>
        <pt x="852" y="0" on="1"/>
        <pt x="139" y="0" on="1"/>
        <pt x="102" y="444" on="1"/>
        <pt x="271" y="444" on="1"/>
        <pt x="342" y="240" on="1"/>
        <pt x="645" y="234" on="1"/>
        <pt x="603" y="261" on="0"/>
        <pt x="513" y="343" on="0"/>
        <pt x="426" y="446" on="0"/>
        <pt x="349" y="567" on="0"/>
        <pt x="290" y="700" on="0"/>
        <pt x="257" y="841" on="0"/>
        <pt x="259" y="913" on="1"/>
        <pt x="261" y="1030" on="0"/>
        <pt x="320" y="1215" on="0"/>
        <pt x="419" y="1355" on="0"/>
        <pt x="553" y="1453" on="0"/>
        <pt x="709" y="1515" on="0"/>
        <pt x="879" y="1543" on="0"/>
        <pt x="965" y="1543" on="1"/>
        <pt x="1116" y="1543" on="0"/>
        <pt x="1372" y="1463" on="0"/>
        <pt x="1557" y="1304" on="0"/>
        <pt x="1658" y="1067" on="0"/>
        <pt x="1655" y="911" on="1"/>
        <pt x="1653" y="819" on="0"/>
        <pt x="1591" y="624" on="0"/>
        <pt x="1493" y="444" on="0"/>
        <pt x="1369" y="290" on="0"/>
        <pt x="1306" y="239" on="1"/>
        <pt x="1583" y="258" on="1"/>
        <pt x="1649" y="444" on="1"/>
        <pt x="1825" y="444" on="1"/>
        <pt x="1783" y="0" on="1"/>
        <pt x="1087" y="0" on="1"/>
      </contour>
    </TTGlyph>
    <TTGlyph name="Omegagreek" xMin="102" yMin="0" xMax="1825" yMax="1543">
      <component glyphName="Omega" x="0" y="0" flags="0x204"/>
    </TTGlyph>
    <TTGlyph name="Oslash" xMin="48" yMin="-249" xMax="1458" yMax="1762">
      <contour>
        <pt x="257" y="-200" on="1"/>
        <pt x="366" y="60" on="1"/>
        <pt x="281" y="106" on="0"/>
        <pt x="161" y="245" on="0"/>
        <pt x="84" y="424" on="0"/>
        <pt x="48" y="639" on="0"/>
        <pt x="48" y="761" on="1"/>
        <pt x="48" y="939" on="0"/>
        <pt x="146" y="1229" on="0"/>
        <pt x="330" y="1433" on="0"/>
        <pt x="594" y="1543" on="0"/>
        <pt x="761" y="1543" on="1"/>
        <pt x="818" y="1542" on="0"/>
        <pt x="919" y="1533" on="0"/>
        <pt x="966" y="1523" on="1"/>
        <pt x="1058" y="1762" on="1"/>
        <pt x="1229" y="1712" on="1"/>
        <pt x="1135" y="1466" on="1"/>
        <pt x="1221" y="1423" on="0"/>
        <pt x="1344" y="1291" on="0"/>
        <pt x="1422" y="1120" on="0"/>
        <pt x="1458" y="911" on="0"/>
        <pt x="1458" y="790" on="1"/>
        <pt x="1458" y="611" on="0"/>
        <pt x="1360" y="313" on="0"/>
        <pt x="1175" y="98" on="0"/>
        <pt x="911" y="-22" on="0"/>
        <pt x="745" y="-23" on="1"/>
        <pt x="689" y="-23" on="0"/>
        <pt x="590" y="-13" on="0"/>
        <pt x="544" y="-4" on="1"/>
        <pt x="441" y="-249" on="1"/>
      </contour>
      <contour>
        <pt x="1002" y="789" on="1"/>
        <pt x="1002" y="912" on="0"/>
        <pt x="985" y="1096" on="0"/>
        <pt x="969" y="1165" on="1"/>
        <pt x="596" y="218" on="1"/>
        <pt x="627" y="170" on="0"/>
        <pt x="704" y="128" on="0"/>
        <pt x="751" y="128" on="1"/>
        <pt x="872" y="128" on="0"/>
        <pt x="1002" y="466" on="0"/>
      </contour>
      <contour>
        <pt x="754" y="1392" on="1"/>
        <pt x="632" y="1392" on="0"/>
        <pt x="503" y="1085" on="0"/>
        <pt x="503" y="763" on="1"/>
        <pt x="503" y="638" on="0"/>
        <pt x="520" y="445" on="0"/>
        <pt x="537" y="373" on="1"/>
        <pt x="903" y="1319" on="1"/>
        <pt x="874" y="1358" on="0"/>
        <pt x="799" y="1392" on="0"/>
      </contour>
    </TTGlyph>
    <TTGlyph name="Oslashacute" xMin="48" yMin="-249" xMax="1458" yMax="2014">
      <component glyphName="Oslash" x="0" y="0" flags="0x204"/>
      <component glyphName="acute.cap" x="223" y="0" flags="0x4"/>
    </TTGlyph>
    <TTGlyph name="Otilde" xMin="53" yMin="-24" xMax="1463" yMax="2008">
      <component glyphName="tilde.cap" x="250" y="0" flags="0x4"/>
      <component glyphName="O" x="5" y="0" flags="0x4"/>
    </TTGlyph>
    <TTGlyph name="P" xMin="60" yMin="0" xMax="1364" yMax="1533">
      <contour>
        <pt x="60" y="152" on="1"/>
        <pt x="209" y="175" on="1"/>
        <pt x="209" y="1330" on="1"/>
        <pt x="64" y="1360" on="1"/>
        <pt x="64" y="1522" on="1"/>
        <pt x="425" y="1522" on="1"/>
        <pt x="485" y="1522" on="0"/>
        <pt x="651" y="1533" on="0"/>
        <pt x="763" y="1532" on="1"/>
        <pt x="938" y="1531" on="0"/>
        <pt x="1170" y="1470" on="0"/>
        <pt x="1308" y="1352" on="0"/>
        <pt x="1364" y="1180" on="0"/>
        <pt x="1364" y="1068" on="1"/>
        <pt x="1364" y="936" on="0"/>
        <pt x="1287" y="726" on="0"/>
        <pt x="1132" y="581" on="0"/>
        <pt x="897" y="504" on="0"/>
        <pt x="740" y="504" on="1"/>
        <pt x="702" y="504" on="0"/>
        <pt x="636" y="508" on="0"/>
        <pt x="624" y="510" on="1"/>
        <pt x="624" y="175" on="1"/>
        <pt x="889" y="152" on="1"/>
        <pt x="889" y="0" on="1"/>
        <pt x="60" y="0" on="1"/>
      </contour>
      <contour>
        <pt x="623" y="666" on="1"/>
        <pt x="637" y="661" on="0"/>
        <pt x="685" y="655" on="0"/>
        <pt x="728" y="655" on="1"/>
        <pt x="776" y="655" on="0"/>
        <pt x="855" y="694" on="0"/>
        <pt x="912" y="787" on="0"/>
        <pt x="944" y="941" on="0"/>
        <pt x="944" y="1056" on="1"/>
        <pt x="944" y="1225" on="0"/>
        <pt x="830" y="1383" on="0"/>
        <pt x="724" y="1383" on="1"/>
        <pt x="699" y="1383" on="0"/>
        <pt x="668" y="1381" on="0"/>
        <pt x="646" y="1377" on="0"/>
        <pt x="631" y="1373" on="0"/>
        <pt x="623" y="1371" on="1"/>
      </contour>
    </TTGlyph>
    <TTGlyph name="Q" xMin="48" yMin="-373" xMax="1912" yMax="1543">
      <contour>
        <pt x="745" y="-23" on="1"/>
        <pt x="555" y="-24" on="0"/>
        <pt x="290" y="89" on="0"/>
        <pt x="123" y="296" on="0"/>
        <pt x="48" y="585" on="0"/>
        <pt x="48" y="761" on="1"/>
        <pt x="48" y="939" on="0"/>
        <pt x="146" y="1229" on="0"/>
        <pt x="330" y="1433" on="0"/>
        <pt x="594" y="1543" on="0"/>
        <pt x="761" y="1543" on="1"/>
        <pt x="951" y="1542" on="0"/>
        <pt x="1216" y="1436" on="0"/>
        <pt x="1383" y="1241" on="0"/>
        <pt x="1458" y="963" on="0"/>
        <pt x="1458" y="790" on="1"/>
        <pt x="1458" y="668" on="0"/>
        <pt x="1412" y="451" on="0"/>
        <pt x="1324" y="269" on="0"/>
        <pt x="1196" y="124" on="0"/>
        <pt x="1114" y="74" on="1"/>
        <pt x="1191" y="56" on="0"/>
        <pt x="1356" y="-16" on="0"/>
        <pt x="1520" y="-89" on="0"/>
        <pt x="1678" y="-143" on="0"/>
        <pt x="1748" y="-143" on="1"/>
        <pt x="1750" y="-143" on="1"/>
        <pt x="1805" y="-143" on="0"/>
        <pt x="1863" y="-135" on="0"/>
        <pt x="1879" y="-129" on="1"/>
        <pt x="1912" y="-229" on="1"/>
        <pt x="1903" y="-242" on="0"/>
        <pt x="1868" y="-290" on="0"/>
        <pt x="1803" y="-338" on="0"/>
        <pt x="1704" y="-373" on="0"/>
        <pt x="1631" y="-373" on="1"/>
        <pt x="1620" y="-373" on="1"/>
        <pt x="1545" y="-373" on="0"/>
        <pt x="1410" y="-332" on="0"/>
        <pt x="1285" y="-267" on="0"/>
        <pt x="1169" y="-185" on="0"/>
        <pt x="1058" y="-104" on="0"/>
        <pt x="948" y="-32" on="0"/>
        <pt x="893" y="-8" on="1"/>
        <pt x="858" y="-15" on="0"/>
        <pt x="784" y="-23" on="0"/>
      </contour>
      <contour>
        <pt x="754" y="1392" on="1"/>
        <pt x="632" y="1392" on="0"/>
        <pt x="503" y="1085" on="0"/>
        <pt x="503" y="763" on="1"/>
        <pt x="503" y="587" on="0"/>
        <pt x="537" y="345" on="0"/>
        <pt x="602" y="195" on="0"/>
        <pt x="694" y="128" on="0"/>
        <pt x="751" y="128" on="1"/>
        <pt x="872" y="128" on="0"/>
        <pt x="1002" y="466" on="0"/>
        <pt x="1002" y="789" on="1"/>
        <pt x="1002" y="964" on="0"/>
        <pt x="968" y="1197" on="0"/>
        <pt x="903" y="1335" on="0"/>
        <pt x="811" y="1392" on="0"/>
      </contour>
    </TTGlyph>
    <TTGlyph name="R" xMin="60" yMin="0" xMax="1543" yMax="1533">
      <contour>
        <pt x="60" y="152" on="1"/>
        <pt x="209" y="175" on="1"/>
        <pt x="209" y="1330" on="1"/>
        <pt x="64" y="1360" on="1"/>
        <pt x="64" y="1522" on="1"/>
        <pt x="404" y="1522" on="1"/>
        <pt x="450" y="1522" on="0"/>
        <pt x="529" y="1525" on="0"/>
        <pt x="611" y="1530" on="0"/>
        <pt x="703" y="1533" on="0"/>
        <pt x="762" y="1533" on="1"/>
        <pt x="930" y="1533" on="0"/>
        <pt x="1164" y="1488" on="0"/>
        <pt x="1309" y="1390" on="0"/>
        <pt x="1375" y="1235" on="0"/>
        <pt x="1375" y="1125" on="1"/>
        <pt x="1375" y="1066" on="0"/>
        <pt x="1344" y="938" on="0"/>
        <pt x="1275" y="821" on="0"/>
        <pt x="1167" y="728" on="0"/>
        <pt x="1089" y="703" on="1"/>
        <pt x="1155" y="682" on="0"/>
        <pt x="1253" y="591" on="0"/>
        <pt x="1327" y="476" on="0"/>
        <pt x="1381" y="353" on="0"/>
        <pt x="1427" y="248" on="0"/>
        <pt x="1469" y="175" on="0"/>
        <pt x="1493" y="169" on="1"/>
        <pt x="1543" y="152" on="1"/>
        <pt x="1543" y="0" on="1"/>
        <pt x="1100" y="0" on="1"/>
        <pt x="1081" y="0" on="0"/>
        <pt x="1046" y="51" on="0"/>
        <pt x="1010" y="135" on="0"/>
        <pt x="974" y="243" on="0"/>
        <pt x="936" y="357" on="0"/>
        <pt x="896" y="470" on="0"/>
        <pt x="850" y="563" on="0"/>
        <pt x="800" y="627" on="0"/>
        <pt x="771" y="636" on="1"/>
        <pt x="624" y="636" on="1"/>
        <pt x="624" y="174" on="1"/>
        <pt x="797" y="152" on="1"/>
        <pt x="797" y="0" on="1"/>
        <pt x="60" y="0" on="1"/>
      </contour>
      <contour>
        <pt x="624" y="789" on="1"/>
        <pt x="630" y="786" on="0"/>
        <pt x="660" y="783" on="0"/>
        <pt x="696" y="782" on="0"/>
        <pt x="730" y="782" on="0"/>
        <pt x="740" y="782" on="1"/>
        <pt x="834" y="782" on="0"/>
        <pt x="938" y="940" on="0"/>
        <pt x="938" y="1112" on="1"/>
        <pt x="938" y="1185" on="0"/>
        <pt x="913" y="1289" on="0"/>
        <pt x="862" y="1355" on="0"/>
        <pt x="782" y="1385" on="0"/>
        <pt x="727" y="1385" on="1"/>
        <pt x="684" y="1385" on="0"/>
        <pt x="635" y="1380" on="0"/>
        <pt x="624" y="1376" on="1"/>
      </contour>
    </TTGlyph>
    <TTGlyph name="Racute" xMin="60" yMin="0" xMax="1543" yMax="2014">
      <component glyphName="R" x="0" y="0" flags="0x204"/>
      <component glyphName="acute.cap" x="225" y="0" flags="0x4"/>
    </TTGlyph>
    <TTGlyph name="Rcaron" xMin="60" yMin="0" xMax="1543" yMax="2014">
      <component glyphName="caron.cap" x="405" y="0" flags="0x4"/>
      <component glyphName="R" x="0" y="0" flags="0x4"/>
    </TTGlyph>
    <TTGlyph name="Rcommaaccent" xMin="60" yMin="-560" xMax="1543" yMax="1533">
      <component glyphName="commaaccent" x="464" y="0" flags="0x4"/>
      <component glyphName="R" x="0" y="0" flags="0x4"/>
    </TTGlyph>
    <TTGlyph name="S" xMin="103" yMin="-23" xMax="1229" yMax="1543">
      <contour>
        <pt x="627" y="-23" on="1"/>
        <pt x="530" y="-23" on="0"/>
        <pt x="361" y="3" on="0"/>
        <pt x="226" y="36" on="0"/>
        <pt x="129" y="64" on="0"/>
        <pt x="103" y="66" on="1"/>
        <pt x="120" y="454" on="1"/>
        <pt x="342" y="454" on="1"/>
        <pt x="399" y="197" on="1"/>
        <pt x="415" y="175" on="0"/>
        <pt x="515" y="136" on="0"/>
        <pt x="601" y="136" on="1"/>
        <pt x="714" y="136" on="0"/>
        <pt x="817" y="233" on="0"/>
        <pt x="817" y="315" on="1"/>
        <pt x="817" y="362" on="0"/>
        <pt x="772" y="438" on="0"/>
        <pt x="685" y="506" on="0"/>
        <pt x="560" y="572" on="0"/>
        <pt x="481" y="610" on="1"/>
        <pt x="424" y="637" on="0"/>
        <pt x="293" y="719" on="0"/>
        <pt x="181" y="839" on="0"/>
        <pt x="106" y="1003" on="0"/>
        <pt x="106" y="1112" on="1"/>
        <pt x="106" y="1193" on="0"/>
        <pt x="167" y="1347" on="0"/>
        <pt x="301" y="1469" on="0"/>
        <pt x="515" y="1543" on="0"/>
        <pt x="668" y="1543" on="1"/>
        <pt x="764" y="1543" on="0"/>
        <pt x="914" y="1521" on="0"/>
        <pt x="1026" y="1494" on="0"/>
        <pt x="1102" y="1471" on="0"/>
        <pt x="1125" y="1470" on="1"/>
        <pt x="1112" y="1095" on="1"/>
        <pt x="895" y="1095" on="1"/>
        <pt x="846" y="1346" on="1"/>
        <pt x="836" y="1361" on="0"/>
        <pt x="755" y="1390" on="0"/>
        <pt x="692" y="1390" on="1"/>
        <pt x="637" y="1390" on="0"/>
        <pt x="563" y="1360" on="0"/>
        <pt x="518" y="1312" on="0"/>
        <pt x="498" y="1251" on="0"/>
        <pt x="498" y="1220" on="1"/>
        <pt x="498" y="1164" on="0"/>
        <pt x="560" y="1076" on="0"/>
        <pt x="663" y="1001" on="0"/>
        <pt x="795" y="933" on="0"/>
        <pt x="865" y="898" on="1"/>
        <pt x="902" y="880" on="0"/>
        <pt x="985" y="834" on="0"/>
        <pt x="1066" y="776" on="0"/>
        <pt x="1140" y="705" on="0"/>
        <pt x="1196" y="617" on="0"/>
        <pt x="1229" y="512" on="0"/>
        <pt x="1229" y="449" on="1"/>
        <pt x="1229" y="400" on="0"/>
        <pt x="1209" y="292" on="0"/>
        <pt x="1159" y="187" on="0"/>
        <pt x="1072" y="92" on="0"/>
        <pt x="938" y="20" on="0"/>
        <pt x="752" y="-23" on="0"/>
      </contour>
    </TTGlyph>
    <TTGlyph name="Sacute" xMin="103" yMin="-23" xMax="1229" yMax="2014">
      <component glyphName="S" x="0" y="0" flags="0x204"/>
      <component glyphName="acute.cap" x="159" y="0" flags="0x4"/>
    </TTGlyph>
    <TTGlyph name="Scaron" xMin="103" yMin="-23" xMax="1229" yMax="2014">
      <component glyphName="S" x="0" y="0" flags="0x204"/>
      <component glyphName="caron.cap" x="338" y="0" flags="0x4"/>
    </TTGlyph>
    <TTGlyph name="Scircumflex" xMin="103" yMin="-23" xMax="1229" yMax="2004">
      <component glyphName="S" x="0" y="0" flags="0x204"/>
      <component glyphName="circumflex.cap" x="146" y="0" flags="0x4"/>
    </TTGlyph>
    <TTGlyph name="T" xMin="31" yMin="0" xMax="1476" yMax="1522">
      <contour>
        <pt x="297" y="152" on="1"/>
        <pt x="554" y="176" on="1"/>
        <pt x="554" y="1350" on="1"/>
        <pt x="347" y="1339" on="1"/>
        <pt x="252" y="868" on="1"/>
        <pt x="31" y="868" on="1"/>
        <pt x="63" y="1522" on="1"/>
        <pt x="1449" y="1522" on="1"/>
        <pt x="1476" y="868" on="1"/>
        <pt x="1268" y="868" on="1"/>
        <pt x="1167" y="1339" on="1"/>
        <pt x="970" y="1350" on="1"/>
        <pt x="970" y="176" on="1"/>
        <pt x="1253" y="152" on="1"/>
        <pt x="1253" y="0" on="1"/>
        <pt x="297" y="0" on="1"/>
      </contour>
    </TTGlyph>
    <TTGlyph name="Tbar" xMin="37" yMin="0" xMax="1482" yMax="1522">
      <contour>
        <pt x="352" y="720" on="1"/>
        <pt x="560" y="720" on="1"/>
        <pt x="560" y="1350" on="1"/>
        <pt x="353" y="1339" on="1"/>
        <pt x="258" y="868" on="1"/>
        <pt x="37" y="868" on="1"/>
        <pt x="69" y="1522" on="1"/>
        <pt x="1455" y="1522" on="1"/>
        <pt x="1482" y="868" on="1"/>
        <pt x="1274" y="868" on="1"/>
        <pt x="1173" y="1339" on="1"/>
        <pt x="976" y="1350" on="1"/>
        <pt x="976" y="720" on="1"/>
        <pt x="1177" y="720" on="1"/>
        <pt x="1177" y="549" on="1"/>
        <pt x="976" y="549" on="1"/>
        <pt x="976" y="176" on="1"/>
        <pt x="1259" y="152" on="1"/>
        <pt x="1259" y="0" on="1"/>
        <pt x="303" y="0" on="1"/>
        <pt x="303" y="152" on="1"/>
        <pt x="560" y="176" on="1"/>
        <pt x="560" y="549" on="1"/>
        <pt x="352" y="549" on="1"/>
      </contour>
    </TTGlyph>
    <TTGlyph name="Tcaron" xMin="31" yMin="0" xMax="1476" yMax="2014">
      <component glyphName="caron.cap" x="439" y="0" flags="0x4"/>
      <component glyphName="T" x="0" y="0" flags="0x4"/>
    </TTGlyph>
    <TTGlyph name="Thorn" xMin="52" yMin="0" xMax="1361" yMax="1522">
      <contour>
        <pt x="54" y="150" on="1"/>
        <pt x="208" y="174" on="1"/>
        <pt x="208" y="1330" on="1"/>
        <pt x="52" y="1362" on="1"/>
        <pt x="52" y="1522" on="1"/>
        <pt x="789" y="1522" on="1"/>
        <pt x="791" y="1361" on="1"/>
        <pt x="625" y="1330" on="1"/>
        <pt x="625" y="1182" on="1"/>
        <pt x="663" y="1185" on="0"/>
        <pt x="727" y="1192" on="0"/>
        <pt x="792" y="1199" on="0"/>
        <pt x="865" y="1203" on="0"/>
        <pt x="911" y="1203" on="1"/>
        <pt x="1139" y="1203" on="0"/>
        <pt x="1361" y="1003" on="0"/>
        <pt x="1361" y="792" on="1"/>
        <pt x="1361" y="670" on="0"/>
        <pt x="1292" y="491" on="0"/>
        <pt x="1162" y="373" on="0"/>
        <pt x="974" y="315" on="0"/>
        <pt x="856" y="315" on="1"/>
        <pt x="823" y="315" on="0"/>
        <pt x="754" y="318" on="0"/>
        <pt x="692" y="323" on="0"/>
        <pt x="640" y="328" on="0"/>
        <pt x="625" y="330" on="1"/>
        <pt x="625" y="175" on="1"/>
        <pt x="830" y="150" on="1"/>
        <pt x="830" y="0" on="1"/>
        <pt x="54" y="0" on="1"/>
      </contour>
      <contour>
        <pt x="766" y="466" on="1"/>
        <pt x="801" y="466" on="0"/>
        <pt x="860" y="511" on="0"/>
        <pt x="903" y="594" on="0"/>
        <pt x="927" y="709" on="0"/>
        <pt x="927" y="778" on="1"/>
        <pt x="927" y="827" on="0"/>
        <pt x="908" y="922" on="0"/>
        <pt x="864" y="997" on="0"/>
        <pt x="791" y="1043" on="0"/>
        <pt x="738" y="1043" on="1"/>
        <pt x="708" y="1043" on="0"/>
        <pt x="643" y="1034" on="0"/>
        <pt x="625" y="1029" on="1"/>
        <pt x="625" y="475" on="1"/>
        <pt x="663" y="467" on="0"/>
        <pt x="737" y="466" on="0"/>
      </contour>
    </TTGlyph>
    <TTGlyph name="U" xMin="24" yMin="-16" xMax="1521" yMax="1522">
      <contour>
        <pt x="798" y="-16" on="1"/>
        <pt x="638" y="-16" on="0"/>
        <pt x="394" y="55" on="0"/>
        <pt x="228" y="206" on="0"/>
        <pt x="143" y="443" on="0"/>
        <pt x="143" y="609" on="1"/>
        <pt x="143" y="1330" on="1"/>
        <pt x="24" y="1360" on="1"/>
        <pt x="24" y="1522" on="1"/>
        <pt x="743" y="1522" on="1"/>
        <pt x="743" y="1360" on="1"/>
        <pt x="573" y="1326" on="1"/>
        <pt x="573" y="575" on="1"/>
        <pt x="573" y="479" on="0"/>
        <pt x="603" y="320" on="0"/>
        <pt x="671" y="205" on="0"/>
        <pt x="781" y="141" on="0"/>
        <pt x="862" y="141" on="1"/>
        <pt x="940" y="141" on="0"/>
        <pt x="1047" y="208" on="0"/>
        <pt x="1112" y="325" on="0"/>
        <pt x="1140" y="484" on="0"/>
        <pt x="1140" y="575" on="1"/>
        <pt x="1140" y="1330" on="1"/>
        <pt x="961" y="1360" on="1"/>
        <pt x="961" y="1522" on="1"/>
        <pt x="1521" y="1522" on="1"/>
        <pt x="1521" y="1360" on="1"/>
        <pt x="1394" y="1330" on="1"/>
        <pt x="1394" y="598" on="1"/>
        <pt x="1394" y="431" on="0"/>
        <pt x="1305" y="198" on="0"/>
        <pt x="1146" y="51" on="0"/>
        <pt x="928" y="-16" on="0"/>
      </contour>
    </TTGlyph>
    <TTGlyph name="Uacute" xMin="24" yMin="-16" xMax="1521" yMax="2014">
      <component glyphName="acute.cap" x="296" y="0" flags="0x4"/>
      <component glyphName="U" x="0" y="0" flags="0x4"/>
    </TTGlyph>
    <TTGlyph name="Ubreve" xMin="24" yMin="-16" xMax="1521" yMax="2009">
      <component glyphName="breve.cap" x="296" y="0" flags="0x4"/>
      <component glyphName="U" x="0" y="0" flags="0x4"/>
    </TTGlyph>
    <TTGlyph name="Ucircumflex" xMin="24" yMin="-16" xMax="1521" yMax="2004">
      <component glyphName="U" x="0" y="0" flags="0x204"/>
      <component glyphName="circumflex.cap" x="293" y="0" flags="0x4"/>
    </TTGlyph>
    <TTGlyph name="Udieresis" xMin="24" yMin="-16" xMax="1521" yMax="2001">
      <component glyphName="dieresis.cap" x="297" y="0" flags="0x4"/>
      <component glyphName="U" x="0" y="0" flags="0x4"/>
    </TTGlyph>
    <TTGlyph name="Ugrave" xMin="24" yMin="-16" xMax="1521" yMax="2014">
      <component glyphName="grave.cap" x="300" y="0" flags="0x4"/>
      <component glyphName="U" x="0" y="0" flags="0x4"/>
    </TTGlyph>
    <TTGlyph name="Uhungarumlaut" xMin="24" yMin="-16" xMax="1521" yMax="2014">
      <component glyphName="U" x="0" y="0" flags="0x204"/>
      <component glyphName="hungarumlaut.cap" x="296" y="0" flags="0x4"/>
    </TTGlyph>
    <TTGlyph name="Umacron" xMin="24" yMin="-16" xMax="1521" yMax="1918">
      <component glyphName="macron.cap" x="466" y="0" flags="0x4"/>
      <component glyphName="U" x="0" y="0" flags="0x4"/>
    </TTGlyph>
    <TTGlyph name="Uogonek" xMin="24" yMin="-515" xMax="1521" yMax="1522">
      <contour>
        <pt x="798" y="-16" on="1"/>
        <pt x="638" y="-16" on="0"/>
        <pt x="394" y="55" on="0"/>
        <pt x="228" y="206" on="0"/>
        <pt x="143" y="443" on="0"/>
        <pt x="143" y="609" on="1"/>
        <pt x="143" y="1330" on="1"/>
        <pt x="24" y="1360" on="1"/>
        <pt x="24" y="1522" on="1"/>
        <pt x="743" y="1522" on="1"/>
        <pt x="743" y="1360" on="1"/>
        <pt x="573" y="1326" on="1"/>
        <pt x="573" y="575" on="1"/>
        <pt x="573" y="479" on="0"/>
        <pt x="603" y="320" on="0"/>
        <pt x="671" y="205" on="0"/>
        <pt x="781" y="141" on="0"/>
        <pt x="862" y="141" on="1"/>
        <pt x="940" y="141" on="0"/>
        <pt x="1047" y="208" on="0"/>
        <pt x="1112" y="325" on="0"/>
        <pt x="1140" y="484" on="0"/>
        <pt x="1140" y="575" on="1"/>
        <pt x="1140" y="1330" on="1"/>
        <pt x="961" y="1360" on="1"/>
        <pt x="961" y="1522" on="1"/>
        <pt x="1521" y="1522" on="1"/>
        <pt x="1521" y="1360" on="1"/>
        <pt x="1394" y="1330" on="1"/>
        <pt x="1394" y="598" on="1"/>
        <pt x="1394" y="483" on="0"/>
        <pt x="1351" y="301" on="0"/>
        <pt x="1271" y="163" on="0"/>
        <pt x="1158" y="66" on="0"/>
        <pt x="1088" y="36" on="1"/>
        <pt x="1015" y="-23" on="0"/>
        <pt x="927" y="-134" on="0"/>
        <pt x="927" y="-191" on="1"/>
        <pt x="927" y="-212" on="0"/>
        <pt x="942" y="-254" on="0"/>
        <pt x="972" y="-287" on="0"/>
        <pt x="1017" y="-307" on="0"/>
        <pt x="1046" y="-307" on="1"/>
        <pt x="1064" y="-307" on="0"/>
        <pt x="1091" y="-305" on="0"/>
        <pt x="1116" y="-300" on="0"/>
        <pt x="1142" y="-291" on="0"/>
        <pt x="1160" y="-284" on="1"/>
        <pt x="1160" y="-447" on="1"/>
        <pt x="1138" y="-463" on="0"/>
        <pt x="1074" y="-488" on="0"/>
        <pt x="1003" y="-506" on="0"/>
        <pt x="929" y="-515" on="0"/>
        <pt x="897" y="-515" on="1"/>
        <pt x="841" y="-515" on="0"/>
        <pt x="741" y="-490" on="0"/>
        <pt x="665" y="-439" on="0"/>
        <pt x="620" y="-360" on="0"/>
        <pt x="620" y="-305" on="1"/>
        <pt x="620" y="-259" on="0"/>
        <pt x="667" y="-171" on="0"/>
        <pt x="740" y="-95" on="0"/>
        <pt x="830" y="-33" on="0"/>
        <pt x="872" y="-13" on="1"/>
        <pt x="836" y="-16" on="0"/>
      </contour>
    </TTGlyph>
    <TTGlyph name="Uring" xMin="24" yMin="-16" xMax="1521" yMax="2014">
      <component glyphName="U" x="0" y="0" flags="0x204"/>
      <component glyphName="ring.cap" x="306" y="0" flags="0x4"/>
    </TTGlyph>
    <TTGlyph name="Utilde" xMin="24" yMin="-16" xMax="1521" yMax="2008">
      <component glyphName="tilde.cap" x="296" y="0" flags="0x4"/>
      <component glyphName="U" x="0" y="0" flags="0x4"/>
    </TTGlyph>
    <TTGlyph name="V" xMin="-43" yMin="-15" xMax="1503" yMax="1522">
      <contour>
        <pt x="76" y="1330" on="1"/>
        <pt x="-43" y="1360" on="1"/>
        <pt x="-43" y="1522" on="1"/>
        <pt x="689" y="1522" on="1"/>
        <pt x="689" y="1360" on="1"/>
        <pt x="528" y="1331" on="1"/>
        <pt x="788" y="475" on="1"/>
        <pt x="825" y="330" on="1"/>
        <pt x="853" y="475" on="1"/>
        <pt x="1109" y="1329" on="1"/>
        <pt x="950" y="1360" on="1"/>
        <pt x="950" y="1522" on="1"/>
        <pt x="1503" y="1522" on="1"/>
        <pt x="1503" y="1360" on="1"/>
        <pt x="1370" y="1330" on="1"/>
        <pt x="917" y="-15" on="1"/>
        <pt x="580" y="-15" on="1"/>
      </contour>
    </TTGlyph>
    <TTGlyph name="W" xMin="-35" yMin="-10" xMax="2167" yMax="1522">
      <contour>
        <pt x="75" y="1329" on="1"/>
        <pt x="-35" y="1360" on="1"/>
        <pt x="-35" y="1522" on="1"/>
        <pt x="668" y="1522" on="1"/>
        <pt x="668" y="1360" on="1"/>
        <pt x="507" y="1329" on="1"/>
        <pt x="734" y="450" on="1"/>
        <pt x="762" y="308" on="1"/>
        <pt x="781" y="450" on="1"/>
        <pt x="974" y="1154" on="1"/>
        <pt x="915" y="1330" on="1"/>
        <pt x="795" y="1360" on="1"/>
        <pt x="795" y="1522" on="1"/>
        <pt x="1532" y="1522" on="1"/>
        <pt x="1532" y="1360" on="1"/>
        <pt x="1339" y="1330" on="1"/>
        <pt x="1568" y="450" on="1"/>
        <pt x="1601" y="293" on="1"/>
        <pt x="1625" y="450" on="1"/>
        <pt x="1824" y="1330" on="1"/>
        <pt x="1665" y="1360" on="1"/>
        <pt x="1665" y="1522" on="1"/>
        <pt x="2167" y="1522" on="1"/>
        <pt x="2167" y="1360" on="1"/>
        <pt x="2041" y="1329" on="1"/>
        <pt x="1679" y="-10" on="1"/>
        <pt x="1310" y="-10" on="1"/>
        <pt x="1070" y="845" on="1"/>
        <pt x="848" y="-10" on="1"/>
        <pt x="481" y="-10" on="1"/>
      </contour>
    </TTGlyph>
    <TTGlyph name="Wacute" xMin="-40" yMin="-10" xMax="2162" yMax="2014">
      <component glyphName="acute.cap" x="591" y="0" flags="0x4"/>
      <component glyphName="W" x="-5" y="0" flags="0x4"/>
    </TTGlyph>
    <TTGlyph name="Wcircumflex" xMin="-40" yMin="-10" xMax="2162" yMax="2004">
      <component glyphName="W" x="-5" y="0" flags="0x4"/>
      <component glyphName="circumflex.cap" x="578" y="0" flags="0x4"/>
    </TTGlyph>
    <TTGlyph name="Wdieresis" xMin="-40" yMin="-10" xMax="2162" yMax="2001">
      <component glyphName="dieresis.cap" x="591" y="0" flags="0x4"/>
      <component glyphName="W" x="-5" y="0" flags="0x4"/>
    </TTGlyph>
    <TTGlyph name="Wgrave" xMin="-40" yMin="-10" xMax="2162" yMax="2014">
      <component glyphName="grave.cap" x="589" y="0" flags="0x4"/>
      <component glyphName="W" x="-5" y="0" flags="0x4"/>
    </TTGlyph>
    <TTGlyph name="X" xMin="10" yMin="0" xMax="1498" yMax="1522">
      <contour>
        <pt x="10" y="152" on="1"/>
        <pt x="177" y="174" on="1"/>
        <pt x="546" y="719" on="1"/>
        <pt x="141" y="1329" on="1"/>
        <pt x="14" y="1360" on="1"/>
        <pt x="14" y="1522" on="1"/>
        <pt x="765" y="1522" on="1"/>
        <pt x="765" y="1360" on="1"/>
        <pt x="623" y="1328" on="1"/>
        <pt x="847" y="941" on="1"/>
        <pt x="1091" y="1330" on="1"/>
        <pt x="924" y="1360" on="1"/>
        <pt x="924" y="1522" on="1"/>
        <pt x="1480" y="1522" on="1"/>
        <pt x="1480" y="1360" on="1"/>
        <pt x="1313" y="1330" on="1"/>
        <pt x="940" y="825" on="1"/>
        <pt x="1373" y="176" on="1"/>
        <pt x="1498" y="152" on="1"/>
        <pt x="1498" y="0" on="1"/>
        <pt x="748" y="0" on="1"/>
        <pt x="748" y="152" on="1"/>
        <pt x="893" y="177" on="1"/>
        <pt x="643" y="599" on="1"/>
        <pt x="404" y="174" on="1"/>
        <pt x="586" y="152" on="1"/>
        <pt x="586" y="0" on="1"/>
        <pt x="10" y="0" on="1"/>
      </contour>
    </TTGlyph>
    <TTGlyph name="Y" xMin="-48" yMin="0" xMax="1410" yMax="1522">
      <contour>
        <pt x="265" y="152" on="1"/>
        <pt x="468" y="176" on="1"/>
        <pt x="468" y="619" on="1"/>
        <pt x="62" y="1331" on="1"/>
        <pt x="-48" y="1360" on="1"/>
        <pt x="-48" y="1522" on="1"/>
        <pt x="656" y="1522" on="1"/>
        <pt x="656" y="1360" on="1"/>
        <pt x="534" y="1329" on="1"/>
        <pt x="742" y="898" on="1"/>
        <pt x="784" y="776" on="1"/>
        <pt x="827" y="896" on="1"/>
        <pt x="1010" y="1330" on="1"/>
        <pt x="859" y="1360" on="1"/>
        <pt x="859" y="1522" on="1"/>
        <pt x="1410" y="1522" on="1"/>
        <pt x="1410" y="1360" on="1"/>
        <pt x="1289" y="1335" on="1"/>
        <pt x="912" y="620" on="1"/>
        <pt x="912" y="175" on="1"/>
        <pt x="1125" y="152" on="1"/>
        <pt x="1125" y="0" on="1"/>
        <pt x="265" y="0" on="1"/>
      </contour>
    </TTGlyph>
    <TTGlyph name="Yacute" xMin="-59" yMin="0" xMax="1399" yMax="2014">
      <component glyphName="Y" x="-11" y="0" flags="0x4"/>
      <component glyphName="acute.cap" x="183" y="0" flags="0x4"/>
    </TTGlyph>
    <TTGlyph name="Ycircumflex" xMin="-59" yMin="0" xMax="1399" yMax="2004">
      <component glyphName="Y" x="-11" y="0" flags="0x4"/>
      <component glyphName="circumflex.cap" x="170" y="0" flags="0x4"/>
    </TTGlyph>
    <TTGlyph name="Ydieresis" xMin="-59" yMin="0" xMax="1399" yMax="2001">
      <component glyphName="Y" x="-11" y="0" flags="0x4"/>
      <component glyphName="dieresis.cap" x="183" y="0" flags="0x4"/>
    </TTGlyph>
    <TTGlyph name="Ygrave" xMin="-59" yMin="0" xMax="1399" yMax="2014">
      <component glyphName="Y" x="-11" y="0" flags="0x4"/>
      <component glyphName="grave.cap" x="181" y="0" flags="0x4"/>
    </TTGlyph>
    <TTGlyph name="Z" xMin="10" yMin="0" xMax="1310" yMax="1526">
      <contour>
        <pt x="10" y="133" on="1"/>
        <pt x="717" y="1247" on="1"/>
        <pt x="842" y="1382" on="1"/>
        <pt x="412" y="1350" on="1"/>
        <pt x="293" y="1062" on="1"/>
        <pt x="88" y="1093" on="1"/>
        <pt x="142" y="1526" on="1"/>
        <pt x="1243" y="1526" on="1"/>
        <pt x="1297" y="1388" on="1"/>
        <pt x="609" y="277" on="1"/>
        <pt x="459" y="151" on="1"/>
        <pt x="981" y="196" on="1"/>
        <pt x="1105" y="510" on="1"/>
        <pt x="1310" y="469" on="1"/>
        <pt x="1265" y="0" on="1"/>
        <pt x="87" y="0" on="1"/>
      </contour>
    </TTGlyph>
    <TTGlyph name="Zacute" xMin="10" yMin="0" xMax="1310" yMax="2014">
      <component glyphName="Z" x="0" y="0" flags="0x204"/>
      <component glyphName="acute.cap" x="208" y="0" flags="0x4"/>
    </TTGlyph>
    <TTGlyph name="Zcaron" xMin="10" yMin="0" xMax="1310" yMax="2014">
      <component glyphName="caron.cap" x="388" y="0" flags="0x4"/>
      <component glyphName="Z" x="0" y="0" flags="0x4"/>
    </TTGlyph>
    <TTGlyph name="Zdotaccent" xMin="10" yMin="0" xMax="1310" yMax="2001">
      <component glyphName="dotaccent.cap" x="427" y="0" flags="0x4"/>
      <component glyphName="Z" x="0" y="0" flags="0x4"/>
    </TTGlyph>
    <TTGlyph name="a" xMin="40" yMin="-26" xMax="1164" yMax="1167">
      <contour>
        <pt x="40" y="330" on="1"/>
        <pt x="40" y="418" on="0"/>
        <pt x="120" y="559" on="0"/>
        <pt x="283" y="657" on="0"/>
        <pt x="531" y="710" on="0"/>
        <pt x="698" y="710" on="1"/>
        <pt x="698" y="742" on="1"/>
        <pt x="698" y="787" on="0"/>
        <pt x="685" y="852" on="0"/>
        <pt x="646" y="896" on="0"/>
        <pt x="573" y="917" on="0"/>
        <pt x="513" y="917" on="1"/>
        <pt x="452" y="917" on="0"/>
        <pt x="347" y="901" on="0"/>
        <pt x="260" y="877" on="0"/>
        <pt x="191" y="850" on="0"/>
        <pt x="166" y="840" on="1"/>
        <pt x="165" y="840" on="1"/>
        <pt x="86" y="1008" on="1"/>
        <pt x="107" y="1024" on="0"/>
        <pt x="203" y="1078" on="0"/>
        <pt x="341" y="1130" on="0"/>
        <pt x="515" y="1167" on="0"/>
        <pt x="615" y="1167" on="1"/>
        <pt x="745" y="1167" on="0"/>
        <pt x="917" y="1119" on="0"/>
        <pt x="1021" y="1015" on="0"/>
        <pt x="1064" y="852" on="0"/>
        <pt x="1064" y="738" on="1"/>
        <pt x="1064" y="152" on="1"/>
        <pt x="1164" y="152" on="1"/>
        <pt x="1164" y="4" on="1"/>
        <pt x="1145" y="0" on="0"/>
        <pt x="1073" y="-10" on="0"/>
        <pt x="987" y="-19" on="0"/>
        <pt x="897" y="-26" on="0"/>
        <pt x="861" y="-26" on="1"/>
        <pt x="816" y="-26" on="0"/>
        <pt x="759" y="-13" on="0"/>
        <pt x="728" y="15" on="0"/>
        <pt x="717" y="62" on="0"/>
        <pt x="717" y="96" on="1"/>
        <pt x="717" y="134" on="1"/>
        <pt x="697" y="106" on="0"/>
        <pt x="636" y="50" on="0"/>
        <pt x="554" y="5" on="0"/>
        <pt x="451" y="-23" on="0"/>
        <pt x="389" y="-23" on="1"/>
        <pt x="318" y="-23" on="0"/>
        <pt x="191" y="25" on="0"/>
        <pt x="96" y="115" on="0"/>
        <pt x="40" y="246" on="0"/>
      </contour>
      <contour>
        <pt x="582" y="189" on="1"/>
        <pt x="611" y="189" on="0"/>
        <pt x="677" y="221" on="0"/>
        <pt x="698" y="245" on="1"/>
        <pt x="698" y="560" on="1"/>
        <pt x="628" y="560" on="0"/>
        <pt x="534" y="528" on="0"/>
        <pt x="477" y="475" on="0"/>
        <pt x="453" y="409" on="0"/>
        <pt x="453" y="374" on="1"/>
        <pt x="453" y="333" on="0"/>
        <pt x="470" y="266" on="0"/>
        <pt x="503" y="216" on="0"/>
        <pt x="551" y="189" on="0"/>
      </contour>
    </TTGlyph>
    <TTGlyph name="aacute" xMin="40" yMin="-26" xMax="1164" yMax="1855">
      <component glyphName="a" x="0" y="0" flags="0x4"/>
      <component glyphName="acute" x="245" y="0" flags="0x4"/>
    </TTGlyph>
    <TTGlyph name="abreve" xMin="40" yMin="-26" xMax="1164" yMax="1773">
      <component glyphName="a" x="0" y="0" flags="0x4"/>
      <component glyphName="breve" x="75" y="0" flags="0x4"/>
    </TTGlyph>
    <TTGlyph name="acircumflex" xMin="40" yMin="-26" xMax="1164" yMax="1801">
      <component glyphName="a" x="0" y="0" flags="0x4"/>
      <component glyphName="circumflex" x="76" y="0" flags="0x4"/>
    </TTGlyph>
    <TTGlyph name="acute" xMin="122" yMin="1286" xMax="721" yMax="1855">
      <contour>
        <pt x="122" y="1403" on="1"/>
        <pt x="503" y="1855" on="1"/>
        <pt x="504" y="1855" on="1"/>
        <pt x="721" y="1656" on="1"/>
        <pt x="701" y="1622" on="0"/>
        <pt x="637" y="1547" on="0"/>
        <pt x="559" y="1473" on="0"/>
        <pt x="472" y="1403" on="0"/>
        <pt x="386" y="1343" on="0"/>
        <pt x="306" y="1298" on="0"/>
        <pt x="274" y="1286" on="1"/>
        <pt x="272" y="1286" on="1"/>
      </contour>
    </TTGlyph>
    <TTGlyph name="acute.cap" xMin="350" yMin="1593" xMax="888" yMax="2014">
      <contour>
        <pt x="350" y="1695" on="1"/>
        <pt x="645" y="2014" on="1"/>
        <pt x="646" y="2014" on="1"/>
        <pt x="888" y="1854" on="1"/>
        <pt x="840" y="1804" on="0"/>
        <pt x="725" y="1715" on="0"/>
        <pt x="614" y="1645" on="0"/>
        <pt x="521" y="1600" on="0"/>
        <pt x="495" y="1593" on="1"/>
        <pt x="494" y="1593" on="1"/>
      </contour>
    </TTGlyph>
    <TTGlyph name="adieresis" xMin="40" yMin="-26" xMax="1164" yMax="1712">
      <component glyphName="a" x="0" y="0" flags="0x4"/>
      <component glyphName="dieresis" x="75" y="0" flags="0x4"/>
    </TTGlyph>
    <TTGlyph name="ae" xMin="41" yMin="-23" xMax="1727" yMax="1167">
      <contour>
        <pt x="1259" y="-23" on="1"/>
        <pt x="1090" y="-23" on="0"/>
        <pt x="864" y="81" on="0"/>
        <pt x="799" y="174" on="1"/>
        <pt x="769" y="129" on="0"/>
        <pt x="680" y="56" on="0"/>
        <pt x="571" y="5" on="0"/>
        <pt x="449" y="-23" on="0"/>
        <pt x="387" y="-23" on="1"/>
        <pt x="316" y="-23" on="0"/>
        <pt x="191" y="21" on="0"/>
        <pt x="96" y="106" on="0"/>
        <pt x="41" y="234" on="0"/>
        <pt x="41" y="318" on="1"/>
        <pt x="41" y="502" on="0"/>
        <pt x="371" y="708" on="0"/>
        <pt x="705" y="710" on="1"/>
        <pt x="705" y="738" on="1"/>
        <pt x="705" y="778" on="0"/>
        <pt x="690" y="842" on="0"/>
        <pt x="646" y="886" on="0"/>
        <pt x="567" y="909" on="0"/>
        <pt x="504" y="909" on="1"/>
        <pt x="445" y="909" on="0"/>
        <pt x="344" y="895" on="0"/>
        <pt x="258" y="874" on="0"/>
        <pt x="184" y="849" on="0"/>
        <pt x="153" y="837" on="1"/>
        <pt x="73" y="1007" on="1"/>
        <pt x="95" y="1026" on="0"/>
        <pt x="193" y="1080" on="0"/>
        <pt x="334" y="1131" on="0"/>
        <pt x="511" y="1167" on="0"/>
        <pt x="611" y="1167" on="1"/>
        <pt x="734" y="1167" on="0"/>
        <pt x="884" y="1123" on="0"/>
        <pt x="926" y="1076" on="1"/>
        <pt x="1062" y="1167" on="0"/>
        <pt x="1262" y="1167" on="1"/>
        <pt x="1378" y="1167" on="0"/>
        <pt x="1551" y="1109" on="0"/>
        <pt x="1667" y="1001" on="0"/>
        <pt x="1726" y="845" on="0"/>
        <pt x="1727" y="747" on="1"/>
        <pt x="1727" y="674" on="0"/>
        <pt x="1718" y="569" on="0"/>
        <pt x="1710" y="527" on="1"/>
        <pt x="1090" y="527" on="1"/>
        <pt x="1104" y="365" on="0"/>
        <pt x="1237" y="215" on="0"/>
        <pt x="1358" y="215" on="1"/>
        <pt x="1398" y="215" on="0"/>
        <pt x="1483" y="230" on="0"/>
        <pt x="1562" y="252" on="0"/>
        <pt x="1630" y="279" on="0"/>
        <pt x="1654" y="291" on="1"/>
        <pt x="1716" y="152" on="1"/>
        <pt x="1695" y="128" on="0"/>
        <pt x="1605" y="68" on="0"/>
        <pt x="1483" y="14" on="0"/>
        <pt x="1336" y="-23" on="0"/>
      </contour>
      <contour>
        <pt x="585" y="189" on="1"/>
        <pt x="631" y="189" on="0"/>
        <pt x="716" y="243" on="0"/>
        <pt x="742" y="281" on="1"/>
        <pt x="718" y="344" on="0"/>
        <pt x="696" y="486" on="0"/>
        <pt x="696" y="566" on="1"/>
        <pt x="628" y="564" on="0"/>
        <pt x="540" y="529" on="0"/>
        <pt x="488" y="473" on="0"/>
        <pt x="468" y="405" on="0"/>
        <pt x="468" y="372" on="1"/>
        <pt x="468" y="276" on="0"/>
        <pt x="532" y="189" on="0"/>
      </contour>
      <contour>
        <pt x="1231" y="1011" on="1"/>
        <pt x="1199" y="1011" on="0"/>
        <pt x="1146" y="987" on="0"/>
        <pt x="1108" y="916" on="0"/>
        <pt x="1086" y="784" on="0"/>
        <pt x="1085" y="676" on="1"/>
        <pt x="1344" y="676" on="1"/>
        <pt x="1344" y="683" on="0"/>
        <pt x="1345" y="706" on="0"/>
        <pt x="1346" y="730" on="0"/>
        <pt x="1346" y="753" on="0"/>
        <pt x="1346" y="760" on="1"/>
        <pt x="1346" y="817" on="0"/>
        <pt x="1336" y="910" on="0"/>
        <pt x="1310" y="976" on="0"/>
        <pt x="1265" y="1011" on="0"/>
      </contour>
    </TTGlyph>
    <TTGlyph name="aeacute" xMin="41" yMin="-23" xMax="1727" yMax="1855">
      <component glyphName="acute" x="540" y="0" flags="0x4"/>
      <component glyphName="ae" x="0" y="0" flags="0x4"/>
    </TTGlyph>
    <TTGlyph name="afii10017" xMin="-45" yMin="0" xMax="1494" yMax="1525">
      <component glyphName="A" x="0" y="0" flags="0x204"/>
    </TTGlyph>
    <TTGlyph name="afii10018" xMin="47" yMin="-16" xMax="1424" yMax="1522">
      <contour>
        <pt x="47" y="152" on="1"/>
        <pt x="209" y="175" on="1"/>
        <pt x="209" y="1330" on="1"/>
        <pt x="48" y="1360" on="1"/>
        <pt x="48" y="1522" on="1"/>
        <pt x="1254" y="1522" on="1"/>
        <pt x="1275" y="1085" on="1"/>
        <pt x="1047" y="1085" on="1"/>
        <pt x="984" y="1333" on="1"/>
        <pt x="622" y="1355" on="1"/>
        <pt x="622" y="878" on="1"/>
        <pt x="626" y="879" on="0"/>
        <pt x="662" y="881" on="0"/>
        <pt x="713" y="882" on="0"/>
        <pt x="773" y="884" on="0"/>
        <pt x="827" y="885" on="0"/>
        <pt x="869" y="886" on="0"/>
        <pt x="877" y="886" on="1"/>
        <pt x="1157" y="886" on="0"/>
        <pt x="1424" y="679" on="0"/>
        <pt x="1424" y="459" on="1"/>
        <pt x="1424" y="345" on="0"/>
        <pt x="1344" y="168" on="0"/>
        <pt x="1201" y="47" on="0"/>
        <pt x="1003" y="-16" on="0"/>
        <pt x="884" y="-16" on="1"/>
        <pt x="872" y="-16" on="0"/>
        <pt x="807" y="-14" on="0"/>
        <pt x="720" y="-10" on="0"/>
        <pt x="622" y="-6" on="0"/>
        <pt x="529" y="-2" on="0"/>
        <pt x="452" y="0" on="0"/>
        <pt x="431" y="0" on="1"/>
        <pt x="47" y="0" on="1"/>
      </contour>
      <contour>
        <pt x="756" y="732" on="1"/>
        <pt x="747" y="732" on="0"/>
        <pt x="705" y="731" on="0"/>
        <pt x="661" y="729" on="0"/>
        <pt x="625" y="727" on="0"/>
        <pt x="622" y="727" on="1"/>
        <pt x="622" y="160" on="1"/>
        <pt x="637" y="153" on="0"/>
        <pt x="689" y="142" on="0"/>
        <pt x="736" y="142" on="1"/>
        <pt x="817" y="142" on="0"/>
        <pt x="920" y="192" on="0"/>
        <pt x="978" y="274" on="0"/>
        <pt x="999" y="382" on="0"/>
        <pt x="999" y="439" on="1"/>
        <pt x="999" y="518" on="0"/>
        <pt x="971" y="629" on="0"/>
        <pt x="912" y="699" on="0"/>
        <pt x="820" y="732" on="0"/>
      </contour>
    </TTGlyph>
    <TTGlyph name="afii10019" xMin="60" yMin="-12" xMax="1451" yMax="1533">
      <component glyphName="B" x="0" y="0" flags="0x204"/>
    </TTGlyph>
    <TTGlyph name="afii10020" xMin="53" yMin="0" xMax="1274" yMax="1522">
      <contour>
        <pt x="687" y="176" on="1"/>
        <pt x="993" y="151" on="1"/>
        <pt x="993" y="0" on="1"/>
        <pt x="53" y="0" on="1"/>
        <pt x="53" y="152" on="1"/>
        <pt x="274" y="176" on="1"/>
        <pt x="274" y="1330" on="1"/>
        <pt x="56" y="1362" on="1"/>
        <pt x="56" y="1522" on="1"/>
        <pt x="1238" y="1522" on="1"/>
        <pt x="1274" y="890" on="1"/>
        <pt x="1042" y="890" on="1"/>
        <pt x="960" y="1329" on="1"/>
        <pt x="687" y="1355" on="1"/>
      </contour>
    </TTGlyph>
    <TTGlyph name="afii10021" xMin="32" yMin="-439" xMax="1558" yMax="1522">
      <contour>
        <pt x="32" y="-439" on="1"/>
        <pt x="33" y="-417" on="0"/>
        <pt x="34" y="-336" on="0"/>
        <pt x="36" y="-233" on="0"/>
        <pt x="38" y="-114" on="0"/>
        <pt x="41" y="7" on="0"/>
        <pt x="46" y="124" on="0"/>
        <pt x="50" y="173" on="1"/>
        <pt x="52" y="171" on="1"/>
        <pt x="53" y="176" on="1"/>
        <pt x="194" y="176" on="1"/>
        <pt x="215" y="207" on="0"/>
        <pt x="265" y="306" on="0"/>
        <pt x="317" y="443" on="0"/>
        <pt x="366" y="621" on="0"/>
        <pt x="405" y="843" on="0"/>
        <pt x="428" y="1110" on="0"/>
        <pt x="428" y="1269" on="1"/>
        <pt x="428" y="1330" on="1"/>
        <pt x="213" y="1360" on="1"/>
        <pt x="213" y="1522" on="1"/>
        <pt x="1555" y="1522" on="1"/>
        <pt x="1555" y="1360" on="1"/>
        <pt x="1356" y="1330" on="1"/>
        <pt x="1356" y="176" on="1"/>
        <pt x="1558" y="176" on="1"/>
        <pt x="1558" y="136" on="0"/>
        <pt x="1555" y="20" on="0"/>
        <pt x="1549" y="-109" on="0"/>
        <pt x="1542" y="-239" on="0"/>
        <pt x="1535" y="-348" on="0"/>
        <pt x="1528" y="-423" on="0"/>
        <pt x="1526" y="-432" on="1"/>
        <pt x="1313" y="-432" on="1"/>
        <pt x="1313" y="-414" on="0"/>
        <pt x="1302" y="-343" on="0"/>
        <pt x="1286" y="-254" on="0"/>
        <pt x="1266" y="-157" on="0"/>
        <pt x="1246" y="-73" on="0"/>
        <pt x="1226" y="-11" on="0"/>
        <pt x="1218" y="0" on="1"/>
        <pt x="370" y="0" on="1"/>
        <pt x="359" y="-12" on="0"/>
        <pt x="336" y="-72" on="0"/>
        <pt x="312" y="-152" on="0"/>
        <pt x="290" y="-244" on="0"/>
        <pt x="271" y="-334" on="0"/>
        <pt x="257" y="-413" on="0"/>
        <pt x="253" y="-439" on="1"/>
      </contour>
      <contour>
        <pt x="613" y="1257" on="1"/>
        <pt x="613" y="1039" on="0"/>
        <pt x="580" y="689" on="0"/>
        <pt x="529" y="421" on="0"/>
        <pt x="469" y="233" on="0"/>
        <pt x="443" y="176" on="1"/>
        <pt x="944" y="176" on="1"/>
        <pt x="944" y="1353" on="1"/>
        <pt x="613" y="1353" on="1"/>
      </contour>
    </TTGlyph>
    <TTGlyph name="afii10022" xMin="54" yMin="0" xMax="1342" yMax="1522">
      <component glyphName="E" x="0" y="0" flags="0x204"/>
    </TTGlyph>
    <TTGlyph name="afii10023" xMin="54" yMin="0" xMax="1342" yMax="2001">
      <component glyphName="dieresis.cap" x="191" y="0" flags="0x4"/>
      <component glyphName="E" x="0" y="0" flags="0x4"/>
    </TTGlyph>
    <TTGlyph name="afii10024" xMin="-7" yMin="0" xMax="2220" yMax="1522">
      <contour>
        <pt x="1795" y="0" on="1"/>
        <pt x="1762" y="0" on="0"/>
        <pt x="1708" y="61" on="0"/>
        <pt x="1659" y="160" on="0"/>
        <pt x="1615" y="286" on="0"/>
        <pt x="1569" y="419" on="0"/>
        <pt x="1519" y="545" on="0"/>
        <pt x="1460" y="644" on="0"/>
        <pt x="1388" y="705" on="0"/>
        <pt x="1344" y="705" on="1"/>
        <pt x="1306" y="705" on="1"/>
        <pt x="1306" y="176" on="1"/>
        <pt x="1489" y="150" on="1"/>
        <pt x="1489" y="0" on="1"/>
        <pt x="732" y="0" on="1"/>
        <pt x="732" y="152" on="1"/>
        <pt x="907" y="176" on="1"/>
        <pt x="907" y="705" on="1"/>
        <pt x="869" y="705" on="1"/>
        <pt x="825" y="705" on="0"/>
        <pt x="753" y="644" on="0"/>
        <pt x="694" y="545" on="0"/>
        <pt x="644" y="419" on="0"/>
        <pt x="598" y="286" on="0"/>
        <pt x="553" y="160" on="0"/>
        <pt x="505" y="61" on="0"/>
        <pt x="451" y="0" on="0"/>
        <pt x="418" y="0" on="1"/>
        <pt x="-7" y="0" on="1"/>
        <pt x="-7" y="152" on="1"/>
        <pt x="78" y="176" on="1"/>
        <pt x="103" y="185" on="0"/>
        <pt x="150" y="278" on="0"/>
        <pt x="205" y="411" on="0"/>
        <pt x="273" y="566" on="0"/>
        <pt x="364" y="705" on="0"/>
        <pt x="483" y="812" on="0"/>
        <pt x="562" y="831" on="1"/>
        <pt x="209" y="1330" on="1"/>
        <pt x="35" y="1360" on="1"/>
        <pt x="35" y="1522" on="1"/>
        <pt x="621" y="1522" on="1"/>
        <pt x="621" y="1360" on="1"/>
        <pt x="492" y="1332" on="1"/>
        <pt x="787" y="840" on="1"/>
        <pt x="907" y="840" on="1"/>
        <pt x="907" y="1331" on="1"/>
        <pt x="745" y="1360" on="1"/>
        <pt x="745" y="1522" on="1"/>
        <pt x="1469" y="1522" on="1"/>
        <pt x="1469" y="1360" on="1"/>
        <pt x="1306" y="1331" on="1"/>
        <pt x="1306" y="840" on="1"/>
        <pt x="1425" y="840" on="1"/>
        <pt x="1720" y="1332" on="1"/>
        <pt x="1592" y="1360" on="1"/>
        <pt x="1592" y="1522" on="1"/>
        <pt x="2184" y="1522" on="1"/>
        <pt x="2184" y="1360" on="1"/>
        <pt x="2003" y="1330" on="1"/>
        <pt x="1651" y="831" on="1"/>
        <pt x="1710" y="817" on="0"/>
        <pt x="1807" y="748" on="0"/>
        <pt x="1885" y="655" on="0"/>
        <pt x="1948" y="545" on="0"/>
        <pt x="1999" y="432" on="0"/>
        <pt x="2042" y="326" on="0"/>
        <pt x="2080" y="240" on="0"/>
        <pt x="2116" y="183" on="0"/>
        <pt x="2135" y="176" on="1"/>
        <pt x="2220" y="152" on="1"/>
        <pt x="2220" y="0" on="1"/>
      </contour>
    </TTGlyph>
    <TTGlyph name="afii10025" xMin="84" yMin="-12" xMax="1253" yMax="1538">
      <contour>
        <pt x="339" y="489" on="1"/>
        <pt x="412" y="188" on="1"/>
        <pt x="432" y="167" on="0"/>
        <pt x="516" y="130" on="0"/>
        <pt x="587" y="130" on="1"/>
        <pt x="639" y="130" on="0"/>
        <pt x="713" y="176" on="0"/>
        <pt x="761" y="258" on="0"/>
        <pt x="783" y="374" on="0"/>
        <pt x="783" y="445" on="1"/>
        <pt x="783" y="491" on="0"/>
        <pt x="763" y="586" on="0"/>
        <pt x="712" y="662" on="0"/>
        <pt x="623" y="710" on="0"/>
        <pt x="555" y="710" on="1"/>
        <pt x="431" y="710" on="1"/>
        <pt x="431" y="882" on="1"/>
        <pt x="537" y="882" on="1"/>
        <pt x="587" y="882" on="0"/>
        <pt x="676" y="912" on="0"/>
        <pt x="742" y="981" on="0"/>
        <pt x="780" y="1093" on="0"/>
        <pt x="780" y="1175" on="1"/>
        <pt x="780" y="1233" on="0"/>
        <pt x="747" y="1315" on="0"/>
        <pt x="689" y="1367" on="0"/>
        <pt x="611" y="1391" on="0"/>
        <pt x="565" y="1391" on="1"/>
        <pt x="528" y="1391" on="0"/>
        <pt x="473" y="1380" on="0"/>
        <pt x="435" y="1363" on="0"/>
        <pt x="412" y="1343" on="0"/>
        <pt x="408" y="1333" on="1"/>
        <pt x="360" y="1121" on="1"/>
        <pt x="137" y="1121" on="1"/>
        <pt x="101" y="1478" on="1"/>
        <pt x="122" y="1479" on="0"/>
        <pt x="193" y="1489" on="0"/>
        <pt x="281" y="1502" on="0"/>
        <pt x="380" y="1517" on="0"/>
        <pt x="479" y="1530" on="0"/>
        <pt x="572" y="1538" on="0"/>
        <pt x="611" y="1538" on="1"/>
        <pt x="755" y="1538" on="0"/>
        <pt x="980" y="1495" on="0"/>
        <pt x="1134" y="1407" on="0"/>
        <pt x="1214" y="1275" on="0"/>
        <pt x="1214" y="1187" on="1"/>
        <pt x="1214" y="1099" on="0"/>
        <pt x="1152" y="966" on="0"/>
        <pt x="1050" y="873" on="0"/>
        <pt x="919" y="815" on="0"/>
        <pt x="850" y="802" on="1"/>
        <pt x="947" y="799" on="0"/>
        <pt x="1097" y="748" on="0"/>
        <pt x="1200" y="659" on="0"/>
        <pt x="1253" y="537" on="0"/>
        <pt x="1253" y="462" on="1"/>
        <pt x="1253" y="355" on="0"/>
        <pt x="1189" y="180" on="0"/>
        <pt x="1032" y="56" on="0"/>
        <pt x="769" y="-12" on="0"/>
        <pt x="570" y="-12" on="1"/>
        <pt x="474" y="-12" on="0"/>
        <pt x="328" y="13" on="0"/>
        <pt x="213" y="44" on="0"/>
        <pt x="123" y="73" on="0"/>
        <pt x="84" y="76" on="1"/>
        <pt x="135" y="489" on="1"/>
      </contour>
    </TTGlyph>
    <TTGlyph name="afii10026" xMin="60" yMin="0" xMax="1702" yMax="1522">
      <contour>
        <pt x="1141" y="1290" on="1"/>
        <pt x="1141" y="1330" on="1"/>
        <pt x="979" y="1360" on="1"/>
        <pt x="979" y="1522" on="1"/>
        <pt x="1699" y="1522" on="1"/>
        <pt x="1699" y="1360" on="1"/>
        <pt x="1551" y="1330" on="1"/>
        <pt x="1551" y="176" on="1"/>
        <pt x="1702" y="152" on="1"/>
        <pt x="1702" y="0" on="1"/>
        <pt x="981" y="0" on="1"/>
        <pt x="981" y="152" on="1"/>
        <pt x="1141" y="176" on="1"/>
        <pt x="1141" y="1034" on="1"/>
        <pt x="1056" y="836" on="1"/>
        <pt x="620" y="225" on="1"/>
        <pt x="620" y="177" on="1"/>
        <pt x="791" y="152" on="1"/>
        <pt x="791" y="0" on="1"/>
        <pt x="60" y="0" on="1"/>
        <pt x="60" y="152" on="1"/>
        <pt x="209" y="175" on="1"/>
        <pt x="209" y="1331" on="1"/>
        <pt x="62" y="1360" on="1"/>
        <pt x="62" y="1522" on="1"/>
        <pt x="791" y="1522" on="1"/>
        <pt x="791" y="1361" on="1"/>
        <pt x="620" y="1330" on="1"/>
        <pt x="620" y="483" on="1"/>
        <pt x="712" y="675" on="1"/>
      </contour>
    </TTGlyph>
    <TTGlyph name="afii10027" xMin="60" yMin="0" xMax="1702" yMax="2014">
      <component glyphName="breve.rcap" x="365" y="0" flags="0x4"/>
      <component glyphName="afii10026" x="0" y="0" flags="0x4"/>
    </TTGlyph>
    <TTGlyph name="afii10028" xMin="62" yMin="0" xMax="1535" yMax="1522">
      <contour>
        <pt x="1111" y="0" on="1"/>
        <pt x="1078" y="0" on="0"/>
        <pt x="1025" y="61" on="0"/>
        <pt x="979" y="160" on="0"/>
        <pt x="937" y="286" on="0"/>
        <pt x="893" y="419" on="0"/>
        <pt x="846" y="545" on="0"/>
        <pt x="788" y="644" on="0"/>
        <pt x="718" y="705" on="0"/>
        <pt x="674" y="705" on="1"/>
        <pt x="622" y="705" on="1"/>
        <pt x="622" y="176" on="1"/>
        <pt x="806" y="150" on="1"/>
        <pt x="806" y="0" on="1"/>
        <pt x="62" y="0" on="1"/>
        <pt x="62" y="152" on="1"/>
        <pt x="209" y="176" on="1"/>
        <pt x="209" y="1330" on="1"/>
        <pt x="62" y="1360" on="1"/>
        <pt x="62" y="1522" on="1"/>
        <pt x="763" y="1522" on="1"/>
        <pt x="763" y="1360" on="1"/>
        <pt x="622" y="1330" on="1"/>
        <pt x="622" y="840" on="1"/>
        <pt x="736" y="840" on="1"/>
        <pt x="1038" y="1332" on="1"/>
        <pt x="909" y="1360" on="1"/>
        <pt x="909" y="1522" on="1"/>
        <pt x="1501" y="1522" on="1"/>
        <pt x="1501" y="1360" on="1"/>
        <pt x="1321" y="1330" on="1"/>
        <pt x="967" y="836" on="1"/>
        <pt x="1027" y="826" on="0"/>
        <pt x="1125" y="761" on="0"/>
        <pt x="1205" y="669" on="0"/>
        <pt x="1270" y="557" on="0"/>
        <pt x="1323" y="442" on="0"/>
        <pt x="1368" y="332" on="0"/>
        <pt x="1408" y="243" on="0"/>
        <pt x="1445" y="183" on="0"/>
        <pt x="1464" y="176" on="1"/>
        <pt x="1535" y="152" on="1"/>
        <pt x="1535" y="0" on="1"/>
      </contour>
    </TTGlyph>
    <TTGlyph name="afii10029" xMin="51" yMin="-15" xMax="1585" yMax="1522">
      <contour>
        <pt x="1390" y="1329" on="1"/>
        <pt x="1390" y="175" on="1"/>
        <pt x="1585" y="152" on="1"/>
        <pt x="1585" y="0" on="1"/>
        <pt x="765" y="0" on="1"/>
        <pt x="765" y="152" on="1"/>
        <pt x="982" y="176" on="1"/>
        <pt x="981" y="1329" on="1"/>
        <pt x="632" y="1329" on="1"/>
        <pt x="632" y="1201" on="1"/>
        <pt x="632" y="1101" on="0"/>
        <pt x="626" y="896" on="0"/>
        <pt x="614" y="696" on="0"/>
        <pt x="593" y="508" on="0"/>
        <pt x="564" y="341" on="0"/>
        <pt x="524" y="201" on="0"/>
        <pt x="499" y="150" on="1"/>
        <pt x="416" y="-15" on="0"/>
        <pt x="252" y="-15" on="1"/>
        <pt x="198" y="-15" on="0"/>
        <pt x="111" y="-8" on="0"/>
        <pt x="77" y="-1" on="1"/>
        <pt x="51" y="209" on="1"/>
        <pt x="73" y="207" on="0"/>
        <pt x="111" y="205" on="0"/>
        <pt x="149" y="203" on="0"/>
        <pt x="189" y="202" on="0"/>
        <pt x="214" y="202" on="1"/>
        <pt x="233" y="202" on="0"/>
        <pt x="268" y="209" on="0"/>
        <pt x="299" y="228" on="0"/>
        <pt x="326" y="264" on="0"/>
        <pt x="339" y="293" on="1"/>
        <pt x="361" y="343" on="0"/>
        <pt x="402" y="493" on="0"/>
        <pt x="434" y="721" on="0"/>
        <pt x="452" y="1042" on="0"/>
        <pt x="452" y="1263" on="1"/>
        <pt x="452" y="1329" on="1"/>
        <pt x="189" y="1360" on="1"/>
        <pt x="189" y="1522" on="1"/>
        <pt x="1577" y="1522" on="1"/>
        <pt x="1577" y="1360" on="1"/>
      </contour>
    </TTGlyph>
    <TTGlyph name="afii10030" xMin="-3" yMin="0" xMax="2181" yMax="1522">
      <component glyphName="M" x="0" y="0" flags="0x4"/>
    </TTGlyph>
    <TTGlyph name="afii10031" xMin="68" yMin="0" xMax="1666" yMax="1522">
      <component glyphName="H" x="0" y="0" flags="0x204"/>
    </TTGlyph>
    <TTGlyph name="afii10032" xMin="49" yMin="-24" xMax="1459" yMax="1543">
      <component glyphName="O" x="1" y="0" flags="0x204"/>
    </TTGlyph>
    <TTGlyph name="afii10033" xMin="58" yMin="0" xMax="1638" yMax="1522">
      <contour>
        <pt x="60" y="152" on="1"/>
        <pt x="209" y="175" on="1"/>
        <pt x="209" y="1330" on="1"/>
        <pt x="58" y="1360" on="1"/>
        <pt x="58" y="1522" on="1"/>
        <pt x="1632" y="1522" on="1"/>
        <pt x="1632" y="1361" on="1"/>
        <pt x="1480" y="1331" on="1"/>
        <pt x="1480" y="176" on="1"/>
        <pt x="1638" y="152" on="1"/>
        <pt x="1638" y="0" on="1"/>
        <pt x="930" y="0" on="1"/>
        <pt x="930" y="152" on="1"/>
        <pt x="1067" y="175" on="1"/>
        <pt x="1067" y="1354" on="1"/>
        <pt x="622" y="1354" on="1"/>
        <pt x="622" y="175" on="1"/>
        <pt x="770" y="152" on="1"/>
        <pt x="770" y="0" on="1"/>
        <pt x="60" y="0" on="1"/>
      </contour>
    </TTGlyph>
    <TTGlyph name="afii10034" xMin="60" yMin="0" xMax="1364" yMax="1533">
      <component glyphName="P" x="0" y="0" flags="0x204"/>
    </TTGlyph>
    <TTGlyph name="afii10035" xMin="46" yMin="-23" xMax="1310" yMax="1538">
      <component glyphName="C" x="0" y="0" flags="0x204"/>
    </TTGlyph>
    <TTGlyph name="afii10036" xMin="41" yMin="0" xMax="1486" yMax="1522">
      <component glyphName="T" x="10" y="0" flags="0x4"/>
    </TTGlyph>
    <TTGlyph name="afii10037" xMin="-8" yMin="-23" xMax="1396" yMax="1522">
      <contour>
        <pt x="487" y="-23" on="1"/>
        <pt x="453" y="-23" on="0"/>
        <pt x="374" y="-17" on="0"/>
        <pt x="299" y="-7" on="0"/>
        <pt x="235" y="7" on="0"/>
        <pt x="216" y="15" on="1"/>
        <pt x="216" y="216" on="1"/>
        <pt x="369" y="216" on="1"/>
        <pt x="420" y="216" on="0"/>
        <pt x="486" y="225" on="0"/>
        <pt x="527" y="247" on="0"/>
        <pt x="546" y="284" on="0"/>
        <pt x="550" y="313" on="1"/>
        <pt x="100" y="1331" on="1"/>
        <pt x="-8" y="1360" on="1"/>
        <pt x="-8" y="1522" on="1"/>
        <pt x="721" y="1522" on="1"/>
        <pt x="721" y="1360" on="1"/>
        <pt x="556" y="1330" on="1"/>
        <pt x="769" y="751" on="1"/>
        <pt x="820" y="601" on="1"/>
        <pt x="868" y="753" on="1"/>
        <pt x="1054" y="1331" on="1"/>
        <pt x="920" y="1360" on="1"/>
        <pt x="920" y="1522" on="1"/>
        <pt x="1396" y="1522" on="1"/>
        <pt x="1396" y="1360" on="1"/>
        <pt x="1291" y="1330" on="1"/>
        <pt x="918" y="331" on="1"/>
        <pt x="889" y="266" on="0"/>
        <pt x="822" y="140" on="0"/>
        <pt x="725" y="39" on="0"/>
        <pt x="586" y="-23" on="0"/>
      </contour>
    </TTGlyph>
    <TTGlyph name="afii10038" xMin="-3" yMin="-44" xMax="1820" yMax="1567">
      <contour>
        <pt x="545" y="115" on="1"/>
        <pt x="708" y="137" on="1"/>
        <pt x="708" y="270" on="1"/>
        <pt x="557" y="268" on="0"/>
        <pt x="334" y="303" on="0"/>
        <pt x="176" y="369" on="0"/>
        <pt x="75" y="462" on="0"/>
        <pt x="18" y="574" on="0"/>
        <pt x="-3" y="703" on="0"/>
        <pt x="-3" y="771" on="1"/>
        <pt x="-3" y="881" on="0"/>
        <pt x="71" y="1061" on="0"/>
        <pt x="239" y="1188" on="0"/>
        <pt x="510" y="1260" on="0"/>
        <pt x="708" y="1262" on="1"/>
        <pt x="708" y="1380" on="1"/>
        <pt x="542" y="1413" on="1"/>
        <pt x="542" y="1567" on="1"/>
        <pt x="1267" y="1567" on="1"/>
        <pt x="1267" y="1413" on="1"/>
        <pt x="1108" y="1381" on="1"/>
        <pt x="1108" y="1264" on="1"/>
        <pt x="1262" y="1265" on="0"/>
        <pt x="1487" y="1230" on="0"/>
        <pt x="1645" y="1165" on="0"/>
        <pt x="1744" y="1072" on="0"/>
        <pt x="1800" y="959" on="0"/>
        <pt x="1820" y="829" on="0"/>
        <pt x="1820" y="759" on="1"/>
        <pt x="1820" y="649" on="0"/>
        <pt x="1735" y="468" on="0"/>
        <pt x="1560" y="338" on="0"/>
        <pt x="1292" y="267" on="0"/>
        <pt x="1108" y="269" on="1"/>
        <pt x="1108" y="134" on="1"/>
        <pt x="1271" y="115" on="1"/>
        <pt x="1271" y="-44" on="1"/>
        <pt x="545" y="-44" on="1"/>
      </contour>
      <contour>
        <pt x="1394" y="757" on="1"/>
        <pt x="1394" y="822" on="0"/>
        <pt x="1374" y="945" on="0"/>
        <pt x="1313" y="1047" on="0"/>
        <pt x="1200" y="1119" on="0"/>
        <pt x="1108" y="1132" on="1"/>
        <pt x="1108" y="389" on="1"/>
        <pt x="1202" y="396" on="0"/>
        <pt x="1315" y="453" on="0"/>
        <pt x="1375" y="549" on="0"/>
        <pt x="1394" y="678" on="0"/>
      </contour>
      <contour>
        <pt x="424" y="780" on="1"/>
        <pt x="424" y="716" on="0"/>
        <pt x="444" y="590" on="0"/>
        <pt x="505" y="484" on="0"/>
        <pt x="617" y="408" on="0"/>
        <pt x="708" y="395" on="1"/>
        <pt x="708" y="1139" on="1"/>
        <pt x="615" y="1133" on="0"/>
        <pt x="503" y="1078" on="0"/>
        <pt x="443" y="985" on="0"/>
        <pt x="424" y="858" on="0"/>
      </contour>
    </TTGlyph>
    <TTGlyph name="afii10039" xMin="10" yMin="0" xMax="1498" yMax="1522">
      <component glyphName="X" x="0" y="0" flags="0x204"/>
    </TTGlyph>
    <TTGlyph name="afii10040" xMin="53" yMin="-432" xMax="1704" yMax="1522">
      <contour>
        <pt x="1439" y="-432" on="1"/>
        <pt x="1439" y="-414" on="0"/>
        <pt x="1432" y="-346" on="0"/>
        <pt x="1420" y="-260" on="0"/>
        <pt x="1405" y="-167" on="0"/>
        <pt x="1389" y="-82" on="0"/>
        <pt x="1372" y="-16" on="0"/>
        <pt x="1364" y="0" on="1"/>
        <pt x="53" y="0" on="1"/>
        <pt x="53" y="152" on="1"/>
        <pt x="209" y="176" on="1"/>
        <pt x="209" y="1331" on="1"/>
        <pt x="60" y="1360" on="1"/>
        <pt x="60" y="1522" on="1"/>
        <pt x="792" y="1522" on="1"/>
        <pt x="792" y="1360" on="1"/>
        <pt x="622" y="1330" on="1"/>
        <pt x="622" y="158" on="1"/>
        <pt x="1065" y="158" on="1"/>
        <pt x="1065" y="1331" on="1"/>
        <pt x="920" y="1360" on="1"/>
        <pt x="920" y="1522" on="1"/>
        <pt x="1628" y="1522" on="1"/>
        <pt x="1628" y="1360" on="1"/>
        <pt x="1478" y="1331" on="1"/>
        <pt x="1478" y="176" on="1"/>
        <pt x="1704" y="176" on="1"/>
        <pt x="1704" y="136" on="0"/>
        <pt x="1698" y="20" on="0"/>
        <pt x="1688" y="-109" on="0"/>
        <pt x="1676" y="-239" on="0"/>
        <pt x="1664" y="-348" on="0"/>
        <pt x="1654" y="-423" on="0"/>
        <pt x="1652" y="-432" on="1"/>
        <pt x="1439" y="-432" on="1"/>
      </contour>
    </TTGlyph>
    <TTGlyph name="afii10041" xMin="25" yMin="0" xMax="1511" yMax="1522">
      <contour>
        <pt x="726" y="152" on="1"/>
        <pt x="947" y="176" on="1"/>
        <pt x="947" y="618" on="1"/>
        <pt x="911" y="595" on="0"/>
        <pt x="826" y="563" on="0"/>
        <pt x="735" y="543" on="0"/>
        <pt x="642" y="533" on="0"/>
        <pt x="600" y="533" on="1"/>
        <pt x="487" y="533" on="0"/>
        <pt x="314" y="574" on="0"/>
        <pt x="196" y="677" on="0"/>
        <pt x="136" y="854" on="0"/>
        <pt x="136" y="991" on="1"/>
        <pt x="136" y="1329" on="1"/>
        <pt x="25" y="1360" on="1"/>
        <pt x="25" y="1522" on="1"/>
        <pt x="676" y="1522" on="1"/>
        <pt x="676" y="1360" on="1"/>
        <pt x="551" y="1331" on="1"/>
        <pt x="551" y="1072" on="1"/>
        <pt x="551" y="964" on="0"/>
        <pt x="570" y="833" on="0"/>
        <pt x="615" y="763" on="0"/>
        <pt x="691" y="741" on="0"/>
        <pt x="748" y="741" on="1"/>
        <pt x="810" y="741" on="0"/>
        <pt x="918" y="775" on="0"/>
        <pt x="947" y="802" on="1"/>
        <pt x="947" y="1332" on="1"/>
        <pt x="797" y="1360" on="1"/>
        <pt x="797" y="1522" on="1"/>
        <pt x="1511" y="1522" on="1"/>
        <pt x="1511" y="1360" on="1"/>
        <pt x="1359" y="1330" on="1"/>
        <pt x="1359" y="176" on="1"/>
        <pt x="1511" y="150" on="1"/>
        <pt x="1511" y="0" on="1"/>
        <pt x="726" y="0" on="1"/>
      </contour>
    </TTGlyph>
    <TTGlyph name="afii10042" xMin="53" yMin="0" xMax="2393" yMax="1522">
      <contour>
        <pt x="622" y="1331" on="1"/>
        <pt x="622" y="175" on="1"/>
        <pt x="1019" y="175" on="1"/>
        <pt x="1019" y="1332" on="1"/>
        <pt x="876" y="1360" on="1"/>
        <pt x="876" y="1522" on="1"/>
        <pt x="1576" y="1522" on="1"/>
        <pt x="1576" y="1360" on="1"/>
        <pt x="1431" y="1331" on="1"/>
        <pt x="1431" y="175" on="1"/>
        <pt x="1825" y="175" on="1"/>
        <pt x="1825" y="1330" on="1"/>
        <pt x="1684" y="1360" on="1"/>
        <pt x="1684" y="1522" on="1"/>
        <pt x="2386" y="1522" on="1"/>
        <pt x="2386" y="1360" on="1"/>
        <pt x="2236" y="1331" on="1"/>
        <pt x="2236" y="175" on="1"/>
        <pt x="2393" y="152" on="1"/>
        <pt x="2393" y="0" on="1"/>
        <pt x="53" y="0" on="1"/>
        <pt x="53" y="152" on="1"/>
        <pt x="209" y="177" on="1"/>
        <pt x="209" y="1331" on="1"/>
        <pt x="60" y="1360" on="1"/>
        <pt x="60" y="1522" on="1"/>
        <pt x="764" y="1522" on="1"/>
        <pt x="764" y="1360" on="1"/>
      </contour>
    </TTGlyph>
    <TTGlyph name="afii10043" xMin="53" yMin="-432" xMax="2477" yMax="1522">
      <contour>
        <pt x="53" y="152" on="1"/>
        <pt x="209" y="177" on="1"/>
        <pt x="209" y="1331" on="1"/>
        <pt x="60" y="1360" on="1"/>
        <pt x="60" y="1522" on="1"/>
        <pt x="764" y="1522" on="1"/>
        <pt x="764" y="1360" on="1"/>
        <pt x="622" y="1331" on="1"/>
        <pt x="622" y="175" on="1"/>
        <pt x="1019" y="175" on="1"/>
        <pt x="1019" y="1332" on="1"/>
        <pt x="876" y="1360" on="1"/>
        <pt x="876" y="1522" on="1"/>
        <pt x="1576" y="1522" on="1"/>
        <pt x="1576" y="1360" on="1"/>
        <pt x="1431" y="1331" on="1"/>
        <pt x="1431" y="175" on="1"/>
        <pt x="1825" y="175" on="1"/>
        <pt x="1825" y="1330" on="1"/>
        <pt x="1684" y="1360" on="1"/>
        <pt x="1684" y="1522" on="1"/>
        <pt x="2386" y="1522" on="1"/>
        <pt x="2386" y="1360" on="1"/>
        <pt x="2236" y="1331" on="1"/>
        <pt x="2236" y="176" on="1"/>
        <pt x="2477" y="176" on="1"/>
        <pt x="2477" y="136" on="0"/>
        <pt x="2471" y="20" on="0"/>
        <pt x="2461" y="-109" on="0"/>
        <pt x="2449" y="-239" on="0"/>
        <pt x="2437" y="-348" on="0"/>
        <pt x="2427" y="-423" on="0"/>
        <pt x="2425" y="-432" on="1"/>
        <pt x="2212" y="-432" on="1"/>
        <pt x="2212" y="-414" on="0"/>
        <pt x="2205" y="-346" on="0"/>
        <pt x="2193" y="-260" on="0"/>
        <pt x="2178" y="-167" on="0"/>
        <pt x="2162" y="-82" on="0"/>
        <pt x="2145" y="-16" on="0"/>
        <pt x="2137" y="0" on="1"/>
        <pt x="53" y="0" on="1"/>
      </contour>
    </TTGlyph>
    <TTGlyph name="afii10044" xMin="39" yMin="-16" xMax="1765" yMax="1522">
      <contour>
        <pt x="258" y="0" on="1"/>
        <pt x="258" y="152" on="1"/>
        <pt x="565" y="176" on="1"/>
        <pt x="565" y="1358" on="1"/>
        <pt x="353" y="1332" on="1"/>
        <pt x="271" y="877" on="1"/>
        <pt x="39" y="877" on="1"/>
        <pt x="75" y="1522" on="1"/>
        <pt x="1218" y="1522" on="1"/>
        <pt x="1218" y="1368" on="1"/>
        <pt x="978" y="1329" on="1"/>
        <pt x="978" y="893" on="1"/>
        <pt x="1226" y="893" on="1"/>
        <pt x="1369" y="893" on="0"/>
        <pt x="1573" y="836" on="0"/>
        <pt x="1704" y="726" on="0"/>
        <pt x="1765" y="568" on="0"/>
        <pt x="1765" y="466" on="1"/>
        <pt x="1765" y="352" on="0"/>
        <pt x="1694" y="173" on="0"/>
        <pt x="1557" y="49" on="0"/>
        <pt x="1357" y="-16" on="0"/>
        <pt x="1228" y="-16" on="1"/>
        <pt x="1216" y="-16" on="0"/>
        <pt x="1153" y="-14" on="0"/>
        <pt x="1069" y="-10" on="0"/>
        <pt x="973" y="-6" on="0"/>
        <pt x="883" y="-2" on="0"/>
        <pt x="808" y="0" on="0"/>
        <pt x="787" y="0" on="1"/>
      </contour>
      <contour>
        <pt x="978" y="725" on="1"/>
        <pt x="978" y="158" on="1"/>
        <pt x="1001" y="150" on="0"/>
        <pt x="1060" y="142" on="0"/>
        <pt x="1095" y="142" on="1"/>
        <pt x="1170" y="142" on="0"/>
        <pt x="1265" y="192" on="0"/>
        <pt x="1319" y="274" on="0"/>
        <pt x="1339" y="382" on="0"/>
        <pt x="1339" y="439" on="1"/>
        <pt x="1339" y="516" on="0"/>
        <pt x="1314" y="625" on="0"/>
        <pt x="1260" y="694" on="0"/>
        <pt x="1177" y="725" on="0"/>
        <pt x="1119" y="725" on="1"/>
      </contour>
    </TTGlyph>
    <TTGlyph name="afii10045" xMin="60" yMin="-16" xMax="2149" yMax="1522">
      <component glyphName="I" x="1344" y="0" flags="0x4"/>
      <component glyphName="afii10046" x="0" y="0" flags="0x4"/>
    </TTGlyph>
    <TTGlyph name="afii10046" xMin="60" yMin="-16" xMax="1408" yMax="1522">
      <contour>
        <pt x="60" y="0" on="1"/>
        <pt x="60" y="152" on="1"/>
        <pt x="209" y="175" on="1"/>
        <pt x="209" y="1333" on="1"/>
        <pt x="62" y="1365" on="1"/>
        <pt x="62" y="1522" on="1"/>
        <pt x="845" y="1522" on="1"/>
        <pt x="845" y="1365" on="1"/>
        <pt x="622" y="1332" on="1"/>
        <pt x="622" y="907" on="1"/>
        <pt x="626" y="908" on="0"/>
        <pt x="663" y="909" on="0"/>
        <pt x="717" y="911" on="0"/>
        <pt x="779" y="912" on="0"/>
        <pt x="835" y="913" on="0"/>
        <pt x="878" y="914" on="0"/>
        <pt x="886" y="914" on="1"/>
        <pt x="1021" y="914" on="0"/>
        <pt x="1218" y="852" on="0"/>
        <pt x="1346" y="738" on="0"/>
        <pt x="1408" y="575" on="0"/>
        <pt x="1408" y="473" on="1"/>
        <pt x="1408" y="359" on="0"/>
        <pt x="1321" y="178" on="0"/>
        <pt x="1171" y="51" on="0"/>
        <pt x="969" y="-16" on="0"/>
        <pt x="855" y="-16" on="1"/>
        <pt x="796" y="-16" on="0"/>
        <pt x="688" y="-11" on="0"/>
        <pt x="574" y="-5" on="0"/>
        <pt x="450" y="0" on="0"/>
        <pt x="377" y="0" on="1"/>
      </contour>
      <contour>
        <pt x="762" y="753" on="1"/>
        <pt x="756" y="753" on="0"/>
        <pt x="713" y="752" on="0"/>
        <pt x="665" y="750" on="0"/>
        <pt x="625" y="748" on="0"/>
        <pt x="622" y="747" on="1"/>
        <pt x="622" y="158" on="1"/>
        <pt x="645" y="150" on="0"/>
        <pt x="703" y="142" on="0"/>
        <pt x="738" y="142" on="1"/>
        <pt x="813" y="142" on="0"/>
        <pt x="908" y="196" on="0"/>
        <pt x="962" y="285" on="0"/>
        <pt x="981" y="396" on="0"/>
        <pt x="981" y="453" on="1"/>
        <pt x="981" y="608" on="0"/>
        <pt x="879" y="753" on="0"/>
      </contour>
    </TTGlyph>
    <TTGlyph name="afii10047" xMin="76" yMin="-23" xMax="1365" yMax="1538">
      <contour>
        <pt x="365" y="891" on="1"/>
        <pt x="904" y="877" on="1"/>
        <pt x="893" y="984" on="0"/>
        <pt x="841" y="1169" on="0"/>
        <pt x="761" y="1304" on="0"/>
        <pt x="652" y="1381" on="0"/>
        <pt x="584" y="1381" on="1"/>
        <pt x="540" y="1381" on="0"/>
        <pt x="478" y="1368" on="0"/>
        <pt x="437" y="1348" on="0"/>
        <pt x="413" y="1325" on="0"/>
        <pt x="406" y="1315" on="1"/>
        <pt x="327" y="1079" on="1"/>
        <pt x="92" y="1075" on="1"/>
        <pt x="76" y="1460" on="1"/>
        <pt x="121" y="1463" on="0"/>
        <pt x="221" y="1488" on="0"/>
        <pt x="349" y="1516" on="0"/>
        <pt x="512" y="1538" on="0"/>
        <pt x="622" y="1538" on="1"/>
        <pt x="805" y="1538" on="0"/>
        <pt x="1082" y="1425" on="0"/>
        <pt x="1270" y="1221" on="0"/>
        <pt x="1365" y="938" on="0"/>
        <pt x="1365" y="768" on="1"/>
        <pt x="1365" y="579" on="0"/>
        <pt x="1253" y="285" on="0"/>
        <pt x="1041" y="83" on="0"/>
        <pt x="736" y="-23" on="0"/>
        <pt x="544" y="-23" on="1"/>
        <pt x="460" y="-23" on="0"/>
        <pt x="329" y="-3" on="0"/>
        <pt x="221" y="21" on="0"/>
        <pt x="130" y="43" on="0"/>
        <pt x="86" y="45" on="1"/>
        <pt x="95" y="461" on="1"/>
        <pt x="365" y="469" on="1"/>
        <pt x="436" y="194" on="1"/>
        <pt x="443" y="183" on="0"/>
        <pt x="459" y="160" on="0"/>
        <pt x="486" y="141" on="0"/>
        <pt x="530" y="129" on="0"/>
        <pt x="565" y="129" on="1"/>
        <pt x="642" y="129" on="0"/>
        <pt x="767" y="195" on="0"/>
        <pt x="856" y="331" on="0"/>
        <pt x="907" y="540" on="0"/>
        <pt x="910" y="683" on="1"/>
        <pt x="365" y="668" on="1"/>
      </contour>
    </TTGlyph>
    <TTGlyph name="afii10048" xMin="59" yMin="-21" xMax="2261" yMax="1543">
      <contour>
        <pt x="1563" y="-21" on="1"/>
        <pt x="1386" y="-21" on="0"/>
        <pt x="1132" y="76" on="0"/>
        <pt x="967" y="257" on="0"/>
        <pt x="883" y="514" on="0"/>
        <pt x="876" y="673" on="1"/>
        <pt x="624" y="673" on="1"/>
        <pt x="624" y="176" on="1"/>
        <pt x="788" y="152" on="1"/>
        <pt x="788" y="0" on="1"/>
        <pt x="59" y="0" on="1"/>
        <pt x="59" y="152" on="1"/>
        <pt x="209" y="176" on="1"/>
        <pt x="209" y="1330" on="1"/>
        <pt x="62" y="1360" on="1"/>
        <pt x="62" y="1522" on="1"/>
        <pt x="784" y="1522" on="1"/>
        <pt x="784" y="1360" on="1"/>
        <pt x="624" y="1330" on="1"/>
        <pt x="624" y="871" on="1"/>
        <pt x="879" y="871" on="1"/>
        <pt x="894" y="1029" on="0"/>
        <pt x="1004" y="1279" on="0"/>
        <pt x="1184" y="1452" on="0"/>
        <pt x="1428" y="1543" on="0"/>
        <pt x="1577" y="1543" on="1"/>
        <pt x="1764" y="1542" on="0"/>
        <pt x="2025" y="1439" on="0"/>
        <pt x="2188" y="1245" on="0"/>
        <pt x="2261" y="966" on="0"/>
        <pt x="2260" y="790" on="1"/>
        <pt x="2259" y="606" on="0"/>
        <pt x="2163" y="307" on="0"/>
        <pt x="1984" y="95" on="0"/>
        <pt x="1726" y="-21" on="0"/>
      </contour>
      <contour>
        <pt x="1572" y="129" on="1"/>
        <pt x="1692" y="129" on="0"/>
        <pt x="1804" y="466" on="0"/>
        <pt x="1804" y="789" on="1"/>
        <pt x="1804" y="962" on="0"/>
        <pt x="1773" y="1194" on="0"/>
        <pt x="1713" y="1333" on="0"/>
        <pt x="1625" y="1392" on="0"/>
        <pt x="1568" y="1392" on="1"/>
        <pt x="1449" y="1392" on="0"/>
        <pt x="1330" y="1086" on="0"/>
        <pt x="1330" y="761" on="1"/>
        <pt x="1330" y="588" on="0"/>
        <pt x="1362" y="347" on="0"/>
        <pt x="1424" y="197" on="0"/>
        <pt x="1514" y="129" on="0"/>
      </contour>
    </TTGlyph>
    <TTGlyph name="afii10049" xMin="5" yMin="0" xMax="1474" yMax="1534">
      <contour>
        <pt x="5" y="152" on="1"/>
        <pt x="71" y="175" on="1"/>
        <pt x="97" y="183" on="0"/>
        <pt x="137" y="256" on="0"/>
        <pt x="177" y="361" on="0"/>
        <pt x="224" y="484" on="0"/>
        <pt x="290" y="598" on="0"/>
        <pt x="382" y="690" on="0"/>
        <pt x="448" y="712" on="1"/>
        <pt x="370" y="731" on="0"/>
        <pt x="256" y="815" on="0"/>
        <pt x="182" y="927" on="0"/>
        <pt x="146" y="1057" on="0"/>
        <pt x="146" y="1120" on="1"/>
        <pt x="146" y="1221" on="0"/>
        <pt x="205" y="1376" on="0"/>
        <pt x="343" y="1481" on="0"/>
        <pt x="568" y="1534" on="0"/>
        <pt x="735" y="1534" on="1"/>
        <pt x="800" y="1534" on="0"/>
        <pt x="897" y="1530" on="0"/>
        <pt x="983" y="1526" on="0"/>
        <pt x="1066" y="1522" on="0"/>
        <pt x="1118" y="1522" on="1"/>
        <pt x="1467" y="1522" on="1"/>
        <pt x="1467" y="1360" on="1"/>
        <pt x="1317" y="1330" on="1"/>
        <pt x="1317" y="175" on="1"/>
        <pt x="1474" y="152" on="1"/>
        <pt x="1474" y="0" on="1"/>
        <pt x="732" y="0" on="1"/>
        <pt x="731" y="152" on="1"/>
        <pt x="903" y="175" on="1"/>
        <pt x="903" y="636" on="1"/>
        <pt x="894" y="635" on="0"/>
        <pt x="855" y="635" on="0"/>
        <pt x="805" y="637" on="0"/>
        <pt x="750" y="638" on="0"/>
        <pt x="725" y="639" on="1"/>
        <pt x="689" y="620" on="0"/>
        <pt x="632" y="511" on="0"/>
        <pt x="584" y="369" on="0"/>
        <pt x="544" y="214" on="0"/>
        <pt x="507" y="84" on="0"/>
        <pt x="470" y="0" on="0"/>
        <pt x="450" y="0" on="1"/>
        <pt x="5" y="0" on="1"/>
      </contour>
      <contour>
        <pt x="903" y="1376" on="1"/>
        <pt x="890" y="1379" on="0"/>
        <pt x="845" y="1385" on="0"/>
        <pt x="796" y="1385" on="1"/>
        <pt x="748" y="1385" on="0"/>
        <pt x="669" y="1359" on="0"/>
        <pt x="613" y="1297" on="0"/>
        <pt x="582" y="1193" on="0"/>
        <pt x="582" y="1114" on="1"/>
        <pt x="582" y="942" on="0"/>
        <pt x="692" y="782" on="0"/>
        <pt x="801" y="782" on="1"/>
        <pt x="810" y="782" on="0"/>
        <pt x="840" y="783" on="0"/>
        <pt x="870" y="784" on="0"/>
        <pt x="896" y="787" on="0"/>
        <pt x="903" y="790" on="1"/>
      </contour>
    </TTGlyph>
    <TTGlyph name="afii10050" xMin="28" yMin="0" xMax="1158" yMax="1881">
      <contour>
        <pt x="29" y="1522" on="1"/>
        <pt x="876" y="1522" on="1"/>
        <pt x="962" y="1881" on="1"/>
        <pt x="1158" y="1881" on="1"/>
        <pt x="1138" y="1331" on="1"/>
        <pt x="648" y="1348" on="1"/>
        <pt x="648" y="176" on="1"/>
        <pt x="954" y="152" on="1"/>
        <pt x="954" y="0" on="1"/>
        <pt x="28" y="0" on="1"/>
        <pt x="28" y="152" on="1"/>
        <pt x="234" y="177" on="1"/>
        <pt x="234" y="1331" on="1"/>
        <pt x="29" y="1362" on="1"/>
      </contour>
    </TTGlyph>
    <TTGlyph name="afii10051" xMin="41" yMin="-425" xMax="1843" yMax="1522">
      <contour>
        <pt x="1014" y="-220" on="1"/>
        <pt x="1023" y="-223" on="0"/>
        <pt x="1047" y="-231" on="0"/>
        <pt x="1085" y="-237" on="0"/>
        <pt x="1142" y="-242" on="0"/>
        <pt x="1184" y="-242" on="1"/>
        <pt x="1300" y="-242" on="0"/>
        <pt x="1420" y="23" on="0"/>
        <pt x="1420" y="285" on="1"/>
        <pt x="1420" y="395" on="0"/>
        <pt x="1396" y="550" on="0"/>
        <pt x="1343" y="647" on="0"/>
        <pt x="1259" y="692" on="0"/>
        <pt x="1199" y="692" on="1"/>
        <pt x="1119" y="692" on="0"/>
        <pt x="999" y="650" on="0"/>
        <pt x="969" y="623" on="1"/>
        <pt x="969" y="187" on="1"/>
        <pt x="1247" y="158" on="1"/>
        <pt x="1247" y="0" on="1"/>
        <pt x="260" y="0" on="1"/>
        <pt x="260" y="158" on="1"/>
        <pt x="555" y="187" on="1"/>
        <pt x="555" y="1358" on="1"/>
        <pt x="322" y="1332" on="1"/>
        <pt x="257" y="1023" on="1"/>
        <pt x="41" y="1023" on="1"/>
        <pt x="69" y="1522" on="1"/>
        <pt x="1518" y="1522" on="1"/>
        <pt x="1555" y="1023" on="1"/>
        <pt x="1336" y="1023" on="1"/>
        <pt x="1264" y="1332" on="1"/>
        <pt x="969" y="1358" on="1"/>
        <pt x="969" y="802" on="1"/>
        <pt x="987" y="813" on="0"/>
        <pt x="1061" y="842" on="0"/>
        <pt x="1153" y="867" on="0"/>
        <pt x="1252" y="885" on="0"/>
        <pt x="1294" y="885" on="1"/>
        <pt x="1416" y="885" on="0"/>
        <pt x="1618" y="834" on="0"/>
        <pt x="1763" y="710" on="0"/>
        <pt x="1843" y="502" on="0"/>
        <pt x="1843" y="345" on="1"/>
        <pt x="1843" y="163" on="0"/>
        <pt x="1754" y="-123" on="0"/>
        <pt x="1595" y="-321" on="0"/>
        <pt x="1377" y="-425" on="0"/>
        <pt x="1247" y="-425" on="1"/>
        <pt x="1161" y="-425" on="0"/>
        <pt x="1057" y="-397" on="0"/>
        <pt x="1033" y="-387" on="1"/>
        <pt x="1014" y="-220" on="1"/>
      </contour>
    </TTGlyph>
    <TTGlyph name="afii10052" xMin="53" yMin="0" xMax="1274" yMax="2014">
      <component glyphName="acute.cap" x="107" y="0" flags="0x4"/>
      <component glyphName="afii10020" x="0" y="0" flags="0x4"/>
    </TTGlyph>
    <TTGlyph name="afii10053" xMin="46" yMin="-23" xMax="1332" yMax="1538">
      <contour>
        <pt x="505" y="671" on="1"/>
        <pt x="514" y="558" on="0"/>
        <pt x="563" y="363" on="0"/>
        <pt x="644" y="217" on="0"/>
        <pt x="755" y="134" on="0"/>
        <pt x="826" y="134" on="1"/>
        <pt x="870" y="134" on="0"/>
        <pt x="933" y="145" on="0"/>
        <pt x="976" y="163" on="0"/>
        <pt x="1002" y="184" on="0"/>
        <pt x="1009" y="193" on="1"/>
        <pt x="1097" y="435" on="1"/>
        <pt x="1325" y="433" on="1"/>
        <pt x="1327" y="56" on="1"/>
        <pt x="1282" y="53" on="0"/>
        <pt x="1183" y="27" on="0"/>
        <pt x="1057" y="-1" on="0"/>
        <pt x="895" y="-23" on="0"/>
        <pt x="787" y="-23" on="1"/>
        <pt x="602" y="-23" on="0"/>
        <pt x="325" y="90" on="0"/>
        <pt x="139" y="293" on="0"/>
        <pt x="46" y="575" on="0"/>
        <pt x="46" y="745" on="1"/>
        <pt x="46" y="934" on="0"/>
        <pt x="161" y="1229" on="0"/>
        <pt x="375" y="1432" on="0"/>
        <pt x="682" y="1538" on="0"/>
        <pt x="874" y="1538" on="1"/>
        <pt x="952" y="1538" on="0"/>
        <pt x="1083" y="1521" on="0"/>
        <pt x="1196" y="1499" on="0"/>
        <pt x="1291" y="1478" on="0"/>
        <pt x="1332" y="1474" on="1"/>
        <pt x="1305" y="1039" on="1"/>
        <pt x="1033" y="1039" on="1"/>
        <pt x="972" y="1329" on="1"/>
        <pt x="964" y="1339" on="0"/>
        <pt x="950" y="1360" on="0"/>
        <pt x="926" y="1376" on="0"/>
        <pt x="887" y="1386" on="0"/>
        <pt x="854" y="1386" on="1"/>
        <pt x="779" y="1386" on="0"/>
        <pt x="655" y="1326" on="0"/>
        <pt x="563" y="1198" on="0"/>
        <pt x="508" y="1001" on="0"/>
        <pt x="502" y="865" on="1"/>
        <pt x="1033" y="880" on="1"/>
        <pt x="1033" y="657" on="1"/>
      </contour>
    </TTGlyph>
    <TTGlyph name="afii10054" xMin="103" yMin="-23" xMax="1229" yMax="1543">
      <component glyphName="S" x="0" y="0" flags="0x204"/>
    </TTGlyph>
    <TTGlyph name="afii10055" xMin="71" yMin="0" xMax="805" yMax="1522">
      <component glyphName="I" x="0" y="0" flags="0x204"/>
    </TTGlyph>
    <TTGlyph name="afii10057" xMin="-49" yMin="-411" xMax="800" yMax="1522">
      <component glyphName="J" x="0" y="0" flags="0x4"/>
    </TTGlyph>
    <TTGlyph name="afii10058" xMin="51" yMin="-16" xMax="2173" yMax="1522">
      <contour>
        <pt x="765" y="0" on="1"/>
        <pt x="765" y="152" on="1"/>
        <pt x="982" y="176" on="1"/>
        <pt x="981" y="1329" on="1"/>
        <pt x="632" y="1329" on="1"/>
        <pt x="632" y="1201" on="1"/>
        <pt x="632" y="1101" on="0"/>
        <pt x="625" y="897" on="0"/>
        <pt x="610" y="699" on="0"/>
        <pt x="587" y="512" on="0"/>
        <pt x="556" y="347" on="0"/>
        <pt x="515" y="208" on="0"/>
        <pt x="490" y="157" on="1"/>
        <pt x="448" y="74" on="0"/>
        <pt x="336" y="-15" on="0"/>
        <pt x="252" y="-15" on="1"/>
        <pt x="198" y="-15" on="0"/>
        <pt x="111" y="-8" on="0"/>
        <pt x="77" y="-1" on="1"/>
        <pt x="51" y="206" on="1"/>
        <pt x="73" y="204" on="0"/>
        <pt x="111" y="202" on="0"/>
        <pt x="149" y="200" on="0"/>
        <pt x="189" y="199" on="0"/>
        <pt x="214" y="199" on="1"/>
        <pt x="233" y="199" on="0"/>
        <pt x="268" y="206" on="0"/>
        <pt x="299" y="225" on="0"/>
        <pt x="326" y="261" on="0"/>
        <pt x="339" y="290" on="1"/>
        <pt x="361" y="340" on="0"/>
        <pt x="402" y="495" on="0"/>
        <pt x="434" y="717" on="0"/>
        <pt x="452" y="1013" on="0"/>
        <pt x="452" y="1204" on="1"/>
        <pt x="452" y="1331" on="1"/>
        <pt x="202" y="1360" on="1"/>
        <pt x="202" y="1522" on="1"/>
        <pt x="1390" y="1522" on="1"/>
        <pt x="1390" y="1519" on="1"/>
        <pt x="1391" y="1522" on="1"/>
        <pt x="1578" y="1522" on="1"/>
        <pt x="1578" y="1360" on="1"/>
        <pt x="1390" y="1329" on="1"/>
        <pt x="1390" y="853" on="1"/>
        <pt x="1391" y="855" on="1"/>
        <pt x="1403" y="857" on="0"/>
        <pt x="1466" y="864" on="0"/>
        <pt x="1543" y="870" on="0"/>
        <pt x="1623" y="874" on="0"/>
        <pt x="1651" y="874" on="1"/>
        <pt x="1786" y="874" on="0"/>
        <pt x="1983" y="818" on="0"/>
        <pt x="2111" y="711" on="0"/>
        <pt x="2173" y="555" on="0"/>
        <pt x="2173" y="456" on="1"/>
        <pt x="2173" y="345" on="0"/>
        <pt x="2102" y="169" on="0"/>
        <pt x="1966" y="48" on="0"/>
        <pt x="1767" y="-16" on="0"/>
        <pt x="1639" y="-16" on="1"/>
        <pt x="1627" y="-16" on="0"/>
        <pt x="1564" y="-14" on="0"/>
        <pt x="1480" y="-10" on="0"/>
        <pt x="1385" y="-6" on="0"/>
        <pt x="1295" y="-2" on="0"/>
        <pt x="1220" y="0" on="0"/>
        <pt x="1199" y="0" on="1"/>
      </contour>
      <contour>
        <pt x="1390" y="695" on="1"/>
        <pt x="1390" y="159" on="1"/>
        <pt x="1391" y="160" on="1"/>
        <pt x="1413" y="152" on="0"/>
        <pt x="1469" y="142" on="0"/>
        <pt x="1505" y="142" on="1"/>
        <pt x="1580" y="142" on="0"/>
        <pt x="1675" y="191" on="0"/>
        <pt x="1729" y="271" on="0"/>
        <pt x="1748" y="374" on="0"/>
        <pt x="1748" y="429" on="1"/>
        <pt x="1748" y="504" on="0"/>
        <pt x="1723" y="609" on="0"/>
        <pt x="1671" y="676" on="0"/>
        <pt x="1587" y="706" on="0"/>
        <pt x="1529" y="706" on="1"/>
        <pt x="1513" y="706" on="0"/>
        <pt x="1472" y="704" on="0"/>
        <pt x="1433" y="700" on="0"/>
        <pt x="1400" y="696" on="0"/>
        <pt x="1391" y="695" on="1"/>
      </contour>
    </TTGlyph>
    <TTGlyph name="afii10059" xMin="60" yMin="-17" xMax="2295" yMax="1522">
      <contour>
        <pt x="940" y="158" on="1"/>
        <pt x="1100" y="187" on="1"/>
        <pt x="1100" y="681" on="1"/>
        <pt x="622" y="681" on="1"/>
        <pt x="622" y="186" on="1"/>
        <pt x="793" y="158" on="1"/>
        <pt x="793" y="0" on="1"/>
        <pt x="60" y="0" on="1"/>
        <pt x="60" y="152" on="1"/>
        <pt x="209" y="175" on="1"/>
        <pt x="209" y="1331" on="1"/>
        <pt x="62" y="1360" on="1"/>
        <pt x="62" y="1522" on="1"/>
        <pt x="793" y="1522" on="1"/>
        <pt x="793" y="1360" on="1"/>
        <pt x="622" y="1330" on="1"/>
        <pt x="622" y="863" on="1"/>
        <pt x="1100" y="863" on="1"/>
        <pt x="1100" y="1332" on="1"/>
        <pt x="938" y="1365" on="1"/>
        <pt x="938" y="1522" on="1"/>
        <pt x="1663" y="1522" on="1"/>
        <pt x="1663" y="1365" on="1"/>
        <pt x="1513" y="1333" on="1"/>
        <pt x="1513" y="878" on="1"/>
        <pt x="1772" y="878" on="1"/>
        <pt x="1892" y="878" on="0"/>
        <pt x="2085" y="821" on="0"/>
        <pt x="2221" y="713" on="0"/>
        <pt x="2295" y="555" on="0"/>
        <pt x="2295" y="454" on="1"/>
        <pt x="2295" y="340" on="0"/>
        <pt x="2218" y="164" on="0"/>
        <pt x="2080" y="45" on="0"/>
        <pt x="1888" y="-17" on="0"/>
        <pt x="1774" y="-17" on="1"/>
        <pt x="1762" y="-17" on="0"/>
        <pt x="1698" y="-14" on="0"/>
        <pt x="1612" y="-11" on="0"/>
        <pt x="1513" y="-6" on="0"/>
        <pt x="1421" y="-3" on="0"/>
        <pt x="1344" y="0" on="0"/>
        <pt x="1323" y="0" on="1"/>
        <pt x="940" y="0" on="1"/>
      </contour>
      <contour>
        <pt x="1513" y="717" on="1"/>
        <pt x="1513" y="159" on="1"/>
        <pt x="1536" y="152" on="0"/>
        <pt x="1592" y="142" on="0"/>
        <pt x="1627" y="142" on="1"/>
        <pt x="1702" y="142" on="0"/>
        <pt x="1797" y="191" on="0"/>
        <pt x="1850" y="273" on="0"/>
        <pt x="1869" y="379" on="0"/>
        <pt x="1869" y="435" on="1"/>
        <pt x="1869" y="511" on="0"/>
        <pt x="1844" y="619" on="0"/>
        <pt x="1792" y="686" on="0"/>
        <pt x="1709" y="717" on="0"/>
        <pt x="1651" y="717" on="1"/>
      </contour>
    </TTGlyph>
    <TTGlyph name="afii10060" xMin="30" yMin="0" xMax="1960" yMax="1522">
      <contour>
        <pt x="979" y="785" on="1"/>
        <pt x="1057" y="829" on="0"/>
        <pt x="1238" y="885" on="0"/>
        <pt x="1341" y="885" on="1"/>
        <pt x="1468" y="885" on="0"/>
        <pt x="1650" y="844" on="0"/>
        <pt x="1766" y="741" on="0"/>
        <pt x="1820" y="564" on="0"/>
        <pt x="1820" y="429" on="1"/>
        <pt x="1820" y="175" on="1"/>
        <pt x="1960" y="152" on="1"/>
        <pt x="1960" y="0" on="1"/>
        <pt x="1287" y="0" on="1"/>
        <pt x="1287" y="152" on="1"/>
        <pt x="1407" y="175" on="1"/>
        <pt x="1407" y="348" on="1"/>
        <pt x="1407" y="450" on="0"/>
        <pt x="1392" y="579" on="0"/>
        <pt x="1351" y="651" on="0"/>
        <pt x="1277" y="677" on="0"/>
        <pt x="1218" y="677" on="1"/>
        <pt x="1174" y="677" on="0"/>
        <pt x="1102" y="664" on="0"/>
        <pt x="1044" y="643" on="0"/>
        <pt x="997" y="619" on="0"/>
        <pt x="979" y="608" on="1"/>
        <pt x="978" y="608" on="1"/>
        <pt x="978" y="176" on="1"/>
        <pt x="1147" y="152" on="1"/>
        <pt x="1147" y="0" on="1"/>
        <pt x="313" y="0" on="1"/>
        <pt x="313" y="152" on="1"/>
        <pt x="564" y="176" on="1"/>
        <pt x="564" y="1357" on="1"/>
        <pt x="311" y="1332" on="1"/>
        <pt x="246" y="1023" on="1"/>
        <pt x="30" y="1023" on="1"/>
        <pt x="59" y="1522" on="1"/>
        <pt x="1491" y="1522" on="1"/>
        <pt x="1528" y="1023" on="1"/>
        <pt x="1325" y="1023" on="1"/>
        <pt x="1235" y="1329" on="1"/>
        <pt x="978" y="1355" on="1"/>
        <pt x="978" y="783" on="1"/>
        <pt x="979" y="785" on="1"/>
      </contour>
    </TTGlyph>
    <TTGlyph name="afii10061" xMin="62" yMin="0" xMax="1535" yMax="2014">
      <component glyphName="acute.cap" x="256" y="0" flags="0x4"/>
      <component glyphName="afii10028" x="0" y="0" flags="0x4"/>
    </TTGlyph>
    <TTGlyph name="afii10062" xMin="-8" yMin="-23" xMax="1396" yMax="2014">
      <component glyphName="breve.rcap" x="231" y="0" flags="0x4"/>
      <component glyphName="afii10037" x="0" y="0" flags="0x4"/>
    </TTGlyph>
    <TTGlyph name="afii10065" xMin="40" yMin="-26" xMax="1164" yMax="1167">
      <component glyphName="a" x="0" y="0" flags="0x4"/>
    </TTGlyph>
    <TTGlyph name="afii10066" xMin="43" yMin="-16" xMax="1178" yMax="1796">
      <contour>
        <pt x="624" y="-16" on="1"/>
        <pt x="476" y="-16" on="0"/>
        <pt x="257" y="87" on="0"/>
        <pt x="113" y="285" on="0"/>
        <pt x="43" y="573" on="0"/>
        <pt x="43" y="758" on="1"/>
        <pt x="43" y="904" on="0"/>
        <pt x="88" y="1134" on="0"/>
        <pt x="172" y="1313" on="0"/>
        <pt x="291" y="1446" on="0"/>
        <pt x="366" y="1496" on="1"/>
        <pt x="414" y="1528" on="0"/>
        <pt x="533" y="1582" on="0"/>
        <pt x="657" y="1624" on="0"/>
        <pt x="773" y="1651" on="0"/>
        <pt x="818" y="1655" on="1"/>
        <pt x="858" y="1658" on="0"/>
        <pt x="905" y="1684" on="0"/>
        <pt x="916" y="1719" on="1"/>
        <pt x="942" y="1796" on="1"/>
        <pt x="1148" y="1796" on="1"/>
        <pt x="1126" y="1510" on="1"/>
        <pt x="1121" y="1455" on="0"/>
        <pt x="1057" y="1393" on="0"/>
        <pt x="991" y="1393" on="1"/>
        <pt x="913" y="1393" on="0"/>
        <pt x="758" y="1388" on="0"/>
        <pt x="620" y="1371" on="0"/>
        <pt x="507" y="1339" on="0"/>
        <pt x="470" y="1312" on="1"/>
        <pt x="454" y="1300" on="0"/>
        <pt x="424" y="1257" on="0"/>
        <pt x="398" y="1184" on="0"/>
        <pt x="378" y="1077" on="0"/>
        <pt x="372" y="1000" on="1"/>
        <pt x="388" y="1021" on="0"/>
        <pt x="449" y="1077" on="0"/>
        <pt x="538" y="1128" on="0"/>
        <pt x="653" y="1163" on="0"/>
        <pt x="724" y="1163" on="1"/>
        <pt x="853" y="1163" on="0"/>
        <pt x="1027" y="1095" on="0"/>
        <pt x="1133" y="955" on="0"/>
        <pt x="1178" y="740" on="0"/>
        <pt x="1178" y="592" on="1"/>
        <pt x="1178" y="460" on="0"/>
        <pt x="1108" y="237" on="0"/>
        <pt x="968" y="75" on="0"/>
        <pt x="761" y="-16" on="0"/>
      </contour>
      <contour>
        <pt x="617" y="126" on="1"/>
        <pt x="669" y="126" on="0"/>
        <pt x="732" y="196" on="0"/>
        <pt x="766" y="323" on="0"/>
        <pt x="776" y="500" on="0"/>
        <pt x="776" y="607" on="1"/>
        <pt x="776" y="727" on="0"/>
        <pt x="757" y="872" on="0"/>
        <pt x="718" y="950" on="0"/>
        <pt x="658" y="975" on="0"/>
        <pt x="616" y="975" on="1"/>
        <pt x="577" y="975" on="0"/>
        <pt x="522" y="955" on="0"/>
        <pt x="484" y="926" on="0"/>
        <pt x="460" y="891" on="0"/>
        <pt x="452" y="876" on="1"/>
        <pt x="452" y="666" on="0"/>
        <pt x="461" y="379" on="0"/>
        <pt x="495" y="203" on="0"/>
        <pt x="561" y="126" on="0"/>
      </contour>
    </TTGlyph>
    <TTGlyph name="afii10067" xMin="77" yMin="-14" xMax="1390" yMax="1155">
      <contour>
        <pt x="81" y="152" on="1"/>
        <pt x="208" y="175" on="1"/>
        <pt x="208" y="968" on="1"/>
        <pt x="77" y="991" on="1"/>
        <pt x="77" y="1138" on="1"/>
        <pt x="365" y="1138" on="1"/>
        <pt x="391" y="1138" on="0"/>
        <pt x="489" y="1143" on="0"/>
        <pt x="605" y="1150" on="0"/>
        <pt x="727" y="1155" on="0"/>
        <pt x="777" y="1155" on="1"/>
        <pt x="939" y="1155" on="0"/>
        <pt x="1140" y="1113" on="0"/>
        <pt x="1251" y="1042" on="0"/>
        <pt x="1289" y="950" on="0"/>
        <pt x="1289" y="900" on="1"/>
        <pt x="1289" y="853" on="0"/>
        <pt x="1267" y="769" on="0"/>
        <pt x="1218" y="699" on="0"/>
        <pt x="1137" y="644" on="0"/>
        <pt x="1078" y="627" on="1"/>
        <pt x="1160" y="620" on="0"/>
        <pt x="1278" y="565" on="0"/>
        <pt x="1354" y="487" on="0"/>
        <pt x="1390" y="397" on="0"/>
        <pt x="1390" y="356" on="1"/>
        <pt x="1390" y="275" on="0"/>
        <pt x="1337" y="140" on="0"/>
        <pt x="1195" y="41" on="0"/>
        <pt x="946" y="-14" on="0"/>
        <pt x="751" y="-14" on="1"/>
        <pt x="700" y="-14" on="0"/>
        <pt x="596" y="-10" on="0"/>
        <pt x="495" y="-4" on="0"/>
        <pt x="400" y="0" on="0"/>
        <pt x="359" y="0" on="1"/>
        <pt x="81" y="0" on="1"/>
      </contour>
      <contour>
        <pt x="602" y="151" on="1"/>
        <pt x="609" y="148" on="0"/>
        <pt x="636" y="143" on="0"/>
        <pt x="670" y="141" on="0"/>
        <pt x="706" y="140" on="0"/>
        <pt x="721" y="140" on="1"/>
        <pt x="784" y="140" on="0"/>
        <pt x="866" y="171" on="0"/>
        <pt x="914" y="225" on="0"/>
        <pt x="933" y="296" on="0"/>
        <pt x="933" y="337" on="1"/>
        <pt x="933" y="383" on="0"/>
        <pt x="910" y="454" on="0"/>
        <pt x="858" y="502" on="0"/>
        <pt x="773" y="526" on="0"/>
        <pt x="711" y="526" on="1"/>
        <pt x="602" y="526" on="1"/>
      </contour>
      <contour>
        <pt x="706" y="677" on="1"/>
        <pt x="764" y="677" on="0"/>
        <pt x="837" y="711" on="0"/>
        <pt x="879" y="765" on="0"/>
        <pt x="894" y="830" on="0"/>
        <pt x="894" y="862" on="1"/>
        <pt x="894" y="896" on="0"/>
        <pt x="879" y="950" on="0"/>
        <pt x="840" y="987" on="0"/>
        <pt x="775" y="1006" on="0"/>
        <pt x="724" y="1006" on="1"/>
        <pt x="692" y="1006" on="0"/>
        <pt x="628" y="1004" on="0"/>
        <pt x="602" y="1002" on="1"/>
        <pt x="602" y="677" on="1"/>
      </contour>
    </TTGlyph>
    <TTGlyph name="afii10068" xMin="59" yMin="0" xMax="1083" yMax="1137">
      <contour>
        <pt x="59" y="152" on="1"/>
        <pt x="205" y="173" on="1"/>
        <pt x="205" y="967" on="1"/>
        <pt x="63" y="991" on="1"/>
        <pt x="63" y="1137" on="1"/>
        <pt x="1073" y="1137" on="1"/>
        <pt x="1083" y="653" on="1"/>
        <pt x="863" y="653" on="1"/>
        <pt x="797" y="968" on="1"/>
        <pt x="611" y="991" on="1"/>
        <pt x="611" y="172" on="1"/>
        <pt x="864" y="152" on="1"/>
        <pt x="864" y="0" on="1"/>
        <pt x="59" y="0" on="1"/>
      </contour>
    </TTGlyph>
    <TTGlyph name="afii10069" xMin="25" yMin="-432" xMax="1404" yMax="1138">
      <contour>
        <pt x="25" y="-432" on="1"/>
        <pt x="25" y="-409" on="0"/>
        <pt x="26" y="-329" on="0"/>
        <pt x="27" y="-228" on="0"/>
        <pt x="30" y="-111" on="0"/>
        <pt x="33" y="7" on="0"/>
        <pt x="36" y="122" on="0"/>
        <pt x="38" y="171" on="1"/>
        <pt x="159" y="163" on="1"/>
        <pt x="177" y="172" on="0"/>
        <pt x="219" y="208" on="0"/>
        <pt x="260" y="279" on="0"/>
        <pt x="298" y="393" on="0"/>
        <pt x="328" y="566" on="0"/>
        <pt x="345" y="806" on="0"/>
        <pt x="345" y="968" on="1"/>
        <pt x="145" y="991" on="1"/>
        <pt x="145" y="1138" on="1"/>
        <pt x="1398" y="1138" on="1"/>
        <pt x="1398" y="991" on="1"/>
        <pt x="1224" y="968" on="1"/>
        <pt x="1224" y="155" on="1"/>
        <pt x="1404" y="155" on="1"/>
        <pt x="1404" y="140" on="0"/>
        <pt x="1400" y="47" on="0"/>
        <pt x="1395" y="-75" on="0"/>
        <pt x="1387" y="-213" on="0"/>
        <pt x="1380" y="-333" on="0"/>
        <pt x="1372" y="-421" on="0"/>
        <pt x="1369" y="-432" on="1"/>
        <pt x="1171" y="-432" on="1"/>
        <pt x="1168" y="-416" on="0"/>
        <pt x="1154" y="-349" on="0"/>
        <pt x="1134" y="-264" on="0"/>
        <pt x="1111" y="-169" on="0"/>
        <pt x="1087" y="-84" on="0"/>
        <pt x="1066" y="-17" on="0"/>
        <pt x="1058" y="-1" on="1"/>
        <pt x="1058" y="0" on="1"/>
        <pt x="357" y="0" on="1"/>
        <pt x="349" y="-18" on="0"/>
        <pt x="327" y="-89" on="0"/>
        <pt x="305" y="-176" on="0"/>
        <pt x="282" y="-270" on="0"/>
        <pt x="263" y="-354" on="0"/>
        <pt x="249" y="-418" on="0"/>
        <pt x="247" y="-432" on="1"/>
      </contour>
      <contour>
        <pt x="544" y="971" on="1"/>
        <pt x="544" y="882" on="1"/>
        <pt x="544" y="753" on="0"/>
        <pt x="527" y="526" on="0"/>
        <pt x="497" y="338" on="0"/>
        <pt x="457" y="197" on="0"/>
        <pt x="433" y="155" on="1"/>
        <pt x="821" y="155" on="1"/>
        <pt x="821" y="971" on="1"/>
      </contour>
    </TTGlyph>
    <TTGlyph name="afii10070" xMin="53" yMin="-23" xMax="1091" yMax="1167">
      <component glyphName="e" x="0" y="0" flags="0x204"/>
    </TTGlyph>
    <TTGlyph name="afii10071" xMin="53" yMin="-23" xMax="1091" yMax="1712">
      <component glyphName="dieresis" x="92" y="0" flags="0x4"/>
      <component glyphName="e" x="0" y="0" flags="0x4"/>
    </TTGlyph>
    <TTGlyph name="afii10072" xMin="-13" yMin="0" xMax="2145" yMax="1138">
      <contour>
        <pt x="1732" y="0" on="1"/>
        <pt x="1697" y="0" on="0"/>
        <pt x="1644" y="45" on="0"/>
        <pt x="1603" y="119" on="0"/>
        <pt x="1569" y="213" on="0"/>
        <pt x="1537" y="311" on="0"/>
        <pt x="1502" y="405" on="0"/>
        <pt x="1458" y="479" on="0"/>
        <pt x="1402" y="525" on="0"/>
        <pt x="1364" y="525" on="1"/>
        <pt x="1262" y="525" on="1"/>
        <pt x="1262" y="176" on="1"/>
        <pt x="1432" y="152" on="1"/>
        <pt x="1432" y="0" on="1"/>
        <pt x="722" y="0" on="1"/>
        <pt x="722" y="152" on="1"/>
        <pt x="869" y="176" on="1"/>
        <pt x="869" y="526" on="1"/>
        <pt x="767" y="525" on="1"/>
        <pt x="729" y="525" on="0"/>
        <pt x="674" y="479" on="0"/>
        <pt x="630" y="405" on="0"/>
        <pt x="595" y="311" on="0"/>
        <pt x="563" y="213" on="0"/>
        <pt x="529" y="119" on="0"/>
        <pt x="488" y="45" on="0"/>
        <pt x="435" y="0" on="0"/>
        <pt x="400" y="0" on="1"/>
        <pt x="-13" y="0" on="1"/>
        <pt x="-13" y="156" on="1"/>
        <pt x="83" y="176" on="1"/>
        <pt x="105" y="185" on="0"/>
        <pt x="145" y="250" on="0"/>
        <pt x="188" y="340" on="0"/>
        <pt x="238" y="445" on="0"/>
        <pt x="303" y="544" on="0"/>
        <pt x="387" y="628" on="0"/>
        <pt x="443" y="651" on="1"/>
        <pt x="220" y="967" on="1"/>
        <pt x="49" y="991" on="1"/>
        <pt x="49" y="1138" on="1"/>
        <pt x="649" y="1138" on="1"/>
        <pt x="649" y="991" on="1"/>
        <pt x="506" y="968" on="1"/>
        <pt x="669" y="675" on="1"/>
        <pt x="869" y="675" on="1"/>
        <pt x="869" y="968" on="1"/>
        <pt x="754" y="991" on="1"/>
        <pt x="754" y="1138" on="1"/>
        <pt x="1378" y="1138" on="1"/>
        <pt x="1380" y="991" on="1"/>
        <pt x="1262" y="967" on="1"/>
        <pt x="1262" y="675" on="1"/>
        <pt x="1461" y="675" on="1"/>
        <pt x="1624" y="968" on="1"/>
        <pt x="1482" y="991" on="1"/>
        <pt x="1482" y="1138" on="1"/>
        <pt x="2082" y="1138" on="1"/>
        <pt x="2082" y="991" on="1"/>
        <pt x="1911" y="967" on="1"/>
        <pt x="1688" y="651" on="1"/>
        <pt x="1744" y="628" on="0"/>
        <pt x="1828" y="544" on="0"/>
        <pt x="1893" y="445" on="0"/>
        <pt x="1942" y="340" on="0"/>
        <pt x="1985" y="249" on="0"/>
        <pt x="2024" y="184" on="0"/>
        <pt x="2047" y="175" on="1"/>
        <pt x="2145" y="156" on="1"/>
        <pt x="2145" y="0" on="1"/>
        <pt x="1732" y="0" on="1"/>
      </contour>
    </TTGlyph>
    <TTGlyph name="afii10073" xMin="59" yMin="-16" xMax="1117" yMax="1161">
      <contour>
        <pt x="83" y="363" on="1"/>
        <pt x="315" y="363" on="1"/>
        <pt x="358" y="186" on="1"/>
        <pt x="374" y="158" on="0"/>
        <pt x="450" y="130" on="0"/>
        <pt x="506" y="130" on="1"/>
        <pt x="556" y="130" on="0"/>
        <pt x="619" y="167" on="0"/>
        <pt x="655" y="224" on="0"/>
        <pt x="668" y="295" on="0"/>
        <pt x="668" y="329" on="1"/>
        <pt x="668" y="363" on="0"/>
        <pt x="657" y="426" on="0"/>
        <pt x="627" y="475" on="0"/>
        <pt x="576" y="505" on="0"/>
        <pt x="536" y="505" on="1"/>
        <pt x="524" y="505" on="0"/>
        <pt x="490" y="500" on="0"/>
        <pt x="454" y="493" on="0"/>
        <pt x="420" y="484" on="0"/>
        <pt x="408" y="481" on="1"/>
        <pt x="412" y="668" on="1"/>
        <pt x="500" y="679" on="1"/>
        <pt x="527" y="685" on="0"/>
        <pt x="578" y="717" on="0"/>
        <pt x="617" y="767" on="0"/>
        <pt x="641" y="838" on="0"/>
        <pt x="641" y="883" on="1"/>
        <pt x="641" y="956" on="0"/>
        <pt x="570" y="1017" on="0"/>
        <pt x="499" y="1017" on="1"/>
        <pt x="469" y="1017" on="0"/>
        <pt x="420" y="1000" on="0"/>
        <pt x="384" y="973" on="0"/>
        <pt x="361" y="938" on="0"/>
        <pt x="356" y="920" on="1"/>
        <pt x="333" y="776" on="1"/>
        <pt x="78" y="776" on="1"/>
        <pt x="78" y="1106" on="1"/>
        <pt x="130" y="1106" on="0"/>
        <pt x="227" y="1123" on="0"/>
        <pt x="336" y="1144" on="0"/>
        <pt x="463" y="1161" on="0"/>
        <pt x="545" y="1161" on="1"/>
        <pt x="686" y="1161" on="0"/>
        <pt x="881" y="1123" on="0"/>
        <pt x="1002" y="1052" on="0"/>
        <pt x="1057" y="949" on="0"/>
        <pt x="1057" y="884" on="1"/>
        <pt x="1057" y="797" on="0"/>
        <pt x="943" y="653" on="0"/>
        <pt x="834" y="611" on="1"/>
        <pt x="908" y="602" on="0"/>
        <pt x="1014" y="555" on="0"/>
        <pt x="1083" y="486" on="0"/>
        <pt x="1115" y="397" on="0"/>
        <pt x="1116" y="346" on="1"/>
        <pt x="1117" y="263" on="0"/>
        <pt x="1054" y="129" on="0"/>
        <pt x="919" y="35" on="0"/>
        <pt x="708" y="-16" on="0"/>
        <pt x="561" y="-16" on="1"/>
        <pt x="457" y="-16" on="0"/>
        <pt x="289" y="5" on="0"/>
        <pt x="163" y="32" on="0"/>
        <pt x="79" y="56" on="0"/>
        <pt x="59" y="60" on="1"/>
      </contour>
    </TTGlyph>
    <TTGlyph name="afii10074" xMin="82" yMin="0" xMax="1549" yMax="1138">
      <contour>
        <pt x="82" y="152" on="1"/>
        <pt x="208" y="172" on="1"/>
        <pt x="208" y="968" on="1"/>
        <pt x="84" y="991" on="1"/>
        <pt x="84" y="1138" on="1"/>
        <pt x="747" y="1138" on="1"/>
        <pt x="747" y="991" on="1"/>
        <pt x="609" y="968" on="1"/>
        <pt x="609" y="446" on="1"/>
        <pt x="709" y="580" on="1"/>
        <pt x="1014" y="914" on="1"/>
        <pt x="1014" y="969" on="1"/>
        <pt x="897" y="991" on="1"/>
        <pt x="897" y="1138" on="1"/>
        <pt x="1542" y="1138" on="1"/>
        <pt x="1542" y="991" on="1"/>
        <pt x="1416" y="967" on="1"/>
        <pt x="1416" y="172" on="1"/>
        <pt x="1549" y="151" on="1"/>
        <pt x="1549" y="0" on="1"/>
        <pt x="876" y="0" on="1"/>
        <pt x="876" y="151" on="1"/>
        <pt x="1014" y="173" on="1"/>
        <pt x="1014" y="706" on="1"/>
        <pt x="920" y="562" on="1"/>
        <pt x="609" y="223" on="1"/>
        <pt x="609" y="166" on="1"/>
        <pt x="741" y="152" on="1"/>
        <pt x="741" y="0" on="1"/>
        <pt x="82" y="0" on="1"/>
      </contour>
    </TTGlyph>
    <TTGlyph name="afii10075" xMin="82" yMin="0" xMax="1549" yMax="1728">
      <component glyphName="afii10074" x="0" y="0" flags="0x204"/>
      <component glyphName="breve.r" x="292" y="0" flags="0x4"/>
    </TTGlyph>
    <TTGlyph name="afii10076" xMin="81" yMin="0" xMax="1486" yMax="1138">
      <contour>
        <pt x="1076" y="0" on="1"/>
        <pt x="1041" y="0" on="0"/>
        <pt x="988" y="45" on="0"/>
        <pt x="947" y="119" on="0"/>
        <pt x="913" y="213" on="0"/>
        <pt x="881" y="311" on="0"/>
        <pt x="846" y="405" on="0"/>
        <pt x="802" y="479" on="0"/>
        <pt x="746" y="525" on="0"/>
        <pt x="708" y="525" on="1"/>
        <pt x="610" y="525" on="1"/>
        <pt x="610" y="172" on="1"/>
        <pt x="757" y="152" on="1"/>
        <pt x="757" y="0" on="1"/>
        <pt x="81" y="0" on="1"/>
        <pt x="81" y="152" on="1"/>
        <pt x="207" y="173" on="1"/>
        <pt x="207" y="968" on="1"/>
        <pt x="83" y="991" on="1"/>
        <pt x="83" y="1138" on="1"/>
        <pt x="715" y="1138" on="1"/>
        <pt x="715" y="991" on="1"/>
        <pt x="610" y="968" on="1"/>
        <pt x="610" y="675" on="1"/>
        <pt x="799" y="675" on="1"/>
        <pt x="963" y="969" on="1"/>
        <pt x="819" y="991" on="1"/>
        <pt x="819" y="1138" on="1"/>
        <pt x="1419" y="1138" on="1"/>
        <pt x="1419" y="991" on="1"/>
        <pt x="1249" y="967" on="1"/>
        <pt x="1028" y="653" on="1"/>
        <pt x="1085" y="631" on="0"/>
        <pt x="1170" y="547" on="0"/>
        <pt x="1234" y="448" on="0"/>
        <pt x="1284" y="341" on="0"/>
        <pt x="1326" y="250" on="0"/>
        <pt x="1366" y="184" on="0"/>
        <pt x="1389" y="175" on="1"/>
        <pt x="1486" y="156" on="1"/>
        <pt x="1486" y="0" on="1"/>
        <pt x="1076" y="0" on="1"/>
      </contour>
    </TTGlyph>
    <TTGlyph name="afii10077" xMin="-3" yMin="-15" xMax="1297" yMax="1138">
      <contour>
        <pt x="102" y="1138" on="1"/>
        <pt x="1297" y="1138" on="1"/>
        <pt x="1297" y="989" on="1"/>
        <pt x="1119" y="964" on="1"/>
        <pt x="1119" y="172" on="1"/>
        <pt x="1282" y="152" on="1"/>
        <pt x="1282" y="0" on="1"/>
        <pt x="561" y="0" on="1"/>
        <pt x="561" y="152" on="1"/>
        <pt x="714" y="173" on="1"/>
        <pt x="714" y="968" on="1"/>
        <pt x="466" y="968" on="1"/>
        <pt x="466" y="873" on="1"/>
        <pt x="466" y="738" on="0"/>
        <pt x="447" y="502" on="0"/>
        <pt x="415" y="312" on="0"/>
        <pt x="374" y="170" on="0"/>
        <pt x="352" y="128" on="1"/>
        <pt x="340" y="98" on="0"/>
        <pt x="305" y="45" on="0"/>
        <pt x="253" y="7" on="0"/>
        <pt x="184" y="-15" on="0"/>
        <pt x="139" y="-15" on="1"/>
        <pt x="103" y="-15" on="0"/>
        <pt x="43" y="-7" on="0"/>
        <pt x="20" y="-1" on="1"/>
        <pt x="-3" y="204" on="1"/>
        <pt x="19" y="199" on="0"/>
        <pt x="77" y="194" on="0"/>
        <pt x="119" y="194" on="1"/>
        <pt x="144" y="194" on="0"/>
        <pt x="188" y="250" on="0"/>
        <pt x="225" y="350" on="0"/>
        <pt x="254" y="492" on="0"/>
        <pt x="274" y="664" on="0"/>
        <pt x="285" y="861" on="0"/>
        <pt x="285" y="968" on="1"/>
        <pt x="102" y="991" on="1"/>
      </contour>
    </TTGlyph>
    <TTGlyph name="afii10078" xMin="-20" yMin="0" xMax="2010" yMax="1138">
      <contour>
        <pt x="-20" y="152" on="1"/>
        <pt x="131" y="172" on="1"/>
        <pt x="252" y="968" on="1"/>
        <pt x="77" y="991" on="1"/>
        <pt x="77" y="1138" on="1"/>
        <pt x="781" y="1138" on="1"/>
        <pt x="990" y="512" on="1"/>
        <pt x="1016" y="402" on="1"/>
        <pt x="1036" y="512" on="1"/>
        <pt x="1193" y="1138" on="1"/>
        <pt x="1912" y="1138" on="1"/>
        <pt x="1912" y="991" on="1"/>
        <pt x="1720" y="968" on="1"/>
        <pt x="1869" y="173" on="1"/>
        <pt x="2010" y="152" on="1"/>
        <pt x="2010" y="0" on="1"/>
        <pt x="1311" y="0" on="1"/>
        <pt x="1311" y="152" on="1"/>
        <pt x="1459" y="174" on="1"/>
        <pt x="1385" y="767" on="1"/>
        <pt x="1351" y="1004" on="1"/>
        <pt x="1291" y="770" on="1"/>
        <pt x="1100" y="81" on="1"/>
        <pt x="771" y="81" on="1"/>
        <pt x="515" y="778" on="1"/>
        <pt x="449" y="1012" on="1"/>
        <pt x="425" y="781" on="1"/>
        <pt x="366" y="173" on="1"/>
        <pt x="539" y="152" on="1"/>
        <pt x="539" y="0" on="1"/>
        <pt x="-20" y="0" on="1"/>
      </contour>
    </TTGlyph>
    <TTGlyph name="afii10079" xMin="77" yMin="0" xMax="1514" yMax="1138">
      <contour>
        <pt x="81" y="152" on="1"/>
        <pt x="208" y="172" on="1"/>
        <pt x="208" y="967" on="1"/>
        <pt x="77" y="991" on="1"/>
        <pt x="77" y="1138" on="1"/>
        <pt x="730" y="1138" on="1"/>
        <pt x="730" y="991" on="1"/>
        <pt x="610" y="968" on="1"/>
        <pt x="610" y="671" on="1"/>
        <pt x="979" y="671" on="1"/>
        <pt x="979" y="968" on="1"/>
        <pt x="859" y="991" on="1"/>
        <pt x="859" y="1138" on="1"/>
        <pt x="1514" y="1138" on="1"/>
        <pt x="1514" y="991" on="1"/>
        <pt x="1383" y="967" on="1"/>
        <pt x="1383" y="173" on="1"/>
        <pt x="1509" y="152" on="1"/>
        <pt x="1509" y="0" on="1"/>
        <pt x="858" y="0" on="1"/>
        <pt x="858" y="152" on="1"/>
        <pt x="979" y="172" on="1"/>
        <pt x="979" y="510" on="1"/>
        <pt x="610" y="510" on="1"/>
        <pt x="610" y="173" on="1"/>
        <pt x="730" y="152" on="1"/>
        <pt x="730" y="0" on="1"/>
        <pt x="81" y="0" on="1"/>
      </contour>
    </TTGlyph>
    <TTGlyph name="afii10080" xMin="53" yMin="-23" xMax="1216" yMax="1168">
      <component glyphName="o" x="0" y="0" flags="0x204"/>
    </TTGlyph>
    <TTGlyph name="afii10081" xMin="76" yMin="0" xMax="1487" yMax="1138">
      <contour>
        <pt x="82" y="152" on="1"/>
        <pt x="208" y="176" on="1"/>
        <pt x="208" y="968" on="1"/>
        <pt x="76" y="991" on="1"/>
        <pt x="76" y="1138" on="1"/>
        <pt x="1487" y="1138" on="1"/>
        <pt x="1487" y="991" on="1"/>
        <pt x="1350" y="968" on="1"/>
        <pt x="1350" y="175" on="1"/>
        <pt x="1476" y="152" on="1"/>
        <pt x="1476" y="0" on="1"/>
        <pt x="822" y="0" on="1"/>
        <pt x="822" y="152" on="1"/>
        <pt x="946" y="175" on="1"/>
        <pt x="946" y="987" on="1"/>
        <pt x="612" y="987" on="1"/>
        <pt x="612" y="175" on="1"/>
        <pt x="725" y="152" on="1"/>
        <pt x="725" y="0" on="1"/>
        <pt x="82" y="0" on="1"/>
      </contour>
    </TTGlyph>
    <TTGlyph name="afii10082" xMin="54" yMin="-496" xMax="1267" yMax="1168">
      <component glyphName="p" x="5" y="0" flags="0x4"/>
    </TTGlyph>
    <TTGlyph name="afii10083" xMin="61" yMin="-23" xMax="1031" yMax="1168">
      <component glyphName="c" x="0" y="0" flags="0x204"/>
    </TTGlyph>
    <TTGlyph name="afii10084" xMin="40" yMin="0" xMax="1346" yMax="1137">
      <contour>
        <pt x="252" y="152" on="1"/>
        <pt x="499" y="175" on="1"/>
        <pt x="499" y="991" on="1"/>
        <pt x="341" y="968" on="1"/>
        <pt x="275" y="624" on="1"/>
        <pt x="40" y="624" on="1"/>
        <pt x="64" y="1137" on="1"/>
        <pt x="1321" y="1137" on="1"/>
        <pt x="1346" y="624" on="1"/>
        <pt x="1114" y="624" on="1"/>
        <pt x="1042" y="968" on="1"/>
        <pt x="903" y="991" on="1"/>
        <pt x="903" y="175" on="1"/>
        <pt x="1162" y="152" on="1"/>
        <pt x="1162" y="0" on="1"/>
        <pt x="252" y="0" on="1"/>
      </contour>
    </TTGlyph>
    <TTGlyph name="afii10085" xMin="-29" yMin="-510" xMax="1241" yMax="1138">
      <component glyphName="y" x="20" y="0" flags="0x4"/>
    </TTGlyph>
    <TTGlyph name="afii10086" xMin="57" yMin="-497" xMax="1858" yMax="1680">
      <contour>
        <pt x="1286" y="-26" on="1"/>
        <pt x="1249" y="-26" on="0"/>
        <pt x="1175" y="-12" on="0"/>
        <pt x="1151" y="0" on="1"/>
        <pt x="1155" y="-95" on="1"/>
        <pt x="1155" y="-325" on="1"/>
        <pt x="1314" y="-353" on="1"/>
        <pt x="1314" y="-497" on="1"/>
        <pt x="613" y="-497" on="1"/>
        <pt x="613" y="-353" on="1"/>
        <pt x="769" y="-324" on="1"/>
        <pt x="769" y="-94" on="1"/>
        <pt x="775" y="92" on="1"/>
        <pt x="728" y="37" on="0"/>
        <pt x="592" y="-26" on="0"/>
        <pt x="506" y="-26" on="1"/>
        <pt x="408" y="-26" on="0"/>
        <pt x="244" y="40" on="0"/>
        <pt x="124" y="178" on="0"/>
        <pt x="57" y="391" on="0"/>
        <pt x="57" y="539" on="1"/>
        <pt x="57" y="680" on="0"/>
        <pt x="129" y="910" on="0"/>
        <pt x="271" y="1074" on="0"/>
        <pt x="485" y="1164" on="0"/>
        <pt x="628" y="1164" on="1"/>
        <pt x="645" y="1164" on="0"/>
        <pt x="685" y="1159" on="0"/>
        <pt x="726" y="1152" on="0"/>
        <pt x="763" y="1141" on="0"/>
        <pt x="776" y="1135" on="1"/>
        <pt x="769" y="1292" on="1"/>
        <pt x="769" y="1461" on="1"/>
        <pt x="633" y="1491" on="1"/>
        <pt x="633" y="1627" on="1"/>
        <pt x="1065" y="1680" on="1"/>
        <pt x="1071" y="1680" on="1"/>
        <pt x="1145" y="1634" on="1"/>
        <pt x="1145" y="1292" on="1"/>
        <pt x="1143" y="1051" on="1"/>
        <pt x="1191" y="1104" on="0"/>
        <pt x="1323" y="1164" on="0"/>
        <pt x="1407" y="1164" on="1"/>
        <pt x="1504" y="1164" on="0"/>
        <pt x="1670" y="1099" on="0"/>
        <pt x="1790" y="961" on="0"/>
        <pt x="1858" y="747" on="0"/>
        <pt x="1858" y="599" on="1"/>
        <pt x="1858" y="458" on="0"/>
        <pt x="1786" y="228" on="0"/>
        <pt x="1642" y="64" on="0"/>
        <pt x="1428" y="-26" on="0"/>
      </contour>
      <contour>
        <pt x="1258" y="981" on="1"/>
        <pt x="1185" y="981" on="0"/>
        <pt x="1145" y="937" on="1"/>
        <pt x="1145" y="182" on="1"/>
        <pt x="1153" y="169" on="0"/>
        <pt x="1201" y="145" on="0"/>
        <pt x="1233" y="145" on="1"/>
        <pt x="1273" y="145" on="0"/>
        <pt x="1350" y="187" on="0"/>
        <pt x="1410" y="288" on="0"/>
        <pt x="1447" y="457" on="0"/>
        <pt x="1447" y="584" on="1"/>
        <pt x="1447" y="673" on="0"/>
        <pt x="1421" y="819" on="0"/>
        <pt x="1371" y="924" on="0"/>
        <pt x="1301" y="981" on="0"/>
      </contour>
      <contour>
        <pt x="656" y="165" on="1"/>
        <pt x="729" y="165" on="0"/>
        <pt x="769" y="209" on="1"/>
        <pt x="769" y="963" on="1"/>
        <pt x="760" y="976" on="0"/>
        <pt x="714" y="1001" on="0"/>
        <pt x="681" y="1001" on="1"/>
        <pt x="640" y="1001" on="0"/>
        <pt x="564" y="954" on="0"/>
        <pt x="504" y="848" on="0"/>
        <pt x="468" y="674" on="0"/>
        <pt x="468" y="547" on="1"/>
        <pt x="468" y="458" on="0"/>
        <pt x="494" y="317" on="0"/>
        <pt x="543" y="218" on="0"/>
        <pt x="612" y="165" on="0"/>
      </contour>
    </TTGlyph>
    <TTGlyph name="afii10087" xMin="-2" yMin="0" xMax="1301" yMax="1138">
      <component glyphName="x" x="0" y="0" flags="0x204"/>
    </TTGlyph>
    <TTGlyph name="afii10088" xMin="80" yMin="-432" xMax="1544" yMax="1138">
      <contour>
        <pt x="1293" y="-432" on="1"/>
        <pt x="1290" y="-416" on="0"/>
        <pt x="1279" y="-349" on="0"/>
        <pt x="1264" y="-263" on="0"/>
        <pt x="1247" y="-169" on="0"/>
        <pt x="1229" y="-83" on="0"/>
        <pt x="1211" y="-16" on="0"/>
        <pt x="1204" y="0" on="1"/>
        <pt x="85" y="0" on="1"/>
        <pt x="85" y="151" on="1"/>
        <pt x="208" y="175" on="1"/>
        <pt x="208" y="968" on="1"/>
        <pt x="80" y="991" on="1"/>
        <pt x="80" y="1138" on="1"/>
        <pt x="733" y="1138" on="1"/>
        <pt x="733" y="991" on="1"/>
        <pt x="612" y="968" on="1"/>
        <pt x="612" y="158" on="1"/>
        <pt x="952" y="158" on="1"/>
        <pt x="952" y="968" on="1"/>
        <pt x="837" y="991" on="1"/>
        <pt x="837" y="1138" on="1"/>
        <pt x="1470" y="1138" on="1"/>
        <pt x="1470" y="991" on="1"/>
        <pt x="1357" y="968" on="1"/>
        <pt x="1357" y="158" on="1"/>
        <pt x="1544" y="158" on="1"/>
        <pt x="1544" y="146" on="0"/>
        <pt x="1540" y="87" on="0"/>
        <pt x="1534" y="5" on="0"/>
        <pt x="1525" y="-93" on="0"/>
        <pt x="1516" y="-193" on="0"/>
        <pt x="1506" y="-290" on="0"/>
        <pt x="1496" y="-369" on="0"/>
        <pt x="1488" y="-423" on="0"/>
        <pt x="1485" y="-432" on="1"/>
        <pt x="1293" y="-432" on="1"/>
      </contour>
    </TTGlyph>
    <TTGlyph name="afii10089" xMin="-2" yMin="0" xMax="1328" yMax="1138">
      <contour>
        <pt x="493" y="380" on="1"/>
        <pt x="399" y="380" on="0"/>
        <pt x="251" y="422" on="0"/>
        <pt x="149" y="522" on="0"/>
        <pt x="95" y="690" on="0"/>
        <pt x="95" y="816" on="1"/>
        <pt x="95" y="968" on="1"/>
        <pt x="-2" y="991" on="1"/>
        <pt x="-2" y="1138" on="1"/>
        <pt x="588" y="1138" on="1"/>
        <pt x="588" y="991" on="1"/>
        <pt x="502" y="967" on="1"/>
        <pt x="502" y="849" on="1"/>
        <pt x="502" y="757" on="0"/>
        <pt x="515" y="641" on="0"/>
        <pt x="548" y="577" on="0"/>
        <pt x="606" y="554" on="0"/>
        <pt x="651" y="554" on="1"/>
        <pt x="697" y="554" on="0"/>
        <pt x="783" y="580" on="0"/>
        <pt x="805" y="599" on="1"/>
        <pt x="805" y="967" on="1"/>
        <pt x="703" y="992" on="1"/>
        <pt x="703" y="1138" on="1"/>
        <pt x="1328" y="1138" on="1"/>
        <pt x="1328" y="991" on="1"/>
        <pt x="1198" y="968" on="1"/>
        <pt x="1198" y="175" on="1"/>
        <pt x="1325" y="152" on="1"/>
        <pt x="1325" y="0" on="1"/>
        <pt x="627" y="0" on="1"/>
        <pt x="627" y="152" on="1"/>
        <pt x="805" y="175" on="1"/>
        <pt x="805" y="455" on="1"/>
        <pt x="771" y="441" on="0"/>
        <pt x="709" y="414" on="0"/>
        <pt x="637" y="393" on="0"/>
        <pt x="551" y="380" on="0"/>
      </contour>
    </TTGlyph>
    <TTGlyph name="afii10090" xMin="85" yMin="0" xMax="2125" yMax="1138">
      <contour>
        <pt x="85" y="148" on="1"/>
        <pt x="208" y="173" on="1"/>
        <pt x="208" y="965" on="1"/>
        <pt x="88" y="991" on="1"/>
        <pt x="88" y="1138" on="1"/>
        <pt x="717" y="1138" on="1"/>
        <pt x="717" y="991" on="1"/>
        <pt x="597" y="968" on="1"/>
        <pt x="597" y="156" on="1"/>
        <pt x="902" y="156" on="1"/>
        <pt x="902" y="968" on="1"/>
        <pt x="793" y="991" on="1"/>
        <pt x="793" y="1138" on="1"/>
        <pt x="1399" y="1138" on="1"/>
        <pt x="1399" y="991" on="1"/>
        <pt x="1290" y="968" on="1"/>
        <pt x="1290" y="156" on="1"/>
        <pt x="1594" y="156" on="1"/>
        <pt x="1594" y="968" on="1"/>
        <pt x="1480" y="991" on="1"/>
        <pt x="1480" y="1138" on="1"/>
        <pt x="2104" y="1138" on="1"/>
        <pt x="2104" y="991" on="1"/>
        <pt x="1984" y="969" on="1"/>
        <pt x="1984" y="172" on="1"/>
        <pt x="2125" y="148" on="1"/>
        <pt x="2125" y="0" on="1"/>
        <pt x="85" y="0" on="1"/>
      </contour>
    </TTGlyph>
    <TTGlyph name="afii10091" xMin="85" yMin="-439" xMax="2188" yMax="1138">
      <contour>
        <pt x="85" y="148" on="1"/>
        <pt x="208" y="173" on="1"/>
        <pt x="208" y="965" on="1"/>
        <pt x="88" y="991" on="1"/>
        <pt x="88" y="1138" on="1"/>
        <pt x="717" y="1138" on="1"/>
        <pt x="717" y="991" on="1"/>
        <pt x="597" y="968" on="1"/>
        <pt x="597" y="156" on="1"/>
        <pt x="902" y="156" on="1"/>
        <pt x="902" y="968" on="1"/>
        <pt x="793" y="991" on="1"/>
        <pt x="793" y="1138" on="1"/>
        <pt x="1399" y="1138" on="1"/>
        <pt x="1399" y="991" on="1"/>
        <pt x="1290" y="968" on="1"/>
        <pt x="1290" y="156" on="1"/>
        <pt x="1594" y="156" on="1"/>
        <pt x="1594" y="968" on="1"/>
        <pt x="1480" y="991" on="1"/>
        <pt x="1480" y="1138" on="1"/>
        <pt x="2104" y="1138" on="1"/>
        <pt x="2104" y="991" on="1"/>
        <pt x="1984" y="969" on="1"/>
        <pt x="1984" y="158" on="1"/>
        <pt x="2188" y="158" on="1"/>
        <pt x="2188" y="146" on="0"/>
        <pt x="2184" y="86" on="0"/>
        <pt x="2178" y="4" on="0"/>
        <pt x="2169" y="-96" on="0"/>
        <pt x="2160" y="-197" on="0"/>
        <pt x="2150" y="-295" on="0"/>
        <pt x="2140" y="-375" on="0"/>
        <pt x="2132" y="-430" on="0"/>
        <pt x="2129" y="-439" on="1"/>
        <pt x="1937" y="-439" on="1"/>
        <pt x="1934" y="-423" on="0"/>
        <pt x="1924" y="-355" on="0"/>
        <pt x="1909" y="-268" on="0"/>
        <pt x="1891" y="-171" on="0"/>
        <pt x="1873" y="-84" on="0"/>
        <pt x="1855" y="-16" on="0"/>
        <pt x="1848" y="0" on="1"/>
        <pt x="85" y="0" on="1"/>
      </contour>
    </TTGlyph>
    <TTGlyph name="afii10092" xMin="32" yMin="-17" xMax="1607" yMax="1138">
      <contour>
        <pt x="220" y="152" on="1"/>
        <pt x="479" y="176" on="1"/>
        <pt x="479" y="991" on="1"/>
        <pt x="312" y="975" on="1"/>
        <pt x="252" y="643" on="1"/>
        <pt x="32" y="643" on="1"/>
        <pt x="37" y="1138" on="1"/>
        <pt x="1038" y="1138" on="1"/>
        <pt x="1038" y="992" on="1"/>
        <pt x="870" y="965" on="1"/>
        <pt x="870" y="704" on="1"/>
        <pt x="886" y="705" on="0"/>
        <pt x="955" y="708" on="0"/>
        <pt x="1033" y="710" on="0"/>
        <pt x="1106" y="712" on="0"/>
        <pt x="1125" y="712" on="1"/>
        <pt x="1250" y="712" on="0"/>
        <pt x="1432" y="665" on="0"/>
        <pt x="1550" y="578" on="0"/>
        <pt x="1607" y="452" on="0"/>
        <pt x="1607" y="373" on="1"/>
        <pt x="1607" y="269" on="0"/>
        <pt x="1534" y="121" on="0"/>
        <pt x="1395" y="27" on="0"/>
        <pt x="1191" y="-17" on="0"/>
        <pt x="1061" y="-17" on="1"/>
        <pt x="1050" y="-17" on="0"/>
        <pt x="995" y="-14" on="0"/>
        <pt x="923" y="-11" on="0"/>
        <pt x="841" y="-6" on="0"/>
        <pt x="763" y="-3" on="0"/>
        <pt x="698" y="0" on="0"/>
        <pt x="679" y="0" on="1"/>
        <pt x="220" y="0" on="1"/>
      </contour>
      <contour>
        <pt x="1006" y="554" on="1"/>
        <pt x="998" y="554" on="0"/>
        <pt x="963" y="554" on="0"/>
        <pt x="921" y="553" on="0"/>
        <pt x="881" y="551" on="0"/>
        <pt x="870" y="550" on="1"/>
        <pt x="870" y="146" on="1"/>
        <pt x="888" y="140" on="0"/>
        <pt x="930" y="136" on="0"/>
        <pt x="950" y="136" on="1"/>
        <pt x="1019" y="136" on="0"/>
        <pt x="1113" y="167" on="0"/>
        <pt x="1172" y="223" on="0"/>
        <pt x="1198" y="300" on="0"/>
        <pt x="1198" y="345" on="1"/>
        <pt x="1198" y="381" on="0"/>
        <pt x="1180" y="455" on="0"/>
        <pt x="1137" y="516" on="0"/>
        <pt x="1063" y="554" on="0"/>
      </contour>
    </TTGlyph>
    <TTGlyph name="afii10093" xMin="71" yMin="-17" xMax="1962" yMax="1138">
      <contour>
        <pt x="73" y="148" on="1"/>
        <pt x="208" y="173" on="1"/>
        <pt x="208" y="965" on="1"/>
        <pt x="71" y="992" on="1"/>
        <pt x="71" y="1138" on="1"/>
        <pt x="737" y="1138" on="1"/>
        <pt x="737" y="992" on="1"/>
        <pt x="600" y="965" on="1"/>
        <pt x="600" y="706" on="1"/>
        <pt x="624" y="707" on="0"/>
        <pt x="685" y="709" on="0"/>
        <pt x="743" y="711" on="0"/>
        <pt x="794" y="712" on="0"/>
        <pt x="809" y="712" on="1"/>
        <pt x="933" y="712" on="0"/>
        <pt x="1114" y="665" on="0"/>
        <pt x="1233" y="578" on="0"/>
        <pt x="1290" y="452" on="0"/>
        <pt x="1290" y="373" on="1"/>
        <pt x="1290" y="271" on="0"/>
        <pt x="1218" y="123" on="0"/>
        <pt x="1079" y="28" on="0"/>
        <pt x="876" y="-17" on="0"/>
        <pt x="746" y="-17" on="1"/>
        <pt x="735" y="-17" on="0"/>
        <pt x="680" y="-14" on="0"/>
        <pt x="608" y="-11" on="0"/>
        <pt x="526" y="-6" on="0"/>
        <pt x="448" y="-3" on="0"/>
        <pt x="383" y="0" on="0"/>
        <pt x="364" y="0" on="1"/>
        <pt x="73" y="0" on="1"/>
      </contour>
      <contour>
        <pt x="1325" y="152" on="1"/>
        <pt x="1446" y="176" on="1"/>
        <pt x="1446" y="966" on="1"/>
        <pt x="1323" y="989" on="1"/>
        <pt x="1323" y="1138" on="1"/>
        <pt x="1940" y="1138" on="1"/>
        <pt x="1940" y="989" on="1"/>
        <pt x="1828" y="968" on="1"/>
        <pt x="1828" y="173" on="1"/>
        <pt x="1962" y="152" on="1"/>
        <pt x="1962" y="0" on="1"/>
        <pt x="1325" y="0" on="1"/>
      </contour>
      <contour>
        <pt x="689" y="554" on="1"/>
        <pt x="679" y="554" on="0"/>
        <pt x="626" y="554" on="0"/>
        <pt x="600" y="553" on="1"/>
        <pt x="600" y="136" on="1"/>
        <pt x="635" y="136" on="1"/>
        <pt x="703" y="136" on="0"/>
        <pt x="797" y="167" on="0"/>
        <pt x="855" y="223" on="0"/>
        <pt x="881" y="300" on="0"/>
        <pt x="881" y="345" on="1"/>
        <pt x="881" y="381" on="0"/>
        <pt x="864" y="455" on="0"/>
        <pt x="820" y="516" on="0"/>
        <pt x="746" y="554" on="0"/>
      </contour>
    </TTGlyph>
    <TTGlyph name="afii10094" xMin="80" yMin="-17" xMax="1333" yMax="1138">
      <contour>
        <pt x="80" y="148" on="1"/>
        <pt x="208" y="173" on="1"/>
        <pt x="208" y="968" on="1"/>
        <pt x="80" y="990" on="1"/>
        <pt x="80" y="1138" on="1"/>
        <pt x="754" y="1138" on="1"/>
        <pt x="754" y="990" on="1"/>
        <pt x="602" y="968" on="1"/>
        <pt x="602" y="704" on="1"/>
        <pt x="618" y="705" on="0"/>
        <pt x="686" y="708" on="0"/>
        <pt x="762" y="710" on="0"/>
        <pt x="832" y="712" on="0"/>
        <pt x="851" y="712" on="1"/>
        <pt x="975" y="712" on="0"/>
        <pt x="1157" y="665" on="0"/>
        <pt x="1276" y="578" on="0"/>
        <pt x="1333" y="452" on="0"/>
        <pt x="1333" y="373" on="1"/>
        <pt x="1333" y="271" on="0"/>
        <pt x="1261" y="123" on="0"/>
        <pt x="1123" y="28" on="0"/>
        <pt x="921" y="-17" on="0"/>
        <pt x="791" y="-17" on="1"/>
        <pt x="780" y="-17" on="0"/>
        <pt x="726" y="-14" on="0"/>
        <pt x="654" y="-11" on="0"/>
        <pt x="573" y="-6" on="0"/>
        <pt x="496" y="-3" on="0"/>
        <pt x="430" y="0" on="0"/>
        <pt x="411" y="0" on="1"/>
        <pt x="80" y="0" on="1"/>
      </contour>
      <contour>
        <pt x="733" y="554" on="1"/>
        <pt x="726" y="554" on="0"/>
        <pt x="692" y="554" on="0"/>
        <pt x="652" y="553" on="0"/>
        <pt x="614" y="552" on="0"/>
        <pt x="602" y="551" on="1"/>
        <pt x="602" y="143" on="1"/>
        <pt x="619" y="138" on="0"/>
        <pt x="654" y="136" on="0"/>
        <pt x="680" y="136" on="1"/>
        <pt x="748" y="136" on="0"/>
        <pt x="842" y="167" on="0"/>
        <pt x="899" y="223" on="0"/>
        <pt x="924" y="300" on="0"/>
        <pt x="924" y="345" on="1"/>
        <pt x="924" y="381" on="0"/>
        <pt x="907" y="455" on="0"/>
        <pt x="864" y="516" on="0"/>
        <pt x="790" y="554" on="0"/>
      </contour>
    </TTGlyph>
    <TTGlyph name="afii10095" xMin="75" yMin="-23" xMax="1060" yMax="1168">
      <contour>
        <pt x="273" y="677" on="1"/>
        <pt x="640" y="665" on="1"/>
        <pt x="638" y="745" on="0"/>
        <pt x="617" y="875" on="0"/>
        <pt x="575" y="967" on="0"/>
        <pt x="509" y="1017" on="0"/>
        <pt x="460" y="1017" on="1"/>
        <pt x="413" y="1017" on="0"/>
        <pt x="361" y="979" on="0"/>
        <pt x="347" y="954" on="1"/>
        <pt x="313" y="832" on="1"/>
        <pt x="91" y="832" on="1"/>
        <pt x="83" y="1106" on="1"/>
        <pt x="105" y="1114" on="0"/>
        <pt x="194" y="1136" on="0"/>
        <pt x="302" y="1155" on="0"/>
        <pt x="416" y="1168" on="0"/>
        <pt x="465" y="1168" on="1"/>
        <pt x="586" y="1168" on="0"/>
        <pt x="802" y="1092" on="0"/>
        <pt x="965" y="942" on="0"/>
        <pt x="1060" y="720" on="0"/>
        <pt x="1059" y="575" on="1"/>
        <pt x="1058" y="438" on="0"/>
        <pt x="988" y="217" on="0"/>
        <pt x="850" y="61" on="0"/>
        <pt x="645" y="-23" on="0"/>
        <pt x="509" y="-23" on="1"/>
        <pt x="441" y="-23" on="0"/>
        <pt x="315" y="-5" on="0"/>
        <pt x="205" y="27" on="0"/>
        <pt x="117" y="69" on="0"/>
        <pt x="88" y="93" on="1"/>
        <pt x="75" y="318" on="1"/>
        <pt x="251" y="318" on="1"/>
        <pt x="304" y="164" on="1"/>
        <pt x="327" y="154" on="0"/>
        <pt x="382" y="143" on="0"/>
        <pt x="412" y="143" on="1"/>
        <pt x="461" y="143" on="0"/>
        <pt x="540" y="178" on="0"/>
        <pt x="597" y="260" on="0"/>
        <pt x="632" y="396" on="0"/>
        <pt x="638" y="497" on="1"/>
        <pt x="273" y="486" on="1"/>
      </contour>
    </TTGlyph>
    <TTGlyph name="afii10096" xMin="82" yMin="-23" xMax="1962" yMax="1168">
      <contour>
        <pt x="82" y="152" on="1"/>
        <pt x="208" y="176" on="1"/>
        <pt x="208" y="968" on="1"/>
        <pt x="84" y="991" on="1"/>
        <pt x="84" y="1138" on="1"/>
        <pt x="750" y="1138" on="1"/>
        <pt x="750" y="991" on="1"/>
        <pt x="612" y="967" on="1"/>
        <pt x="612" y="672" on="1"/>
        <pt x="814" y="672" on="1"/>
        <pt x="830" y="802" on="0"/>
        <pt x="935" y="990" on="0"/>
        <pt x="1092" y="1111" on="0"/>
        <pt x="1290" y="1168" on="0"/>
        <pt x="1401" y="1168" on="1"/>
        <pt x="1524" y="1168" on="0"/>
        <pt x="1730" y="1098" on="0"/>
        <pt x="1879" y="954" on="0"/>
        <pt x="1962" y="735" on="0"/>
        <pt x="1962" y="586" on="1"/>
        <pt x="1962" y="419" on="0"/>
        <pt x="1868" y="187" on="0"/>
        <pt x="1707" y="42" on="0"/>
        <pt x="1491" y="-23" on="0"/>
        <pt x="1369" y="-23" on="1"/>
        <pt x="1251" y="-23" on="0"/>
        <pt x="1052" y="42" on="0"/>
        <pt x="904" y="173" on="0"/>
        <pt x="815" y="373" on="0"/>
        <pt x="808" y="508" on="1"/>
        <pt x="612" y="508" on="1"/>
        <pt x="612" y="176" on="1"/>
        <pt x="760" y="152" on="1"/>
        <pt x="760" y="0" on="1"/>
        <pt x="82" y="0" on="1"/>
      </contour>
      <contour>
        <pt x="1392" y="127" on="1"/>
        <pt x="1430" y="127" on="0"/>
        <pt x="1484" y="170" on="0"/>
        <pt x="1518" y="268" on="0"/>
        <pt x="1534" y="428" on="0"/>
        <pt x="1534" y="544" on="1"/>
        <pt x="1534" y="673" on="0"/>
        <pt x="1519" y="854" on="0"/>
        <pt x="1484" y="967" on="0"/>
        <pt x="1425" y="1018" on="0"/>
        <pt x="1382" y="1018" on="1"/>
        <pt x="1344" y="1018" on="0"/>
        <pt x="1288" y="975" on="0"/>
        <pt x="1251" y="878" on="0"/>
        <pt x="1233" y="719" on="0"/>
        <pt x="1233" y="603" on="1"/>
        <pt x="1233" y="474" on="0"/>
        <pt x="1250" y="293" on="0"/>
        <pt x="1288" y="179" on="0"/>
        <pt x="1349" y="127" on="0"/>
      </contour>
    </TTGlyph>
    <TTGlyph name="afii10097" xMin="33" yMin="0" xMax="1371" yMax="1154">
      <contour>
        <pt x="33" y="153" on="1"/>
        <pt x="116" y="175" on="1"/>
        <pt x="145" y="182" on="0"/>
        <pt x="191" y="222" on="0"/>
        <pt x="227" y="276" on="0"/>
        <pt x="258" y="338" on="0"/>
        <pt x="289" y="398" on="0"/>
        <pt x="323" y="449" on="0"/>
        <pt x="344" y="465" on="1"/>
        <pt x="221" y="499" on="0"/>
        <pt x="95" y="660" on="0"/>
        <pt x="95" y="794" on="1"/>
        <pt x="95" y="877" on="0"/>
        <pt x="158" y="1010" on="0"/>
        <pt x="293" y="1104" on="0"/>
        <pt x="506" y="1154" on="0"/>
        <pt x="656" y="1154" on="1"/>
        <pt x="714" y="1154" on="0"/>
        <pt x="833" y="1149" on="0"/>
        <pt x="946" y="1143" on="0"/>
        <pt x="1045" y="1138" on="0"/>
        <pt x="1083" y="1138" on="1"/>
        <pt x="1368" y="1138" on="1"/>
        <pt x="1368" y="989" on="1"/>
        <pt x="1227" y="967" on="1"/>
        <pt x="1227" y="176" on="1"/>
        <pt x="1371" y="154" on="1"/>
        <pt x="1371" y="0" on="1"/>
        <pt x="689" y="0" on="1"/>
        <pt x="689" y="154" on="1"/>
        <pt x="832" y="177" on="1"/>
        <pt x="832" y="436" on="1"/>
        <pt x="687" y="437" on="1"/>
        <pt x="659" y="419" on="0"/>
        <pt x="619" y="340" on="0"/>
        <pt x="586" y="243" on="0"/>
        <pt x="558" y="140" on="0"/>
        <pt x="526" y="55" on="0"/>
        <pt x="486" y="0" on="0"/>
        <pt x="459" y="0" on="1"/>
        <pt x="33" y="0" on="1"/>
      </contour>
      <contour>
        <pt x="724" y="577" on="1"/>
        <pt x="759" y="577" on="0"/>
        <pt x="812" y="578" on="0"/>
        <pt x="832" y="580" on="1"/>
        <pt x="832" y="1006" on="1"/>
        <pt x="820" y="1008" on="0"/>
        <pt x="768" y="1015" on="0"/>
        <pt x="715" y="1015" on="1"/>
        <pt x="684" y="1015" on="0"/>
        <pt x="618" y="1001" on="0"/>
        <pt x="563" y="960" on="0"/>
        <pt x="528" y="887" on="0"/>
        <pt x="528" y="828" on="1"/>
        <pt x="528" y="780" on="0"/>
        <pt x="546" y="690" on="0"/>
        <pt x="591" y="620" on="0"/>
        <pt x="666" y="577" on="0"/>
      </contour>
    </TTGlyph>
    <TTGlyph name="afii10098" xMin="64" yMin="0" xMax="1045" yMax="1461">
      <contour>
        <pt x="64" y="0" on="1"/>
        <pt x="64" y="152" on="1"/>
        <pt x="210" y="175" on="1"/>
        <pt x="210" y="968" on="1"/>
        <pt x="68" y="992" on="1"/>
        <pt x="68" y="1138" on="1"/>
        <pt x="785" y="1138" on="1"/>
        <pt x="826" y="1461" on="1"/>
        <pt x="1032" y="1461" on="1"/>
        <pt x="1045" y="971" on="1"/>
        <pt x="603" y="987" on="1"/>
        <pt x="603" y="175" on="1"/>
        <pt x="870" y="152" on="1"/>
        <pt x="870" y="0" on="1"/>
      </contour>
    </TTGlyph>
    <TTGlyph name="afii10099" xMin="7" yMin="-545" xMax="1264" yMax="1687">
      <contour>
        <pt x="7" y="1328" on="1"/>
        <pt x="172" y="1328" on="1"/>
        <pt x="172" y="1460" on="1"/>
        <pt x="39" y="1490" on="1"/>
        <pt x="39" y="1634" on="1"/>
        <pt x="495" y="1687" on="1"/>
        <pt x="500" y="1687" on="1"/>
        <pt x="568" y="1637" on="1"/>
        <pt x="568" y="1328" on="1"/>
        <pt x="790" y="1328" on="1"/>
        <pt x="790" y="1194" on="1"/>
        <pt x="569" y="1194" on="1"/>
        <pt x="569" y="1173" on="1"/>
        <pt x="548" y="938" on="1"/>
        <pt x="611" y="998" on="0"/>
        <pt x="802" y="1080" on="0"/>
        <pt x="934" y="1080" on="1"/>
        <pt x="1021" y="1080" on="0"/>
        <pt x="1146" y="1033" on="0"/>
        <pt x="1226" y="929" on="0"/>
        <pt x="1264" y="763" on="0"/>
        <pt x="1264" y="644" on="1"/>
        <pt x="1264" y="21" on="1"/>
        <pt x="1264" y="-107" on="0"/>
        <pt x="1201" y="-314" on="0"/>
        <pt x="1075" y="-462" on="0"/>
        <pt x="885" y="-544" on="0"/>
        <pt x="758" y="-545" on="1"/>
        <pt x="752" y="-545" on="0"/>
        <pt x="719" y="-545" on="0"/>
        <pt x="683" y="-544" on="0"/>
        <pt x="652" y="-541" on="0"/>
        <pt x="648" y="-538" on="1"/>
        <pt x="638" y="-382" on="1"/>
        <pt x="646" y="-382" on="0"/>
        <pt x="674" y="-380" on="0"/>
        <pt x="705" y="-374" on="0"/>
        <pt x="735" y="-365" on="0"/>
        <pt x="746" y="-360" on="1"/>
        <pt x="789" y="-340" on="0"/>
        <pt x="834" y="-262" on="0"/>
        <pt x="855" y="-157" on="0"/>
        <pt x="858" y="-27" on="0"/>
        <pt x="858" y="45" on="1"/>
        <pt x="858" y="645" on="1"/>
        <pt x="858" y="705" on="0"/>
        <pt x="844" y="788" on="0"/>
        <pt x="814" y="838" on="0"/>
        <pt x="764" y="860" on="0"/>
        <pt x="728" y="860" on="1"/>
        <pt x="699" y="860" on="0"/>
        <pt x="650" y="845" on="0"/>
        <pt x="608" y="823" on="0"/>
        <pt x="576" y="799" on="0"/>
        <pt x="566" y="790" on="1"/>
        <pt x="566" y="173" on="1"/>
        <pt x="667" y="151" on="1"/>
        <pt x="667" y="0" on="1"/>
        <pt x="66" y="0" on="1"/>
        <pt x="66" y="152" on="1"/>
        <pt x="172" y="172" on="1"/>
        <pt x="172" y="1194" on="1"/>
        <pt x="7" y="1194" on="1"/>
      </contour>
    </TTGlyph>
    <TTGlyph name="afii10100" xMin="61" yMin="0" xMax="1085" yMax="1855">
      <component glyphName="acute" x="203" y="0" flags="0x4"/>
      <component glyphName="afii10068" x="2" y="0" flags="0x4"/>
    </TTGlyph>
</ttFont>
